G04 #@! TF.GenerationSoftware,KiCad,Pcbnew,7.0.5-0*
G04 #@! TF.CreationDate,2023-07-18T22:32:37-04:00*
G04 #@! TF.ProjectId,tern,7465726e-2e6b-4696-9361-645f70636258,v1.0.0*
G04 #@! TF.SameCoordinates,Original*
G04 #@! TF.FileFunction,Paste,Bot*
G04 #@! TF.FilePolarity,Positive*
%FSLAX46Y46*%
G04 Gerber Fmt 4.6, Leading zero omitted, Abs format (unit mm)*
G04 Created by KiCad (PCBNEW 7.0.5-0) date 2023-07-18 22:32:37*
%MOMM*%
%LPD*%
G01*
G04 APERTURE LIST*
G04 Aperture macros list*
%AMRotRect*
0 Rectangle, with rotation*
0 The origin of the aperture is its center*
0 $1 length*
0 $2 width*
0 $3 Rotation angle, in degrees counterclockwise*
0 Add horizontal line*
21,1,$1,$2,0,0,$3*%
G04 Aperture macros list end*
%ADD10RotRect,2.600000X2.600000X19.000000*%
%ADD11RotRect,2.600000X2.600000X22.000000*%
%ADD12RotRect,2.600000X2.600000X341.000000*%
%ADD13RotRect,2.600000X2.600000X346.000000*%
%ADD14RotRect,2.600000X2.600000X338.000000*%
%ADD15RotRect,2.600000X2.600000X14.000000*%
%ADD16RotRect,2.600000X2.600000X333.000000*%
%ADD17RotRect,2.600000X2.600000X27.000000*%
G04 APERTURE END LIST*
D10*
X305689970Y-148413131D03*
X317326960Y-146732960D03*
D11*
X281240145Y-134583583D03*
X292773253Y-132296681D03*
D12*
X159441537Y-130206845D03*
X169646027Y-136047298D03*
D11*
X254492126Y-159141802D03*
X266025234Y-156854900D03*
X287608451Y-150345707D03*
X299141559Y-148058805D03*
D13*
X133904404Y-145932664D03*
X144579091Y-150861513D03*
D11*
X274871829Y-118821458D03*
X286404937Y-116534556D03*
D14*
X199015164Y-126676629D03*
X208900003Y-133043140D03*
D15*
X325530160Y-147517255D03*
X337269304Y-146857707D03*
D13*
X138017076Y-129437634D03*
X148691763Y-134366483D03*
D15*
X321417485Y-131022226D03*
X333156629Y-130362678D03*
D14*
X178476801Y-132129909D03*
X188361640Y-138496420D03*
D11*
X273438407Y-160654553D03*
X284971515Y-158367651D03*
X266104925Y-187884500D03*
X277638033Y-185597598D03*
D12*
X164976197Y-114133030D03*
X175180687Y-119973483D03*
D14*
X193612018Y-185430826D03*
X203496857Y-191797337D03*
D11*
X267070095Y-144892427D03*
X278603203Y-142605525D03*
D14*
X205224822Y-156688123D03*
X215109661Y-163054634D03*
D10*
X300155312Y-132339319D03*
X311792302Y-130659148D03*
D14*
X186278543Y-158200877D03*
X196163382Y-164567388D03*
D11*
X260701779Y-129130301D03*
X272234887Y-126843399D03*
D16*
X210332214Y-192736684D03*
X219624560Y-199940489D03*
D11*
X248123809Y-143379676D03*
X259656917Y-141092774D03*
D17*
X249621689Y-195710319D03*
X260911594Y-192426943D03*
D14*
X192646856Y-142438753D03*
X202531695Y-148805264D03*
X184845115Y-116367784D03*
X194729954Y-122734295D03*
D12*
X153906881Y-146280661D03*
X164111371Y-152121114D03*
D14*
X211593136Y-140926004D03*
X221477975Y-147292515D03*
D10*
X294620655Y-116265500D03*
X306257645Y-114585329D03*
D14*
X172108490Y-147892034D03*
X181993329Y-154258545D03*
M02*
