M48
; DRILL file {KiCad 7.0.5-0} date 2023 July 18, Tuesday 22:33:39
; FORMAT={-:-/ absolute / metric / decimal}
; #@! TF.CreationDate,2023-07-18T22:33:39-04:00
; #@! TF.GenerationSoftware,Kicad,Pcbnew,7.0.5-0
; #@! TF.FileFunction,NonPlated,1,2,NPTH
FMAT,2
METRIC
; #@! TA.AperFunction,NonPlated,NPTH,ComponentDrill
T1C1.702
; #@! TA.AperFunction,NonPlated,NPTH,ComponentDrill
T2C2.200
; #@! TA.AperFunction,NonPlated,NPTH,ComponentDrill
T3C3.000
; #@! TA.AperFunction,NonPlated,NPTH,ComponentDrill
T4C3.429
%
G90
G05
T1
X130.306Y-151.168
X134.419Y-134.673
X140.979Y-153.829
X145.092Y-137.334
X149.866Y-151.182
X155.401Y-135.108
X160.267Y-154.763
X160.935Y-119.034
X165.801Y-138.69
X167.817Y-152.575
X171.336Y-122.616
X174.185Y-136.813
X178.016Y-156.696
X180.553Y-121.051
X181.987Y-162.884
X184.384Y-140.934
X188.355Y-147.122
X189.32Y-190.114
X190.752Y-125.172
X192.186Y-167.005
X194.723Y-131.36
X198.554Y-151.243
X199.519Y-194.235
X200.933Y-161.371
X204.922Y-135.481
X205.648Y-197.028
X207.301Y-145.609
X211.132Y-165.492
X215.45Y-202.022
X217.5Y-149.73
X248.29Y-149.73
X250.34Y-202.022
X254.658Y-165.492
X258.489Y-145.609
X260.142Y-197.028
X260.868Y-135.481
X264.857Y-161.371
X266.271Y-194.235
X267.236Y-151.243
X271.067Y-131.36
X273.604Y-167.005
X275.038Y-125.172
X276.47Y-190.114
X277.435Y-147.122
X281.406Y-140.934
X283.803Y-162.884
X285.237Y-121.051
X287.774Y-156.696
X291.605Y-136.813
X294.454Y-122.616
X297.973Y-152.575
X299.989Y-138.69
X304.855Y-119.034
X305.523Y-154.763
X310.389Y-135.108
X315.924Y-151.182
X320.698Y-137.334
X324.811Y-153.829
X331.371Y-134.673
X335.484Y-151.168
T2
X196.99Y-173.799
X268.8Y-173.799
T3
X137.082Y-146.725
X141.195Y-130.23
X141.401Y-150.069
X145.514Y-133.574
X157.003Y-147.347
X161.015Y-151.055
X162.538Y-131.273
X166.549Y-134.981
X168.073Y-115.199
X172.084Y-118.907
X175.145Y-149.119
X178.957Y-153.032
X181.513Y-133.357
X185.325Y-137.27
X187.882Y-117.595
X189.315Y-159.428
X191.693Y-121.507
X193.127Y-163.341
X195.683Y-143.666
X196.649Y-186.658
X199.495Y-147.578
X200.46Y-190.571
X202.052Y-127.903
X205.863Y-131.816
X208.261Y-157.915
X212.073Y-161.828
X213.25Y-194.224
X214.63Y-142.153
X216.707Y-198.454
X218.441Y-146.066
X251.16Y-142.153
X252.54Y-194.224
X256.62Y-142.32
X257.529Y-157.915
X257.994Y-193.914
X262.989Y-158.082
X263.738Y-127.903
X269.141Y-186.658
X269.198Y-128.07
X270.107Y-143.666
X274.602Y-186.824
X275.567Y-143.832
X276.475Y-159.428
X277.908Y-117.595
X281.935Y-159.594
X283.368Y-117.761
X284.277Y-133.357
X289.737Y-133.524
X290.645Y-149.119
X296.105Y-149.286
X297.717Y-115.199
X303.161Y-115.652
X303.252Y-131.273
X308.696Y-131.725
X308.787Y-147.347
X314.23Y-147.799
X324.595Y-130.23
X328.708Y-146.725
X329.979Y-131.155
X334.092Y-147.65
T4
X135.643Y-152.498
X139.755Y-136.003
X155.066Y-152.973
X160.601Y-136.899
X166.136Y-120.825
X172.916Y-154.636
X179.284Y-138.873
X185.653Y-123.111
X187.086Y-164.944
X193.454Y-149.182
X194.42Y-192.174
X199.823Y-133.42
X206.032Y-163.432
X210.549Y-199.525
X212.401Y-147.67
X253.389Y-147.67
X255.241Y-199.525
X259.758Y-163.432
X265.967Y-133.42
X271.37Y-192.174
X272.336Y-149.182
X278.704Y-164.944
X280.137Y-123.111
X286.506Y-138.873
X292.874Y-154.636
X299.654Y-120.825
X305.189Y-136.899
X310.724Y-152.973
X326.035Y-136.003
X330.147Y-152.498
T0
M30
