M48
; DRILL file {KiCad 7.0.5-0} date 2023 July 18, Tuesday 22:33:39
; FORMAT={-:-/ absolute / metric / decimal}
; #@! TF.CreationDate,2023-07-18T22:33:39-04:00
; #@! TF.GenerationSoftware,Kicad,Pcbnew,7.0.5-0
; #@! TF.FileFunction,Plated,1,2,PTH
FMAT,2
METRIC
; #@! TA.AperFunction,Plated,PTH,ComponentDrill
T1C0.300
; #@! TA.AperFunction,Plated,PTH,ViaDrill
T2C0.400
; #@! TA.AperFunction,Plated,PTH,ComponentDrill
T3C1.000
; #@! TA.AperFunction,Plated,PTH,ComponentDrill
T4C2.200
%
G90
G05
T1
X132.249Y-155.362
X136.362Y-138.867
X137.295Y-156.62
X141.407Y-140.125
X151.436Y-155.53
X156.353Y-157.223
X156.971Y-139.456
X162.505Y-123.382
X167.422Y-125.075
X169.157Y-156.999
X173.978Y-158.947
X175.525Y-141.237
X180.347Y-143.185
X181.893Y-125.475
X183.327Y-167.308
X186.715Y-127.423
X188.148Y-169.256
X189.695Y-151.546
X190.66Y-194.538
X194.517Y-153.494
X195.482Y-196.486
X196.064Y-135.784
X200.885Y-137.732
X202.273Y-165.796
X206.598Y-201.552
X207.095Y-167.744
X208.641Y-150.033
X211.231Y-203.913
X213.463Y-151.981
X252.327Y-151.981
X254.559Y-203.913
X257.149Y-150.033
X258.695Y-167.744
X263.517Y-165.796
X264.905Y-137.732
X269.726Y-135.784
X270.308Y-196.486
X271.273Y-153.494
X275.13Y-194.538
X276.095Y-151.546
X277.642Y-169.256
X279.075Y-127.423
X282.463Y-167.308
X283.897Y-125.475
X285.443Y-143.185
X290.265Y-141.237
X291.812Y-158.947
X296.633Y-156.999
X298.368Y-125.075
X303.285Y-123.382
X303.903Y-141.149
X308.819Y-139.456
X309.437Y-157.223
X314.354Y-155.53
X324.383Y-140.125
X328.495Y-156.62
X329.428Y-138.867
X333.541Y-155.362
T2
X147.633Y-138.653
X147.924Y-137.592
X162.35Y-139.806
X168.45Y-141.382
X173.024Y-125.504
X173.186Y-127.414
X178.348Y-148.129
X178.723Y-147.203
X184.241Y-148.656
X190.047Y-134.334
X191.109Y-131.717
X192.796Y-157.753
X197.893Y-160.352
X203.223Y-147.132
X204.073Y-144.913
X204.194Y-174.923
X204.913Y-173.143
X210.453Y-174.594
X217.188Y-157.897
X217.788Y-156.328
X221.298Y-176.809
X222.63Y-173.232
X254.782Y-177.255
X261.739Y-146.243
X262.632Y-148.457
X266.115Y-172.256
X266.739Y-161.478
X267.888Y-161.466
X274.216Y-131.57
X274.892Y-133.419
X277.597Y-155.321
X278.216Y-156.797
X281.807Y-150.536
X290.325Y-126.18
X291.257Y-128.543
X291.952Y-145.413
X296.865Y-142.414
X309.23Y-142.908
X310.898Y-128.325
X310.934Y-126.563
X315.147Y-141.337
X330.479Y-143.072
X335.223Y-139.026
X335.607Y-140.219
T3
X225.275Y-161.95
X225.275Y-164.49
X225.275Y-167.03
X225.275Y-169.57
X225.275Y-172.11
X225.275Y-174.65
X225.275Y-177.19
X240.515Y-161.95
X240.515Y-164.49
X240.515Y-167.03
X240.515Y-169.57
X240.515Y-172.11
X240.515Y-174.65
X240.515Y-177.19
T4
X214.497Y-172.514
X251.293Y-172.514
T0
M30
