G04 #@! TF.GenerationSoftware,KiCad,Pcbnew,7.0.5-0*
G04 #@! TF.CreationDate,2023-07-18T22:32:37-04:00*
G04 #@! TF.ProjectId,tern,7465726e-2e6b-4696-9361-645f70636258,v1.0.0*
G04 #@! TF.SameCoordinates,Original*
G04 #@! TF.FileFunction,Soldermask,Top*
G04 #@! TF.FilePolarity,Negative*
%FSLAX46Y46*%
G04 Gerber Fmt 4.6, Leading zero omitted, Abs format (unit mm)*
G04 Created by KiCad (PCBNEW 7.0.5-0) date 2023-07-18 22:32:37*
%MOMM*%
%LPD*%
G01*
G04 APERTURE LIST*
G04 Aperture macros list*
%AMRotRect*
0 Rectangle, with rotation*
0 The origin of the aperture is its center*
0 $1 length*
0 $2 width*
0 $3 Rotation angle, in degrees counterclockwise*
0 Add horizontal line*
21,1,$1,$2,0,0,$3*%
G04 Aperture macros list end*
%ADD10C,1.701800*%
%ADD11C,3.000000*%
%ADD12C,3.429000*%
%ADD13RotRect,0.900000X1.200000X202.000000*%
%ADD14RotRect,0.900000X1.200000X158.000000*%
%ADD15RotRect,0.900000X1.200000X161.000000*%
%ADD16RotRect,0.900000X1.200000X199.000000*%
%ADD17C,2.200000*%
%ADD18RotRect,0.900000X1.200000X207.000000*%
%ADD19RotRect,0.900000X1.200000X166.000000*%
%ADD20RotRect,0.900000X1.200000X194.000000*%
%ADD21C,4.400000*%
%ADD22O,2.750000X1.800000*%
%ADD23R,2.750000X1.800000*%
%ADD24RotRect,0.900000X1.200000X153.000000*%
G04 APERTURE END LIST*
D10*
X305523322Y-154763356D03*
D11*
X308786543Y-147346895D03*
D12*
X310723674Y-152972731D03*
D11*
X314230386Y-147799196D03*
D10*
X315924026Y-151182106D03*
X281406070Y-140933826D03*
D11*
X284276672Y-133356746D03*
D12*
X286505581Y-138873490D03*
D11*
X289736726Y-133523518D03*
D10*
X291605092Y-136813154D03*
D13*
X269257717Y-137159868D03*
X266198011Y-138396070D03*
D14*
X185421934Y-128087231D03*
X182362228Y-126851029D03*
D13*
X283427767Y-126851029D03*
X280368061Y-128087231D03*
D10*
X155400628Y-135108291D03*
D11*
X162538111Y-131273080D03*
D12*
X160600980Y-136898916D03*
D11*
X166549453Y-134981062D03*
D10*
X165801332Y-138689541D03*
X254658051Y-165492045D03*
D11*
X257528653Y-157914965D03*
D12*
X259757562Y-163431709D03*
D11*
X262988707Y-158081737D03*
D10*
X264857073Y-161371373D03*
D15*
X155096261Y-157953858D03*
X151976049Y-156879484D03*
D14*
X199591986Y-138396074D03*
X196532280Y-137159872D03*
D16*
X313813953Y-156879483D03*
X310693741Y-157953857D03*
D10*
X287774376Y-156695950D03*
D11*
X290644978Y-149118870D03*
D12*
X292873887Y-154635614D03*
D11*
X296105032Y-149285642D03*
D10*
X297973398Y-152575278D03*
X130306061Y-151167648D03*
D11*
X137082122Y-146724958D03*
D12*
X135642687Y-152498218D03*
D11*
X141401373Y-150069219D03*
D10*
X140979313Y-153828788D03*
X275037754Y-125171701D03*
D11*
X277908356Y-117594621D03*
D12*
X280137265Y-123111365D03*
D11*
X283368410Y-117761393D03*
D10*
X285236776Y-121051029D03*
X194723271Y-131359874D03*
D11*
X202051691Y-127903466D03*
D12*
X199822782Y-133420210D03*
D11*
X205863476Y-131816304D03*
D10*
X204922293Y-135480546D03*
D14*
X205801643Y-168407572D03*
X202741937Y-167171370D03*
D10*
X324810688Y-153828790D03*
D11*
X328707879Y-146724960D03*
D12*
X330147314Y-152498220D03*
D11*
X334091586Y-147650002D03*
D10*
X335483940Y-151167650D03*
D14*
X194188837Y-197150272D03*
X191129131Y-195914070D03*
D10*
X134418733Y-134672618D03*
D11*
X141194794Y-130229928D03*
D12*
X139755359Y-136003188D03*
D11*
X145514045Y-133574189D03*
D10*
X145091985Y-137333758D03*
X320698013Y-137333761D03*
D11*
X324595204Y-130229931D03*
D12*
X326034639Y-136003191D03*
D11*
X329978911Y-131154973D03*
D10*
X331371265Y-134672621D03*
D14*
X186855358Y-169920327D03*
X183795652Y-168684125D03*
D17*
X196990225Y-173799369D03*
D10*
X174184908Y-136813154D03*
D11*
X181513328Y-133356746D03*
D12*
X179284419Y-138873490D03*
D11*
X185325113Y-137269584D03*
D10*
X184383930Y-140933826D03*
D18*
X258844899Y-202963639D03*
X255904577Y-204461807D03*
D10*
X273604332Y-167004796D03*
D11*
X276474934Y-159427716D03*
D12*
X278703843Y-164944460D03*
D11*
X281934988Y-159594488D03*
D10*
X283803354Y-162884124D03*
D19*
X136106643Y-157457782D03*
X132904667Y-156659440D03*
D20*
X332885336Y-156659441D03*
X329683360Y-157457783D03*
D13*
X256679755Y-151409248D03*
X253620049Y-152645450D03*
D10*
X266270850Y-194234743D03*
D11*
X269141452Y-186657663D03*
D12*
X271370361Y-192174407D03*
D11*
X274601506Y-186824435D03*
D10*
X276469872Y-190114071D03*
X160935288Y-119034476D03*
D11*
X168072771Y-115199265D03*
D12*
X166135640Y-120825101D03*
D11*
X172084113Y-118907247D03*
D10*
X171335992Y-122615726D03*
D13*
X296164392Y-158375276D03*
X293104686Y-159611478D03*
D15*
X166165575Y-125806222D03*
X163045363Y-124731848D03*
D10*
X189320125Y-190114071D03*
D11*
X196648545Y-186657663D03*
D12*
X194419636Y-192174407D03*
D11*
X200460330Y-190570501D03*
D10*
X199519147Y-194234743D03*
D20*
X328772666Y-140164413D03*
X325570690Y-140962755D03*
D10*
X267236020Y-151242670D03*
D11*
X270106622Y-143665590D03*
D12*
X272335531Y-149182334D03*
D11*
X275566676Y-143832362D03*
D10*
X277435042Y-147121998D03*
D21*
X214496579Y-172513748D03*
D10*
X200932929Y-161371368D03*
D11*
X208261349Y-157914960D03*
D12*
X206032440Y-163431704D03*
D11*
X212073134Y-161827798D03*
D10*
X211131951Y-165492040D03*
D14*
X193223673Y-154158197D03*
X190163967Y-152921995D03*
D13*
X275626034Y-152921998D03*
X272566328Y-154158200D03*
D14*
X179053624Y-143849354D03*
X175993918Y-142613152D03*
D19*
X140219314Y-140962752D03*
X137017338Y-140164410D03*
D10*
X299988664Y-138689544D03*
D11*
X303251885Y-131273083D03*
D12*
X305189016Y-136898919D03*
D11*
X308695728Y-131725384D03*
D10*
X310389368Y-135108294D03*
X181986650Y-162884122D03*
D11*
X189315070Y-159427714D03*
D12*
X187086161Y-164944458D03*
D11*
X193126855Y-163340552D03*
D10*
X192185672Y-167004794D03*
D16*
X302744636Y-124731854D03*
X299624424Y-125806228D03*
D13*
X281994345Y-168684120D03*
X278934639Y-169920322D03*
D17*
X268799776Y-173799364D03*
D14*
X172685307Y-159611479D03*
X169625601Y-158375277D03*
D10*
X260867704Y-135480544D03*
D11*
X263738306Y-127903464D03*
D12*
X265967215Y-133420208D03*
D11*
X269198360Y-128070236D03*
D10*
X271066726Y-131359872D03*
D13*
X263048063Y-167171373D03*
X259988357Y-168407575D03*
D22*
X224800001Y-161949582D03*
X224800001Y-164489582D03*
X224800001Y-167029582D03*
X224800001Y-169569582D03*
X224800001Y-172109582D03*
X224800001Y-174649582D03*
X224800001Y-177189582D03*
X240990001Y-177189582D03*
X240990001Y-174649582D03*
X240990001Y-172109582D03*
X240990001Y-169569582D03*
X240990001Y-167029582D03*
D23*
X240990001Y-164489582D03*
D22*
X240990001Y-161949582D03*
D10*
X205648481Y-197028044D03*
D11*
X213250260Y-194223503D03*
D12*
X210549017Y-199524992D03*
D11*
X216706514Y-198453670D03*
D10*
X215449553Y-202021940D03*
D21*
X251293421Y-172513749D03*
D10*
X248289734Y-149729919D03*
D11*
X251160336Y-142152839D03*
D12*
X253389245Y-147669583D03*
D11*
X256620390Y-142319611D03*
D10*
X258488756Y-145609247D03*
X250340443Y-202021937D03*
D11*
X252539736Y-194223500D03*
D12*
X255240979Y-199524989D03*
D11*
X257993547Y-193913762D03*
D10*
X260141515Y-197028041D03*
X188354963Y-147121998D03*
D11*
X195683383Y-143665590D03*
D12*
X193454474Y-149182334D03*
D11*
X199495168Y-147578428D03*
D10*
X198553985Y-151242670D03*
X180553222Y-121051029D03*
D11*
X187881642Y-117594621D03*
D12*
X185652733Y-123111365D03*
D11*
X191693427Y-121507459D03*
D10*
X190752244Y-125171701D03*
D15*
X160630918Y-141880041D03*
X157510706Y-140805667D03*
D13*
X274660869Y-195914071D03*
X271601163Y-197150273D03*
D10*
X149865972Y-151182107D03*
D11*
X157003455Y-147346896D03*
D12*
X155066324Y-152972732D03*
D11*
X161014797Y-151054878D03*
D10*
X160266676Y-154763357D03*
D24*
X209885422Y-204461804D03*
X206945100Y-202963636D03*
D10*
X207301243Y-145609249D03*
D11*
X214629663Y-142152841D03*
D12*
X212400754Y-147669585D03*
D11*
X218441448Y-146065679D03*
D10*
X217500265Y-149729921D03*
D13*
X289796080Y-142613152D03*
X286736374Y-143849354D03*
D16*
X308279291Y-140805666D03*
X305159079Y-141880040D03*
D14*
X212169954Y-152645448D03*
X209110248Y-151409246D03*
D10*
X294454007Y-122615725D03*
D11*
X297717228Y-115199264D03*
D12*
X299654359Y-120825100D03*
D11*
X303161071Y-115651565D03*
D10*
X304854711Y-119034475D03*
X167816597Y-152575279D03*
D11*
X175145017Y-149118871D03*
D12*
X172916108Y-154635615D03*
D11*
X178956802Y-153031709D03*
D10*
X178015619Y-156695951D03*
M02*
