G04 #@! TF.GenerationSoftware,KiCad,Pcbnew,7.0.5-0*
G04 #@! TF.CreationDate,2023-07-18T22:32:37-04:00*
G04 #@! TF.ProjectId,tern,7465726e-2e6b-4696-9361-645f70636258,v1.0.0*
G04 #@! TF.SameCoordinates,Original*
G04 #@! TF.FileFunction,Legend,Top*
G04 #@! TF.FilePolarity,Positive*
%FSLAX46Y46*%
G04 Gerber Fmt 4.6, Leading zero omitted, Abs format (unit mm)*
G04 Created by KiCad (PCBNEW 7.0.5-0) date 2023-07-18 22:32:37*
%MOMM*%
%LPD*%
G01*
G04 APERTURE LIST*
G04 Aperture macros list*
%AMRotRect*
0 Rectangle, with rotation*
0 The origin of the aperture is its center*
0 $1 length*
0 $2 width*
0 $3 Rotation angle, in degrees counterclockwise*
0 Add horizontal line*
21,1,$1,$2,0,0,$3*%
G04 Aperture macros list end*
%ADD10C,0.150000*%
%ADD11C,0.100000*%
%ADD12C,0.120000*%
%ADD13O,2.750000X1.800000*%
%ADD14R,2.750000X1.800000*%
%ADD15C,1.701800*%
%ADD16C,3.000000*%
%ADD17C,3.429000*%
%ADD18RotRect,0.900000X1.200000X202.000000*%
%ADD19RotRect,0.900000X1.200000X158.000000*%
%ADD20RotRect,0.900000X1.200000X161.000000*%
%ADD21RotRect,0.900000X1.200000X199.000000*%
%ADD22C,2.200000*%
%ADD23RotRect,0.900000X1.200000X207.000000*%
%ADD24RotRect,0.900000X1.200000X166.000000*%
%ADD25RotRect,0.900000X1.200000X194.000000*%
%ADD26C,4.400000*%
%ADD27RotRect,0.900000X1.200000X153.000000*%
G04 APERTURE END LIST*
D10*
X236858801Y-165320646D02*
X236820705Y-165434932D01*
X236820705Y-165434932D02*
X236820705Y-165625408D01*
X236820705Y-165625408D02*
X236858801Y-165701599D01*
X236858801Y-165701599D02*
X236896896Y-165739694D01*
X236896896Y-165739694D02*
X236973086Y-165777789D01*
X236973086Y-165777789D02*
X237049277Y-165777789D01*
X237049277Y-165777789D02*
X237125467Y-165739694D01*
X237125467Y-165739694D02*
X237163562Y-165701599D01*
X237163562Y-165701599D02*
X237201658Y-165625408D01*
X237201658Y-165625408D02*
X237239753Y-165473027D01*
X237239753Y-165473027D02*
X237277848Y-165396837D01*
X237277848Y-165396837D02*
X237315943Y-165358742D01*
X237315943Y-165358742D02*
X237392134Y-165320646D01*
X237392134Y-165320646D02*
X237468324Y-165320646D01*
X237468324Y-165320646D02*
X237544515Y-165358742D01*
X237544515Y-165358742D02*
X237582610Y-165396837D01*
X237582610Y-165396837D02*
X237620705Y-165473027D01*
X237620705Y-165473027D02*
X237620705Y-165663504D01*
X237620705Y-165663504D02*
X237582610Y-165777789D01*
X237239753Y-166120647D02*
X237239753Y-166387313D01*
X236820705Y-166501599D02*
X236820705Y-166120647D01*
X236820705Y-166120647D02*
X237620705Y-166120647D01*
X237620705Y-166120647D02*
X237620705Y-166501599D01*
X237239753Y-166844457D02*
X237239753Y-167111123D01*
X236820705Y-167225409D02*
X236820705Y-166844457D01*
X236820705Y-166844457D02*
X237620705Y-166844457D01*
X237620705Y-166844457D02*
X237620705Y-167225409D01*
X237239753Y-167568267D02*
X237239753Y-167834933D01*
X236820705Y-167949219D02*
X236820705Y-167568267D01*
X236820705Y-167568267D02*
X237620705Y-167568267D01*
X237620705Y-167568267D02*
X237620705Y-167949219D01*
X236820705Y-168292077D02*
X237620705Y-168292077D01*
X237620705Y-168292077D02*
X237620705Y-168482553D01*
X237620705Y-168482553D02*
X237582610Y-168596839D01*
X237582610Y-168596839D02*
X237506420Y-168673029D01*
X237506420Y-168673029D02*
X237430229Y-168711124D01*
X237430229Y-168711124D02*
X237277848Y-168749220D01*
X237277848Y-168749220D02*
X237163562Y-168749220D01*
X237163562Y-168749220D02*
X237011181Y-168711124D01*
X237011181Y-168711124D02*
X236934991Y-168673029D01*
X236934991Y-168673029D02*
X236858801Y-168596839D01*
X236858801Y-168596839D02*
X236820705Y-168482553D01*
X236820705Y-168482553D02*
X236820705Y-168292077D01*
X237620705Y-169625410D02*
X236820705Y-170158744D01*
X237620705Y-170158744D02*
X236820705Y-169625410D01*
X236820705Y-170463506D02*
X237620705Y-170463506D01*
X237049277Y-170806362D02*
X237049277Y-171187315D01*
X236820705Y-170730172D02*
X237620705Y-170996839D01*
X237620705Y-170996839D02*
X236820705Y-171263505D01*
X237620705Y-171682553D02*
X237620705Y-171834934D01*
X237620705Y-171834934D02*
X237582610Y-171911124D01*
X237582610Y-171911124D02*
X237506420Y-171987315D01*
X237506420Y-171987315D02*
X237354039Y-172025410D01*
X237354039Y-172025410D02*
X237087372Y-172025410D01*
X237087372Y-172025410D02*
X236934991Y-171987315D01*
X236934991Y-171987315D02*
X236858801Y-171911124D01*
X236858801Y-171911124D02*
X236820705Y-171834934D01*
X236820705Y-171834934D02*
X236820705Y-171682553D01*
X236820705Y-171682553D02*
X236858801Y-171606362D01*
X236858801Y-171606362D02*
X236934991Y-171530172D01*
X236934991Y-171530172D02*
X237087372Y-171492076D01*
X237087372Y-171492076D02*
X237354039Y-171492076D01*
X237354039Y-171492076D02*
X237506420Y-171530172D01*
X237506420Y-171530172D02*
X237582610Y-171606362D01*
X237582610Y-171606362D02*
X237620705Y-171682553D01*
X237239753Y-173244457D02*
X237201658Y-173358743D01*
X237201658Y-173358743D02*
X237163562Y-173396838D01*
X237163562Y-173396838D02*
X237087372Y-173434934D01*
X237087372Y-173434934D02*
X236973086Y-173434934D01*
X236973086Y-173434934D02*
X236896896Y-173396838D01*
X236896896Y-173396838D02*
X236858801Y-173358743D01*
X236858801Y-173358743D02*
X236820705Y-173282553D01*
X236820705Y-173282553D02*
X236820705Y-172977791D01*
X236820705Y-172977791D02*
X237620705Y-172977791D01*
X237620705Y-172977791D02*
X237620705Y-173244457D01*
X237620705Y-173244457D02*
X237582610Y-173320648D01*
X237582610Y-173320648D02*
X237544515Y-173358743D01*
X237544515Y-173358743D02*
X237468324Y-173396838D01*
X237468324Y-173396838D02*
X237392134Y-173396838D01*
X237392134Y-173396838D02*
X237315943Y-173358743D01*
X237315943Y-173358743D02*
X237277848Y-173320648D01*
X237277848Y-173320648D02*
X237239753Y-173244457D01*
X237239753Y-173244457D02*
X237239753Y-172977791D01*
X236820705Y-174158743D02*
X236820705Y-173777791D01*
X236820705Y-173777791D02*
X237620705Y-173777791D01*
X237239753Y-174425410D02*
X237239753Y-174692076D01*
X236820705Y-174806362D02*
X236820705Y-174425410D01*
X236820705Y-174425410D02*
X237620705Y-174425410D01*
X237620705Y-174425410D02*
X237620705Y-174806362D01*
X235570801Y-165320646D02*
X235532705Y-165434932D01*
X235532705Y-165434932D02*
X235532705Y-165625408D01*
X235532705Y-165625408D02*
X235570801Y-165701599D01*
X235570801Y-165701599D02*
X235608896Y-165739694D01*
X235608896Y-165739694D02*
X235685086Y-165777789D01*
X235685086Y-165777789D02*
X235761277Y-165777789D01*
X235761277Y-165777789D02*
X235837467Y-165739694D01*
X235837467Y-165739694D02*
X235875562Y-165701599D01*
X235875562Y-165701599D02*
X235913658Y-165625408D01*
X235913658Y-165625408D02*
X235951753Y-165473027D01*
X235951753Y-165473027D02*
X235989848Y-165396837D01*
X235989848Y-165396837D02*
X236027943Y-165358742D01*
X236027943Y-165358742D02*
X236104134Y-165320646D01*
X236104134Y-165320646D02*
X236180324Y-165320646D01*
X236180324Y-165320646D02*
X236256515Y-165358742D01*
X236256515Y-165358742D02*
X236294610Y-165396837D01*
X236294610Y-165396837D02*
X236332705Y-165473027D01*
X236332705Y-165473027D02*
X236332705Y-165663504D01*
X236332705Y-165663504D02*
X236294610Y-165777789D01*
X235951753Y-166120647D02*
X235951753Y-166387313D01*
X235532705Y-166501599D02*
X235532705Y-166120647D01*
X235532705Y-166120647D02*
X236332705Y-166120647D01*
X236332705Y-166120647D02*
X236332705Y-166501599D01*
X235951753Y-166844457D02*
X235951753Y-167111123D01*
X235532705Y-167225409D02*
X235532705Y-166844457D01*
X235532705Y-166844457D02*
X236332705Y-166844457D01*
X236332705Y-166844457D02*
X236332705Y-167225409D01*
X235951753Y-167568267D02*
X235951753Y-167834933D01*
X235532705Y-167949219D02*
X235532705Y-167568267D01*
X235532705Y-167568267D02*
X236332705Y-167568267D01*
X236332705Y-167568267D02*
X236332705Y-167949219D01*
X235532705Y-168292077D02*
X236332705Y-168292077D01*
X236332705Y-168292077D02*
X236332705Y-168482553D01*
X236332705Y-168482553D02*
X236294610Y-168596839D01*
X236294610Y-168596839D02*
X236218420Y-168673029D01*
X236218420Y-168673029D02*
X236142229Y-168711124D01*
X236142229Y-168711124D02*
X235989848Y-168749220D01*
X235989848Y-168749220D02*
X235875562Y-168749220D01*
X235875562Y-168749220D02*
X235723181Y-168711124D01*
X235723181Y-168711124D02*
X235646991Y-168673029D01*
X235646991Y-168673029D02*
X235570801Y-168596839D01*
X235570801Y-168596839D02*
X235532705Y-168482553D01*
X235532705Y-168482553D02*
X235532705Y-168292077D01*
X236332705Y-169625410D02*
X235532705Y-170158744D01*
X236332705Y-170158744D02*
X235532705Y-169625410D01*
X235532705Y-170463506D02*
X236332705Y-170463506D01*
X235761277Y-170806362D02*
X235761277Y-171187315D01*
X235532705Y-170730172D02*
X236332705Y-170996839D01*
X236332705Y-170996839D02*
X235532705Y-171263505D01*
X236332705Y-171682553D02*
X236332705Y-171834934D01*
X236332705Y-171834934D02*
X236294610Y-171911124D01*
X236294610Y-171911124D02*
X236218420Y-171987315D01*
X236218420Y-171987315D02*
X236066039Y-172025410D01*
X236066039Y-172025410D02*
X235799372Y-172025410D01*
X235799372Y-172025410D02*
X235646991Y-171987315D01*
X235646991Y-171987315D02*
X235570801Y-171911124D01*
X235570801Y-171911124D02*
X235532705Y-171834934D01*
X235532705Y-171834934D02*
X235532705Y-171682553D01*
X235532705Y-171682553D02*
X235570801Y-171606362D01*
X235570801Y-171606362D02*
X235646991Y-171530172D01*
X235646991Y-171530172D02*
X235799372Y-171492076D01*
X235799372Y-171492076D02*
X236066039Y-171492076D01*
X236066039Y-171492076D02*
X236218420Y-171530172D01*
X236218420Y-171530172D02*
X236294610Y-171606362D01*
X236294610Y-171606362D02*
X236332705Y-171682553D01*
X235532705Y-173434934D02*
X235913658Y-173168267D01*
X235532705Y-172977791D02*
X236332705Y-172977791D01*
X236332705Y-172977791D02*
X236332705Y-173282553D01*
X236332705Y-173282553D02*
X236294610Y-173358743D01*
X236294610Y-173358743D02*
X236256515Y-173396838D01*
X236256515Y-173396838D02*
X236180324Y-173434934D01*
X236180324Y-173434934D02*
X236066039Y-173434934D01*
X236066039Y-173434934D02*
X235989848Y-173396838D01*
X235989848Y-173396838D02*
X235951753Y-173358743D01*
X235951753Y-173358743D02*
X235913658Y-173282553D01*
X235913658Y-173282553D02*
X235913658Y-172977791D01*
X235532705Y-173777791D02*
X236332705Y-173777791D01*
X236332705Y-173777791D02*
X236332705Y-174082553D01*
X236332705Y-174082553D02*
X236294610Y-174158743D01*
X236294610Y-174158743D02*
X236256515Y-174196838D01*
X236256515Y-174196838D02*
X236180324Y-174234934D01*
X236180324Y-174234934D02*
X236066039Y-174234934D01*
X236066039Y-174234934D02*
X235989848Y-174196838D01*
X235989848Y-174196838D02*
X235951753Y-174158743D01*
X235951753Y-174158743D02*
X235913658Y-174082553D01*
X235913658Y-174082553D02*
X235913658Y-173777791D01*
X236256515Y-174539695D02*
X236294610Y-174577791D01*
X236294610Y-174577791D02*
X236332705Y-174653981D01*
X236332705Y-174653981D02*
X236332705Y-174844457D01*
X236332705Y-174844457D02*
X236294610Y-174920648D01*
X236294610Y-174920648D02*
X236256515Y-174958743D01*
X236256515Y-174958743D02*
X236180324Y-174996838D01*
X236180324Y-174996838D02*
X236104134Y-174996838D01*
X236104134Y-174996838D02*
X235989848Y-174958743D01*
X235989848Y-174958743D02*
X235532705Y-174501600D01*
X235532705Y-174501600D02*
X235532705Y-174996838D01*
X236332705Y-175492077D02*
X236332705Y-175568267D01*
X236332705Y-175568267D02*
X236294610Y-175644458D01*
X236294610Y-175644458D02*
X236256515Y-175682553D01*
X236256515Y-175682553D02*
X236180324Y-175720648D01*
X236180324Y-175720648D02*
X236027943Y-175758743D01*
X236027943Y-175758743D02*
X235837467Y-175758743D01*
X235837467Y-175758743D02*
X235685086Y-175720648D01*
X235685086Y-175720648D02*
X235608896Y-175682553D01*
X235608896Y-175682553D02*
X235570801Y-175644458D01*
X235570801Y-175644458D02*
X235532705Y-175568267D01*
X235532705Y-175568267D02*
X235532705Y-175492077D01*
X235532705Y-175492077D02*
X235570801Y-175415886D01*
X235570801Y-175415886D02*
X235608896Y-175377791D01*
X235608896Y-175377791D02*
X235685086Y-175339696D01*
X235685086Y-175339696D02*
X235837467Y-175301600D01*
X235837467Y-175301600D02*
X236027943Y-175301600D01*
X236027943Y-175301600D02*
X236180324Y-175339696D01*
X236180324Y-175339696D02*
X236256515Y-175377791D01*
X236256515Y-175377791D02*
X236294610Y-175415886D01*
X236294610Y-175415886D02*
X236332705Y-175492077D01*
X236066039Y-176444458D02*
X235532705Y-176444458D01*
X236370801Y-176253982D02*
X235799372Y-176063505D01*
X235799372Y-176063505D02*
X235799372Y-176558744D01*
X236332705Y-177015887D02*
X236332705Y-177092077D01*
X236332705Y-177092077D02*
X236294610Y-177168268D01*
X236294610Y-177168268D02*
X236256515Y-177206363D01*
X236256515Y-177206363D02*
X236180324Y-177244458D01*
X236180324Y-177244458D02*
X236027943Y-177282553D01*
X236027943Y-177282553D02*
X235837467Y-177282553D01*
X235837467Y-177282553D02*
X235685086Y-177244458D01*
X235685086Y-177244458D02*
X235608896Y-177206363D01*
X235608896Y-177206363D02*
X235570801Y-177168268D01*
X235570801Y-177168268D02*
X235532705Y-177092077D01*
X235532705Y-177092077D02*
X235532705Y-177015887D01*
X235532705Y-177015887D02*
X235570801Y-176939696D01*
X235570801Y-176939696D02*
X235608896Y-176901601D01*
X235608896Y-176901601D02*
X235685086Y-176863506D01*
X235685086Y-176863506D02*
X235837467Y-176825410D01*
X235837467Y-176825410D02*
X236027943Y-176825410D01*
X236027943Y-176825410D02*
X236180324Y-176863506D01*
X236180324Y-176863506D02*
X236256515Y-176901601D01*
X236256515Y-176901601D02*
X236294610Y-176939696D01*
X236294610Y-176939696D02*
X236332705Y-177015887D01*
X234663753Y-165625408D02*
X234663753Y-165358742D01*
X234244705Y-165358742D02*
X235044705Y-165358742D01*
X235044705Y-165358742D02*
X235044705Y-165739694D01*
X234473277Y-166006360D02*
X234473277Y-166387313D01*
X234244705Y-165930170D02*
X235044705Y-166196837D01*
X235044705Y-166196837D02*
X234244705Y-166463503D01*
X234320896Y-167187313D02*
X234282801Y-167149217D01*
X234282801Y-167149217D02*
X234244705Y-167034932D01*
X234244705Y-167034932D02*
X234244705Y-166958741D01*
X234244705Y-166958741D02*
X234282801Y-166844455D01*
X234282801Y-166844455D02*
X234358991Y-166768265D01*
X234358991Y-166768265D02*
X234435181Y-166730170D01*
X234435181Y-166730170D02*
X234587562Y-166692074D01*
X234587562Y-166692074D02*
X234701848Y-166692074D01*
X234701848Y-166692074D02*
X234854229Y-166730170D01*
X234854229Y-166730170D02*
X234930420Y-166768265D01*
X234930420Y-166768265D02*
X235006610Y-166844455D01*
X235006610Y-166844455D02*
X235044705Y-166958741D01*
X235044705Y-166958741D02*
X235044705Y-167034932D01*
X235044705Y-167034932D02*
X235006610Y-167149217D01*
X235006610Y-167149217D02*
X234968515Y-167187313D01*
X234663753Y-167530170D02*
X234663753Y-167796836D01*
X234244705Y-167911122D02*
X234244705Y-167530170D01*
X234244705Y-167530170D02*
X235044705Y-167530170D01*
X235044705Y-167530170D02*
X235044705Y-167911122D01*
X235044705Y-168863504D02*
X234397086Y-168863504D01*
X234397086Y-168863504D02*
X234320896Y-168901599D01*
X234320896Y-168901599D02*
X234282801Y-168939694D01*
X234282801Y-168939694D02*
X234244705Y-169015885D01*
X234244705Y-169015885D02*
X234244705Y-169168266D01*
X234244705Y-169168266D02*
X234282801Y-169244456D01*
X234282801Y-169244456D02*
X234320896Y-169282551D01*
X234320896Y-169282551D02*
X234397086Y-169320647D01*
X234397086Y-169320647D02*
X235044705Y-169320647D01*
X234244705Y-169701599D02*
X235044705Y-169701599D01*
X235044705Y-169701599D02*
X235044705Y-170006361D01*
X235044705Y-170006361D02*
X235006610Y-170082551D01*
X235006610Y-170082551D02*
X234968515Y-170120646D01*
X234968515Y-170120646D02*
X234892324Y-170158742D01*
X234892324Y-170158742D02*
X234778039Y-170158742D01*
X234778039Y-170158742D02*
X234701848Y-170120646D01*
X234701848Y-170120646D02*
X234663753Y-170082551D01*
X234663753Y-170082551D02*
X234625658Y-170006361D01*
X234625658Y-170006361D02*
X234625658Y-169701599D01*
D11*
X268423252Y-137497014D02*
X268052378Y-137646857D01*
X268052378Y-137646857D02*
X268258412Y-138156808D01*
X268052378Y-137646857D02*
X267846345Y-137136906D01*
X268052378Y-137646857D02*
X267645911Y-138242494D01*
X267645911Y-138242494D02*
X267346225Y-137500747D01*
X267496068Y-137871621D02*
X267032476Y-138058924D01*
X267346225Y-137500747D02*
X268052378Y-137646857D01*
X184587469Y-127750085D02*
X184216595Y-127600242D01*
X184216595Y-127600242D02*
X184010562Y-128110193D01*
X184216595Y-127600242D02*
X184422629Y-127090291D01*
X184216595Y-127600242D02*
X183510442Y-127746352D01*
X183510442Y-127746352D02*
X183810128Y-127004605D01*
X183660285Y-127375478D02*
X183196693Y-127188175D01*
X183810128Y-127004605D02*
X184216595Y-127600242D01*
X282593302Y-127188175D02*
X282222428Y-127338018D01*
X282222428Y-127338018D02*
X282428462Y-127847969D01*
X282222428Y-127338018D02*
X282016395Y-126828067D01*
X282222428Y-127338018D02*
X281815961Y-127933655D01*
X281815961Y-127933655D02*
X281516275Y-127191908D01*
X281666118Y-127562782D02*
X281202526Y-127750085D01*
X281516275Y-127191908D02*
X282222428Y-127338018D01*
X154245294Y-157660847D02*
X153867087Y-157530620D01*
X153867087Y-157530620D02*
X153688024Y-158050655D01*
X153867087Y-157530620D02*
X154046149Y-157010585D01*
X153867087Y-157530620D02*
X153169548Y-157713486D01*
X153169548Y-157713486D02*
X153430003Y-156957072D01*
X153299775Y-157335279D02*
X152827016Y-157172495D01*
X153430003Y-156957072D02*
X153867087Y-157530620D01*
X198757521Y-138058928D02*
X198386647Y-137909085D01*
X198386647Y-137909085D02*
X198180614Y-138419036D01*
X198386647Y-137909085D02*
X198592681Y-137399134D01*
X198386647Y-137909085D02*
X197680494Y-138055195D01*
X197680494Y-138055195D02*
X197980180Y-137313448D01*
X197830337Y-137684321D02*
X197366745Y-137497018D01*
X197980180Y-137313448D02*
X198386647Y-137909085D01*
X312962986Y-157172494D02*
X312584779Y-157302721D01*
X312584779Y-157302721D02*
X312763841Y-157822756D01*
X312584779Y-157302721D02*
X312405716Y-156782686D01*
X312584779Y-157302721D02*
X312147695Y-157876269D01*
X312147695Y-157876269D02*
X311887240Y-157119855D01*
X312017467Y-157498062D02*
X311544708Y-157660846D01*
X311887240Y-157119855D02*
X312584779Y-157302721D01*
X204967178Y-168070426D02*
X204596304Y-167920583D01*
X204596304Y-167920583D02*
X204390271Y-168430534D01*
X204596304Y-167920583D02*
X204802338Y-167410632D01*
X204596304Y-167920583D02*
X203890151Y-168066693D01*
X203890151Y-168066693D02*
X204189837Y-167324946D01*
X204039994Y-167695819D02*
X203576402Y-167508516D01*
X204189837Y-167324946D02*
X204596304Y-167920583D01*
X193354372Y-196813126D02*
X192983498Y-196663283D01*
X192983498Y-196663283D02*
X192777465Y-197173234D01*
X192983498Y-196663283D02*
X193189532Y-196153332D01*
X192983498Y-196663283D02*
X192277345Y-196809393D01*
X192277345Y-196809393D02*
X192577031Y-196067646D01*
X192427188Y-196438519D02*
X191963596Y-196251216D01*
X192577031Y-196067646D02*
X192983498Y-196663283D01*
X186020893Y-169583181D02*
X185650019Y-169433338D01*
X185650019Y-169433338D02*
X185443986Y-169943289D01*
X185650019Y-169433338D02*
X185856053Y-168923387D01*
X185650019Y-169433338D02*
X184943866Y-169579448D01*
X184943866Y-169579448D02*
X185243552Y-168837701D01*
X185093709Y-169208574D02*
X184630117Y-169021271D01*
X185243552Y-168837701D02*
X185650019Y-169433338D01*
X258042993Y-203372230D02*
X257686590Y-203553826D01*
X257686590Y-203553826D02*
X257936285Y-204043880D01*
X257686590Y-203553826D02*
X257436896Y-203063773D01*
X257686590Y-203553826D02*
X257333583Y-204182623D01*
X257333583Y-204182623D02*
X256970390Y-203469818D01*
X257151986Y-203826221D02*
X256706483Y-204053216D01*
X256970390Y-203469818D02*
X257686590Y-203553826D01*
X135233377Y-157240052D02*
X134845259Y-157143284D01*
X134845259Y-157143284D02*
X134712201Y-157676946D01*
X134845259Y-157143284D02*
X134978316Y-156609621D01*
X134845259Y-157143284D02*
X134166312Y-157386249D01*
X134166312Y-157386249D02*
X134359850Y-156610012D01*
X134263081Y-156998131D02*
X133777933Y-156877170D01*
X134359850Y-156610012D02*
X134845259Y-157143284D01*
X332012070Y-156877171D02*
X331623952Y-156973939D01*
X331623952Y-156973939D02*
X331757009Y-157507602D01*
X331623952Y-156973939D02*
X331490894Y-156440277D01*
X331623952Y-156973939D02*
X331138543Y-157507211D01*
X331138543Y-157507211D02*
X330945005Y-156730974D01*
X331041774Y-157119092D02*
X330556626Y-157240053D01*
X330945005Y-156730974D02*
X331623952Y-156973939D01*
X255845290Y-151746394D02*
X255474416Y-151896237D01*
X255474416Y-151896237D02*
X255680450Y-152406188D01*
X255474416Y-151896237D02*
X255268383Y-151386286D01*
X255474416Y-151896237D02*
X255067949Y-152491874D01*
X255067949Y-152491874D02*
X254768263Y-151750127D01*
X254918106Y-152121001D02*
X254454514Y-152308304D01*
X254768263Y-151750127D02*
X255474416Y-151896237D01*
X295329927Y-158712422D02*
X294959053Y-158862265D01*
X294959053Y-158862265D02*
X295165087Y-159372216D01*
X294959053Y-158862265D02*
X294753020Y-158352314D01*
X294959053Y-158862265D02*
X294552586Y-159457902D01*
X294552586Y-159457902D02*
X294252900Y-158716155D01*
X294402743Y-159087029D02*
X293939151Y-159274332D01*
X294252900Y-158716155D02*
X294959053Y-158862265D01*
X165314608Y-125513211D02*
X164936401Y-125382984D01*
X164936401Y-125382984D02*
X164757338Y-125903019D01*
X164936401Y-125382984D02*
X165115463Y-124862949D01*
X164936401Y-125382984D02*
X164238862Y-125565850D01*
X164238862Y-125565850D02*
X164499317Y-124809436D01*
X164369089Y-125187643D02*
X163896330Y-125024859D01*
X164499317Y-124809436D02*
X164936401Y-125382984D01*
X327899400Y-140382143D02*
X327511282Y-140478911D01*
X327511282Y-140478911D02*
X327644339Y-141012574D01*
X327511282Y-140478911D02*
X327378224Y-139945249D01*
X327511282Y-140478911D02*
X327025873Y-141012183D01*
X327025873Y-141012183D02*
X326832335Y-140235946D01*
X326929104Y-140624064D02*
X326443956Y-140745025D01*
X326832335Y-140235946D02*
X327511282Y-140478911D01*
X192389208Y-153821051D02*
X192018334Y-153671208D01*
X192018334Y-153671208D02*
X191812301Y-154181159D01*
X192018334Y-153671208D02*
X192224368Y-153161257D01*
X192018334Y-153671208D02*
X191312181Y-153817318D01*
X191312181Y-153817318D02*
X191611867Y-153075571D01*
X191462024Y-153446444D02*
X190998432Y-153259141D01*
X191611867Y-153075571D02*
X192018334Y-153671208D01*
X274791569Y-153259144D02*
X274420695Y-153408987D01*
X274420695Y-153408987D02*
X274626729Y-153918938D01*
X274420695Y-153408987D02*
X274214662Y-152899036D01*
X274420695Y-153408987D02*
X274014228Y-154004624D01*
X274014228Y-154004624D02*
X273714542Y-153262877D01*
X273864385Y-153633751D02*
X273400793Y-153821054D01*
X273714542Y-153262877D02*
X274420695Y-153408987D01*
X178219159Y-143512208D02*
X177848285Y-143362365D01*
X177848285Y-143362365D02*
X177642252Y-143872316D01*
X177848285Y-143362365D02*
X178054319Y-142852414D01*
X177848285Y-143362365D02*
X177142132Y-143508475D01*
X177142132Y-143508475D02*
X177441818Y-142766728D01*
X177291975Y-143137601D02*
X176828383Y-142950298D01*
X177441818Y-142766728D02*
X177848285Y-143362365D01*
X139346048Y-140745022D02*
X138957930Y-140648254D01*
X138957930Y-140648254D02*
X138824872Y-141181916D01*
X138957930Y-140648254D02*
X139090987Y-140114591D01*
X138957930Y-140648254D02*
X138278983Y-140891219D01*
X138278983Y-140891219D02*
X138472521Y-140114982D01*
X138375752Y-140503101D02*
X137890604Y-140382140D01*
X138472521Y-140114982D02*
X138957930Y-140648254D01*
X301893669Y-125024865D02*
X301515462Y-125155092D01*
X301515462Y-125155092D02*
X301694524Y-125675127D01*
X301515462Y-125155092D02*
X301336399Y-124635057D01*
X301515462Y-125155092D02*
X301078378Y-125728640D01*
X301078378Y-125728640D02*
X300817923Y-124972226D01*
X300948150Y-125350433D02*
X300475391Y-125513217D01*
X300817923Y-124972226D02*
X301515462Y-125155092D01*
X281159880Y-169021266D02*
X280789006Y-169171109D01*
X280789006Y-169171109D02*
X280995040Y-169681060D01*
X280789006Y-169171109D02*
X280582973Y-168661158D01*
X280789006Y-169171109D02*
X280382539Y-169766746D01*
X280382539Y-169766746D02*
X280082853Y-169024999D01*
X280232696Y-169395873D02*
X279769104Y-169583176D01*
X280082853Y-169024999D02*
X280789006Y-169171109D01*
X171850842Y-159274333D02*
X171479968Y-159124490D01*
X171479968Y-159124490D02*
X171273935Y-159634441D01*
X171479968Y-159124490D02*
X171686002Y-158614539D01*
X171479968Y-159124490D02*
X170773815Y-159270600D01*
X170773815Y-159270600D02*
X171073501Y-158528853D01*
X170923658Y-158899726D02*
X170460066Y-158712423D01*
X171073501Y-158528853D02*
X171479968Y-159124490D01*
X262213598Y-167508519D02*
X261842724Y-167658362D01*
X261842724Y-167658362D02*
X262048758Y-168168313D01*
X261842724Y-167658362D02*
X261636691Y-167148411D01*
X261842724Y-167658362D02*
X261436257Y-168253999D01*
X261436257Y-168253999D02*
X261136571Y-167512252D01*
X261286414Y-167883126D02*
X260822822Y-168070429D01*
X261136571Y-167512252D02*
X261842724Y-167658362D01*
D12*
X224005001Y-159069582D02*
X241785001Y-159069582D01*
X224005001Y-160969582D02*
X224005001Y-159069582D01*
X224005001Y-162944582D02*
X224005001Y-163474582D01*
X224005001Y-165484582D02*
X224005001Y-166014582D01*
X224005001Y-168024582D02*
X224005001Y-168554582D01*
X224005001Y-170564582D02*
X224005001Y-171094582D01*
X224005001Y-173104582D02*
X224005001Y-173634582D01*
X224005001Y-175644582D02*
X224005001Y-176174582D01*
X224005001Y-180069582D02*
X224005001Y-178169582D01*
D10*
X239245001Y-163219582D02*
X239245001Y-165759582D01*
X239245001Y-163219582D02*
X241785001Y-163219582D01*
X239245001Y-165759582D02*
X241785001Y-165759582D01*
D12*
X241785001Y-159079582D02*
X241785001Y-160919582D01*
X241785001Y-162959582D02*
X241785001Y-163489582D01*
X241785001Y-165494582D02*
X241785001Y-166024582D01*
X241785001Y-168034582D02*
X241785001Y-168564582D01*
X241785001Y-170564582D02*
X241785001Y-171094582D01*
X241785001Y-173114582D02*
X241785001Y-173644582D01*
X241785001Y-175654582D02*
X241785001Y-176184582D01*
X241785001Y-178179582D02*
X241785001Y-180069582D01*
X241785001Y-180069582D02*
X224005001Y-180069582D01*
D11*
X159779951Y-141587030D02*
X159401744Y-141456803D01*
X159401744Y-141456803D02*
X159222681Y-141976838D01*
X159401744Y-141456803D02*
X159580806Y-140936768D01*
X159401744Y-141456803D02*
X158704205Y-141639669D01*
X158704205Y-141639669D02*
X158964660Y-140883255D01*
X158834432Y-141261462D02*
X158361673Y-141098678D01*
X158964660Y-140883255D02*
X159401744Y-141456803D01*
X273826404Y-196251217D02*
X273455530Y-196401060D01*
X273455530Y-196401060D02*
X273661564Y-196911011D01*
X273455530Y-196401060D02*
X273249497Y-195891109D01*
X273455530Y-196401060D02*
X273049063Y-196996697D01*
X273049063Y-196996697D02*
X272749377Y-196254950D01*
X272899220Y-196625824D02*
X272435628Y-196813127D01*
X272749377Y-196254950D02*
X273455530Y-196401060D01*
X209083516Y-204053213D02*
X208727113Y-203871617D01*
X208727113Y-203871617D02*
X208477419Y-204361670D01*
X208727113Y-203871617D02*
X208976808Y-203381563D01*
X208727113Y-203871617D02*
X208010913Y-203955625D01*
X208010913Y-203955625D02*
X208374106Y-203242820D01*
X208192509Y-203599222D02*
X207747006Y-203372227D01*
X208374106Y-203242820D02*
X208727113Y-203871617D01*
X288961615Y-142950298D02*
X288590741Y-143100141D01*
X288590741Y-143100141D02*
X288796775Y-143610092D01*
X288590741Y-143100141D02*
X288384708Y-142590190D01*
X288590741Y-143100141D02*
X288184274Y-143695778D01*
X288184274Y-143695778D02*
X287884588Y-142954031D01*
X288034431Y-143324905D02*
X287570839Y-143512208D01*
X287884588Y-142954031D02*
X288590741Y-143100141D01*
X307428324Y-141098677D02*
X307050117Y-141228904D01*
X307050117Y-141228904D02*
X307229179Y-141748939D01*
X307050117Y-141228904D02*
X306871054Y-140708869D01*
X307050117Y-141228904D02*
X306613033Y-141802452D01*
X306613033Y-141802452D02*
X306352578Y-141046038D01*
X306482805Y-141424245D02*
X306010046Y-141587029D01*
X306352578Y-141046038D02*
X307050117Y-141228904D01*
X211335489Y-152308302D02*
X210964615Y-152158459D01*
X210964615Y-152158459D02*
X210758582Y-152668410D01*
X210964615Y-152158459D02*
X211170649Y-151648508D01*
X210964615Y-152158459D02*
X210258462Y-152304569D01*
X210258462Y-152304569D02*
X210558148Y-151562822D01*
X210408305Y-151933695D02*
X209944713Y-151746392D01*
X210558148Y-151562822D02*
X210964615Y-152158459D01*
D13*
X224800001Y-161949582D03*
X224800001Y-164489582D03*
X224800001Y-167029582D03*
X224800001Y-169569582D03*
X224800001Y-172109582D03*
X224800001Y-174649582D03*
X224800001Y-177189582D03*
X240990001Y-177189582D03*
X240990001Y-174649582D03*
X240990001Y-172109582D03*
X240990001Y-169569582D03*
X240990001Y-167029582D03*
D14*
X240990001Y-164489582D03*
D13*
X240990001Y-161949582D03*
%LPC*%
D15*
X305523322Y-154763356D03*
D16*
X308786543Y-147346895D03*
D17*
X310723674Y-152972731D03*
D16*
X314230386Y-147799196D03*
D15*
X315924026Y-151182106D03*
X281406070Y-140933826D03*
D16*
X284276672Y-133356746D03*
D17*
X286505581Y-138873490D03*
D16*
X289736726Y-133523518D03*
D15*
X291605092Y-136813154D03*
D18*
X269257717Y-137159868D03*
X266198011Y-138396070D03*
D19*
X185421934Y-128087231D03*
X182362228Y-126851029D03*
D18*
X283427767Y-126851029D03*
X280368061Y-128087231D03*
D15*
X155400628Y-135108291D03*
D16*
X162538111Y-131273080D03*
D17*
X160600980Y-136898916D03*
D16*
X166549453Y-134981062D03*
D15*
X165801332Y-138689541D03*
X254658051Y-165492045D03*
D16*
X257528653Y-157914965D03*
D17*
X259757562Y-163431709D03*
D16*
X262988707Y-158081737D03*
D15*
X264857073Y-161371373D03*
D20*
X155096261Y-157953858D03*
X151976049Y-156879484D03*
D19*
X199591986Y-138396074D03*
X196532280Y-137159872D03*
D21*
X313813953Y-156879483D03*
X310693741Y-157953857D03*
D15*
X287774376Y-156695950D03*
D16*
X290644978Y-149118870D03*
D17*
X292873887Y-154635614D03*
D16*
X296105032Y-149285642D03*
D15*
X297973398Y-152575278D03*
X130306061Y-151167648D03*
D16*
X137082122Y-146724958D03*
D17*
X135642687Y-152498218D03*
D16*
X141401373Y-150069219D03*
D15*
X140979313Y-153828788D03*
X275037754Y-125171701D03*
D16*
X277908356Y-117594621D03*
D17*
X280137265Y-123111365D03*
D16*
X283368410Y-117761393D03*
D15*
X285236776Y-121051029D03*
X194723271Y-131359874D03*
D16*
X202051691Y-127903466D03*
D17*
X199822782Y-133420210D03*
D16*
X205863476Y-131816304D03*
D15*
X204922293Y-135480546D03*
D19*
X205801643Y-168407572D03*
X202741937Y-167171370D03*
D15*
X324810688Y-153828790D03*
D16*
X328707879Y-146724960D03*
D17*
X330147314Y-152498220D03*
D16*
X334091586Y-147650002D03*
D15*
X335483940Y-151167650D03*
D19*
X194188837Y-197150272D03*
X191129131Y-195914070D03*
D15*
X134418733Y-134672618D03*
D16*
X141194794Y-130229928D03*
D17*
X139755359Y-136003188D03*
D16*
X145514045Y-133574189D03*
D15*
X145091985Y-137333758D03*
X320698013Y-137333761D03*
D16*
X324595204Y-130229931D03*
D17*
X326034639Y-136003191D03*
D16*
X329978911Y-131154973D03*
D15*
X331371265Y-134672621D03*
D19*
X186855358Y-169920327D03*
X183795652Y-168684125D03*
D22*
X196990225Y-173799369D03*
D15*
X174184908Y-136813154D03*
D16*
X181513328Y-133356746D03*
D17*
X179284419Y-138873490D03*
D16*
X185325113Y-137269584D03*
D15*
X184383930Y-140933826D03*
D23*
X258844899Y-202963639D03*
X255904577Y-204461807D03*
D15*
X273604332Y-167004796D03*
D16*
X276474934Y-159427716D03*
D17*
X278703843Y-164944460D03*
D16*
X281934988Y-159594488D03*
D15*
X283803354Y-162884124D03*
D24*
X136106643Y-157457782D03*
X132904667Y-156659440D03*
D25*
X332885336Y-156659441D03*
X329683360Y-157457783D03*
D18*
X256679755Y-151409248D03*
X253620049Y-152645450D03*
D15*
X266270850Y-194234743D03*
D16*
X269141452Y-186657663D03*
D17*
X271370361Y-192174407D03*
D16*
X274601506Y-186824435D03*
D15*
X276469872Y-190114071D03*
X160935288Y-119034476D03*
D16*
X168072771Y-115199265D03*
D17*
X166135640Y-120825101D03*
D16*
X172084113Y-118907247D03*
D15*
X171335992Y-122615726D03*
D18*
X296164392Y-158375276D03*
X293104686Y-159611478D03*
D20*
X166165575Y-125806222D03*
X163045363Y-124731848D03*
D15*
X189320125Y-190114071D03*
D16*
X196648545Y-186657663D03*
D17*
X194419636Y-192174407D03*
D16*
X200460330Y-190570501D03*
D15*
X199519147Y-194234743D03*
D25*
X328772666Y-140164413D03*
X325570690Y-140962755D03*
D15*
X267236020Y-151242670D03*
D16*
X270106622Y-143665590D03*
D17*
X272335531Y-149182334D03*
D16*
X275566676Y-143832362D03*
D15*
X277435042Y-147121998D03*
D26*
X214496579Y-172513748D03*
D15*
X200932929Y-161371368D03*
D16*
X208261349Y-157914960D03*
D17*
X206032440Y-163431704D03*
D16*
X212073134Y-161827798D03*
D15*
X211131951Y-165492040D03*
D19*
X193223673Y-154158197D03*
X190163967Y-152921995D03*
D18*
X275626034Y-152921998D03*
X272566328Y-154158200D03*
D19*
X179053624Y-143849354D03*
X175993918Y-142613152D03*
D24*
X140219314Y-140962752D03*
X137017338Y-140164410D03*
D15*
X299988664Y-138689544D03*
D16*
X303251885Y-131273083D03*
D17*
X305189016Y-136898919D03*
D16*
X308695728Y-131725384D03*
D15*
X310389368Y-135108294D03*
X181986650Y-162884122D03*
D16*
X189315070Y-159427714D03*
D17*
X187086161Y-164944458D03*
D16*
X193126855Y-163340552D03*
D15*
X192185672Y-167004794D03*
D21*
X302744636Y-124731854D03*
X299624424Y-125806228D03*
D18*
X281994345Y-168684120D03*
X278934639Y-169920322D03*
D22*
X268799776Y-173799364D03*
D19*
X172685307Y-159611479D03*
X169625601Y-158375277D03*
D15*
X260867704Y-135480544D03*
D16*
X263738306Y-127903464D03*
D17*
X265967215Y-133420208D03*
D16*
X269198360Y-128070236D03*
D15*
X271066726Y-131359872D03*
D18*
X263048063Y-167171373D03*
X259988357Y-168407575D03*
D13*
X224800001Y-161949582D03*
X224800001Y-164489582D03*
X224800001Y-167029582D03*
X224800001Y-169569582D03*
X224800001Y-172109582D03*
X224800001Y-174649582D03*
X224800001Y-177189582D03*
X240990001Y-177189582D03*
X240990001Y-174649582D03*
X240990001Y-172109582D03*
X240990001Y-169569582D03*
X240990001Y-167029582D03*
D14*
X240990001Y-164489582D03*
D13*
X240990001Y-161949582D03*
D15*
X205648481Y-197028044D03*
D16*
X213250260Y-194223503D03*
D17*
X210549017Y-199524992D03*
D16*
X216706514Y-198453670D03*
D15*
X215449553Y-202021940D03*
D26*
X251293421Y-172513749D03*
D15*
X248289734Y-149729919D03*
D16*
X251160336Y-142152839D03*
D17*
X253389245Y-147669583D03*
D16*
X256620390Y-142319611D03*
D15*
X258488756Y-145609247D03*
X250340443Y-202021937D03*
D16*
X252539736Y-194223500D03*
D17*
X255240979Y-199524989D03*
D16*
X257993547Y-193913762D03*
D15*
X260141515Y-197028041D03*
X188354963Y-147121998D03*
D16*
X195683383Y-143665590D03*
D17*
X193454474Y-149182334D03*
D16*
X199495168Y-147578428D03*
D15*
X198553985Y-151242670D03*
X180553222Y-121051029D03*
D16*
X187881642Y-117594621D03*
D17*
X185652733Y-123111365D03*
D16*
X191693427Y-121507459D03*
D15*
X190752244Y-125171701D03*
D20*
X160630918Y-141880041D03*
X157510706Y-140805667D03*
D18*
X274660869Y-195914071D03*
X271601163Y-197150273D03*
D15*
X149865972Y-151182107D03*
D16*
X157003455Y-147346896D03*
D17*
X155066324Y-152972732D03*
D16*
X161014797Y-151054878D03*
D15*
X160266676Y-154763357D03*
D27*
X209885422Y-204461804D03*
X206945100Y-202963636D03*
D15*
X207301243Y-145609249D03*
D16*
X214629663Y-142152841D03*
D17*
X212400754Y-147669585D03*
D16*
X218441448Y-146065679D03*
D15*
X217500265Y-149729921D03*
D18*
X289796080Y-142613152D03*
X286736374Y-143849354D03*
D21*
X308279291Y-140805666D03*
X305159079Y-141880040D03*
D19*
X212169954Y-152645448D03*
X209110248Y-151409246D03*
D15*
X294454007Y-122615725D03*
D16*
X297717228Y-115199264D03*
D17*
X299654359Y-120825100D03*
D16*
X303161071Y-115651565D03*
D15*
X304854711Y-119034475D03*
X167816597Y-152575279D03*
D16*
X175145017Y-149118871D03*
D17*
X172916108Y-154635615D03*
D16*
X178956802Y-153031709D03*
D15*
X178015619Y-156695951D03*
%LPD*%
M02*
