G04 #@! TF.GenerationSoftware,KiCad,Pcbnew,7.0.5-0*
G04 #@! TF.CreationDate,2023-07-18T22:32:37-04:00*
G04 #@! TF.ProjectId,tern,7465726e-2e6b-4696-9361-645f70636258,v1.0.0*
G04 #@! TF.SameCoordinates,Original*
G04 #@! TF.FileFunction,Profile,NP*
%FSLAX46Y46*%
G04 Gerber Fmt 4.6, Leading zero omitted, Abs format (unit mm)*
G04 Created by KiCad (PCBNEW 7.0.5-0) date 2023-07-18 22:32:37*
%MOMM*%
%LPD*%
G01*
G04 APERTURE LIST*
G04 #@! TA.AperFunction,Profile*
%ADD10C,0.176400*%
G04 #@! TD*
G04 #@! TA.AperFunction,Profile*
%ADD11C,0.176388*%
G04 #@! TD*
G04 APERTURE END LIST*
D10*
X309760387Y-165171124D02*
X289520304Y-172140305D01*
X278040585Y-180009343D02*
X284221586Y-195307865D01*
D11*
X180669561Y-109861475D02*
X180788345Y-109845859D01*
X131770053Y-124683667D02*
X131865525Y-124572644D01*
X266881260Y-119013455D02*
X266848448Y-118910370D01*
X312983694Y-126179319D02*
X313066616Y-126290914D01*
X212524751Y-127673355D02*
X212592588Y-127805059D01*
X214984482Y-212727202D02*
X214844143Y-212776673D01*
X212041110Y-135368898D02*
X212126818Y-135488131D01*
X212592588Y-127805059D02*
X212654096Y-127940548D01*
X211737942Y-132554522D02*
X211685624Y-132693821D01*
X176205512Y-112856261D02*
X176320779Y-112869303D01*
X198793571Y-119219298D02*
X198760758Y-119322413D01*
X186332281Y-176233352D02*
X186195346Y-176165551D01*
X289395487Y-112883211D02*
X289508160Y-112870452D01*
X289373208Y-172195346D02*
X279698295Y-176104110D01*
X198039102Y-116550834D02*
X198125526Y-116611331D01*
X223413832Y-158626805D02*
X223595572Y-158655084D01*
X220968763Y-155810627D02*
X220982285Y-155991644D01*
X285548522Y-109982167D02*
X285661634Y-110026886D01*
X212997098Y-136263294D02*
X213126141Y-136335048D01*
X143015020Y-164773979D02*
X142929205Y-164822795D01*
X254215805Y-133996615D02*
X254227794Y-133850687D01*
X253864928Y-135117579D02*
X253932769Y-134985881D01*
X289845662Y-112798489D02*
X289957424Y-112763014D01*
X211581566Y-134286419D02*
X211614918Y-134429768D01*
X179067717Y-110838975D02*
X179140683Y-110743952D01*
X161845688Y-107996659D02*
X161993837Y-108027497D01*
X144409858Y-162622315D02*
X144339611Y-162708381D01*
X254230370Y-133558115D02*
X254220951Y-133412005D01*
X212635109Y-136012641D02*
X212751399Y-136101903D01*
X277920906Y-178121944D02*
X277887410Y-178262329D01*
X266213568Y-121621740D02*
X266296314Y-121557426D01*
X252942274Y-129813384D02*
X252911421Y-129669477D01*
X198704443Y-120253584D02*
X198723386Y-120354205D01*
X187928960Y-178984848D02*
X187930190Y-178838420D01*
X131596016Y-124918877D02*
X131680164Y-124799155D01*
X282563914Y-199213118D02*
X267709880Y-205214558D01*
X313883111Y-127014530D02*
X314001349Y-127082241D01*
X307276255Y-109972559D02*
X312596157Y-125422417D01*
X133504089Y-123641534D02*
X133648261Y-123616383D01*
X321800400Y-163507891D02*
X321800388Y-163507885D01*
X266919857Y-119116096D02*
X266919814Y-119116030D01*
X225434703Y-142898347D02*
X225453795Y-143043684D01*
X220982285Y-155991644D02*
X221006712Y-156171513D01*
X223644307Y-197584039D02*
X223519741Y-197749524D01*
X283324264Y-198766259D02*
X283207982Y-198855499D01*
X212872127Y-136185515D02*
X212997098Y-136263294D01*
X240497131Y-196558417D02*
X240396642Y-196535326D01*
X211153057Y-126390329D02*
X211285918Y-126455874D01*
X181448146Y-197325072D02*
X181407657Y-197183124D01*
X152505559Y-126500638D02*
X152597715Y-126398052D01*
X180551492Y-109882916D02*
X180669561Y-109861475D01*
X223304085Y-198108583D02*
X216590048Y-211285491D01*
X266919662Y-119115834D02*
X266881260Y-119013455D01*
X253790946Y-135245318D02*
X253864928Y-135117579D01*
X151868856Y-127014530D02*
X151983962Y-126941516D01*
X240293245Y-143628295D02*
X240283832Y-143482180D01*
X131180989Y-125857753D02*
X131220510Y-125714326D01*
X242156393Y-158655080D02*
X242338130Y-158626807D01*
X334432188Y-125435916D02*
X334485310Y-125573643D01*
X303610360Y-108066148D02*
X303758187Y-108027500D01*
X277823044Y-178984851D02*
X277831523Y-179131754D01*
X277827756Y-178692703D02*
X277821826Y-178838420D01*
X222720289Y-158407156D02*
X222887758Y-158477570D01*
X267040647Y-119530067D02*
X267018798Y-119426061D01*
X252360866Y-212877041D02*
X252216133Y-212899178D01*
X305490458Y-108139150D02*
X305624078Y-108192863D01*
X319110487Y-161954747D02*
X319002574Y-161988802D01*
X123914078Y-160026035D02*
X123823019Y-159909865D01*
X177832068Y-112499808D02*
X177925645Y-112437214D01*
X143539060Y-164324558D02*
X143473504Y-164399643D01*
X252755079Y-136263292D02*
X252880039Y-136185514D01*
X212864308Y-129524567D02*
X212840585Y-129669478D01*
X286816299Y-111039724D02*
X286874929Y-111145146D01*
X314632657Y-127337468D02*
X314765557Y-127371100D01*
X225102909Y-141922722D02*
X225170803Y-142054423D01*
X253625311Y-135488131D02*
X253711011Y-135368894D01*
X150439230Y-127444004D02*
X150577963Y-127435234D01*
X267589487Y-205266374D02*
X267559801Y-205280127D01*
X211531242Y-133412007D02*
X211521788Y-133558115D01*
X321800455Y-163508212D02*
X321800450Y-163508095D01*
X279160621Y-176387078D02*
X279038615Y-176472504D01*
X319219505Y-161926517D02*
X319110487Y-161954747D01*
X253932769Y-134985881D02*
X253994269Y-134850387D01*
X266920309Y-119116827D02*
X266920246Y-119116760D01*
X319550947Y-161876609D02*
X319439961Y-161887471D01*
X267389461Y-116815003D02*
X267464669Y-116743593D01*
X211887142Y-135117583D02*
X211961150Y-135245317D01*
X145324971Y-161995270D02*
X145220271Y-162035516D01*
X253159362Y-127805060D02*
X253227199Y-127673353D01*
X187744411Y-177847245D02*
X187691344Y-177713432D01*
X323881803Y-165066539D02*
X323779678Y-165068320D01*
X278060754Y-177713434D02*
X278007683Y-177847250D01*
X215751833Y-212297087D02*
X215633839Y-212383774D01*
X323779678Y-165068320D02*
X323678245Y-165065035D01*
X125219295Y-160942886D02*
X125081569Y-160889781D01*
X320320848Y-161960630D02*
X320213189Y-161931613D01*
X181853238Y-109967877D02*
X181967098Y-110010652D01*
X283785211Y-110010649D02*
X283899062Y-109967876D01*
X214120717Y-212916583D02*
X213974261Y-212922947D01*
X252859457Y-129086494D02*
X252864317Y-128940238D01*
X288838659Y-112866383D02*
X288948584Y-112880242D01*
X321800363Y-163507875D02*
X321800349Y-163507869D01*
X266782765Y-118598605D02*
X266771537Y-118494423D01*
X221066777Y-154906079D02*
X221024915Y-155085214D01*
X212450774Y-127545614D02*
X212524751Y-127673355D01*
X333075964Y-123938540D02*
X333205361Y-124012018D01*
X322653600Y-164721128D02*
X322572802Y-164664337D01*
X240694716Y-196614682D02*
X240596517Y-196584883D01*
X213681695Y-212914220D02*
X213536119Y-212899173D01*
X306359212Y-108643066D02*
X306468406Y-108738338D01*
X143951863Y-163507861D02*
X143951863Y-163508213D01*
X223730952Y-140639690D02*
X223863827Y-140705239D01*
X266375322Y-121489478D02*
X266450518Y-121418064D01*
X288108761Y-112631333D02*
X288207586Y-112679151D01*
X186941899Y-176659256D02*
X186830326Y-176563308D01*
X321595454Y-162986841D02*
X321539175Y-162890821D01*
X240402370Y-144205377D02*
X240364367Y-144062747D01*
X198102769Y-205239819D02*
X198072671Y-205227022D01*
X181503696Y-109874632D02*
X181621319Y-109899872D01*
X284440006Y-196457795D02*
X284435165Y-196604047D01*
X334372537Y-125301365D02*
X334432188Y-125435916D01*
X249673676Y-212004098D02*
X249574598Y-211896042D01*
X277831523Y-179131754D02*
X277847359Y-179278884D01*
X143257284Y-164603698D02*
X143179210Y-164664335D01*
X313342881Y-126598569D02*
X313443479Y-126691721D01*
X332247876Y-123641536D02*
X332390723Y-123673709D01*
X176342532Y-172180793D02*
X176305824Y-172166764D01*
X249232739Y-211416393D02*
X249161910Y-211285494D01*
X241888133Y-140705240D02*
X242021000Y-140639695D01*
X224960386Y-196647756D02*
X224770616Y-196723559D01*
X320427121Y-161995270D02*
X320320848Y-161960630D01*
X241674656Y-197148380D02*
X241594594Y-197085129D01*
X142273828Y-165043628D02*
X142174264Y-165056768D01*
X324294202Y-165006810D02*
X324190837Y-165029815D01*
X213247695Y-212847822D02*
X213105384Y-212811565D01*
X178556544Y-111784866D02*
X178618051Y-111685583D01*
X342464770Y-158705626D02*
X342432593Y-158848482D01*
X278120147Y-177582296D02*
X278060754Y-177713434D01*
X141664390Y-165047378D02*
X141561097Y-165029817D01*
X244663856Y-156525744D02*
X244709955Y-156349710D01*
X131517757Y-125042629D02*
X131596016Y-124918877D01*
X223779737Y-158672229D02*
X223965894Y-158677999D01*
X283741263Y-198356453D02*
X283644612Y-198466458D01*
X322278569Y-164399644D02*
X322213027Y-164324561D01*
X321800450Y-163508095D02*
X321800455Y-163508052D01*
X252887718Y-129524568D02*
X252871157Y-129378927D01*
X341741503Y-160137269D02*
X341640033Y-160243398D01*
X267626442Y-116611330D02*
X267712866Y-116550829D01*
X277860649Y-178404411D02*
X277840733Y-178547959D01*
X179299843Y-110565404D02*
X179385736Y-110482175D01*
X322736978Y-164773981D02*
X322653600Y-164721128D01*
X289483133Y-172153271D02*
X289446223Y-172166764D01*
X225334672Y-142468580D02*
X225375143Y-142610530D01*
X216359628Y-211665353D02*
X216271262Y-211783064D01*
X142469283Y-165003057D02*
X142372218Y-165025691D01*
X198855700Y-117584856D02*
X198888741Y-117681339D01*
X223965894Y-158677999D02*
X241786063Y-158677996D01*
X162141642Y-108066142D02*
X162288858Y-108112712D01*
X183188068Y-199213125D02*
X183051533Y-199154030D01*
X315592901Y-127441976D02*
X315733937Y-127430971D01*
X198870698Y-119013459D02*
X198832297Y-119115832D01*
X314765557Y-127371100D02*
X314900216Y-127398674D01*
X284256264Y-197465363D02*
X284201485Y-197603730D01*
X314246440Y-127201318D02*
X314372902Y-127252470D01*
X212126818Y-135488131D02*
X212218097Y-135602840D01*
X319884207Y-161878479D02*
X319773296Y-161872130D01*
X266792150Y-117979394D02*
X266811095Y-117878787D01*
X253381113Y-127422038D02*
X253466808Y-127302800D01*
X124947020Y-160830160D02*
X124815850Y-160764167D01*
X332808730Y-123811974D02*
X332943664Y-123871841D01*
X142073694Y-165065033D02*
X141972263Y-165068321D01*
X198888166Y-120835791D02*
X198934619Y-120926586D01*
X323187094Y-164975833D02*
X323093163Y-164944095D01*
X287826631Y-112460971D02*
X287918113Y-112522166D01*
X244785746Y-155628963D02*
X244777275Y-155447168D01*
X187891395Y-178404412D02*
X187864644Y-178262327D01*
X320927913Y-162250688D02*
X320833442Y-162189341D01*
X253197002Y-212596421D02*
X253062810Y-212660676D01*
X251924453Y-212922156D02*
X251778036Y-212922950D01*
X267047714Y-120253578D02*
X267061815Y-120151923D01*
X181394889Y-195730906D02*
X181432895Y-195588266D01*
X142841125Y-164867484D02*
X142750939Y-164907950D01*
X240581472Y-142054425D02*
X240649303Y-141922719D01*
X321800233Y-163507859D02*
X321800123Y-163507861D01*
X141972263Y-165068321D02*
X141870127Y-165066536D01*
X242232326Y-197749518D02*
X242171394Y-197665571D01*
X241634172Y-140854774D02*
X241759123Y-140776997D01*
X198678794Y-117217921D02*
X198729587Y-117306456D01*
X288012207Y-112578974D02*
X288108761Y-112631333D01*
X211539877Y-126605408D02*
X211660588Y-126689024D01*
X252216133Y-212899178D02*
X252070573Y-212914220D01*
X333330963Y-124091817D02*
X333451947Y-124177362D01*
X199624927Y-121682243D02*
X199714912Y-121738760D01*
X279419744Y-176233358D02*
X279287699Y-176307276D01*
X288411372Y-112760864D02*
X288515989Y-112794599D01*
X241285516Y-141122377D02*
X241397174Y-141027646D01*
X252070573Y-212914220D02*
X251924453Y-212922156D01*
X342509001Y-157830016D02*
X342519543Y-157976843D01*
X242864198Y-158477565D02*
X243031666Y-158407160D01*
X186053670Y-176104114D02*
X176379115Y-172195347D01*
X284437713Y-196311481D02*
X284440006Y-196457795D01*
X253228693Y-135917919D02*
X253335542Y-135817919D01*
X215121599Y-212671096D02*
X214984482Y-212727202D01*
X253117029Y-136012642D02*
X253228693Y-135917919D01*
X220974683Y-155447165D02*
X220966216Y-155628965D01*
X253301184Y-127545616D02*
X253381113Y-127422038D01*
X187811892Y-179719182D02*
X187850442Y-179572840D01*
X333886444Y-124572645D02*
X333981932Y-124683667D01*
X181146764Y-109833992D02*
X181266190Y-109841698D01*
X181679812Y-197871047D02*
X181611976Y-197739288D01*
X331372314Y-123597321D02*
X331519125Y-123586773D01*
X240596517Y-196584883D02*
X240497131Y-196558417D01*
X242692479Y-158537809D02*
X242864198Y-158477565D01*
X319662130Y-161871507D02*
X319550947Y-161876609D01*
X198192262Y-205280121D02*
X198162558Y-205266373D01*
X216271262Y-211783064D02*
X216177451Y-211896038D01*
X250908170Y-212776680D02*
X250767821Y-212727204D01*
X321539175Y-162890821D02*
X321478099Y-162797944D01*
X341063693Y-160691971D02*
X340936125Y-160764165D01*
X241786063Y-158677996D02*
X241972219Y-158672228D01*
X240377147Y-142610529D02*
X240417636Y-142468578D01*
X279287699Y-176307276D02*
X279160621Y-176387078D01*
X254196693Y-134141951D02*
X254215805Y-133996615D01*
X267993361Y-116393930D02*
X268093698Y-116350409D01*
X286085309Y-110258541D02*
X286182755Y-110328591D01*
X225170803Y-142054423D02*
X225232369Y-142189914D01*
X176320779Y-112869303D02*
X176435831Y-112876733D01*
X211285918Y-126455874D02*
X211414927Y-126527631D01*
X198072671Y-205227022D02*
X198042442Y-205214559D01*
X288729804Y-112847437D02*
X288838659Y-112866383D01*
X341928937Y-159909861D02*
X341837878Y-160026038D01*
X177535962Y-112660412D02*
X177637050Y-112611493D01*
X241178672Y-141222380D02*
X241285516Y-141122377D01*
X244632098Y-154728846D02*
X244567714Y-154554033D01*
X145016542Y-162132738D02*
X144918528Y-162189343D01*
X124111934Y-160243397D02*
X124010462Y-160137269D01*
X181530367Y-195307870D02*
X187711368Y-180009340D01*
X131379575Y-125301365D02*
X131445555Y-125170198D01*
X123262296Y-158561457D02*
X123244196Y-158416228D01*
X199808412Y-121791115D02*
X199905346Y-121839141D01*
X225408487Y-142753873D02*
X225434703Y-142898347D01*
X212523444Y-135917918D02*
X212635109Y-136012641D01*
X266450518Y-121418064D02*
X266521828Y-121343364D01*
X266920195Y-119116694D02*
X266920150Y-119116629D01*
X211614918Y-134429768D02*
X211655387Y-134571718D01*
X181432895Y-195588266D02*
X181478049Y-195447165D01*
X254091364Y-126689026D02*
X254212075Y-126605408D01*
X254014354Y-132554521D02*
X253077755Y-130236422D01*
X187566365Y-177454098D02*
X187494658Y-177329062D01*
X152846286Y-126063394D02*
X152919196Y-125943237D01*
X179767862Y-110193189D02*
X179872271Y-110132697D01*
X212892627Y-129086496D02*
X212890324Y-129232812D01*
X321800426Y-163507918D02*
X321800420Y-163507915D01*
X267005050Y-120453626D02*
X267028764Y-120354205D01*
X152095735Y-126863309D02*
X152203978Y-126780007D01*
X315312737Y-127444002D02*
X315452433Y-127446288D01*
X240417636Y-142468578D02*
X240465242Y-142328285D01*
X278704029Y-176760093D02*
X278603332Y-176865577D01*
X178727541Y-111476085D02*
X178775172Y-111366030D01*
X321734156Y-163291985D02*
X321693084Y-163187602D01*
X240519970Y-142189913D02*
X240581472Y-142054425D01*
X279698295Y-176104110D02*
X279556642Y-176165552D01*
X266906034Y-120742925D02*
X266943610Y-120648159D01*
X286611454Y-110743957D02*
X286684410Y-110838973D01*
X211519475Y-133704432D02*
X211524300Y-133850685D01*
X289446223Y-172166764D02*
X289409590Y-172180791D01*
X223863827Y-140705239D02*
X223992834Y-140776996D01*
X314900216Y-127398674D02*
X315036427Y-127420087D01*
X252864317Y-128940238D02*
X252876310Y-128794309D01*
X124688280Y-160691970D02*
X124564528Y-160613722D01*
X323577675Y-165056770D02*
X323478110Y-165043622D01*
X253077755Y-130236422D02*
X253025438Y-130097118D01*
X305075389Y-108016908D02*
X305215877Y-108051056D01*
X279556642Y-176165552D02*
X279419744Y-176233358D01*
X187333318Y-177089498D02*
X187243902Y-176975461D01*
X143810907Y-163900395D02*
X143764519Y-163991414D01*
X324190837Y-165029815D02*
X324087538Y-165047382D01*
X253558079Y-127188093D02*
X253654730Y-127078099D01*
X312832766Y-125943233D02*
X312905679Y-126063396D01*
X278603332Y-176865577D02*
X278508219Y-176975460D01*
X306858326Y-109172933D02*
X306942888Y-109294383D01*
X267018798Y-119426061D02*
X266991519Y-119322413D01*
X304497706Y-107949010D02*
X304644008Y-107955445D01*
X221962472Y-157910947D02*
X222101923Y-158028606D01*
X211702983Y-134712020D02*
X211757703Y-134850389D01*
X124815850Y-160764167D02*
X124688280Y-160691970D01*
X240465242Y-142328285D02*
X240519970Y-142189913D01*
X198831967Y-119116887D02*
X198793571Y-119219298D01*
X212689228Y-212660682D02*
X212554986Y-212596423D01*
X321800403Y-163507894D02*
X321800400Y-163507891D01*
X305882759Y-108319033D02*
X306007342Y-108391250D01*
X332531994Y-123712863D02*
X332671413Y-123758970D01*
X144105172Y-163085830D02*
X144058893Y-163187598D01*
X145117386Y-162081346D02*
X145016542Y-162132738D01*
X253097865Y-127940545D02*
X253159362Y-127805060D01*
X249480758Y-211783065D02*
X249392364Y-211665353D01*
X284357093Y-195730909D02*
X284387964Y-195874813D01*
X252980278Y-129956021D02*
X252942274Y-129813384D01*
X266521828Y-121343364D02*
X266589182Y-121265543D01*
X342489925Y-158561456D02*
X342464770Y-158705626D01*
X150159063Y-127441980D02*
X150299531Y-127446285D01*
X176890411Y-112851998D02*
X177001769Y-112832607D01*
X123517616Y-159401500D02*
X123457785Y-159266527D01*
X133361236Y-123673707D02*
X133504089Y-123641534D01*
X333785551Y-124466282D02*
X333886444Y-124572645D01*
X141561097Y-165029817D02*
X141457727Y-165006808D01*
X249392364Y-211665353D02*
X249309625Y-211543070D01*
X284428280Y-196165360D02*
X284437713Y-196311481D01*
X223779201Y-197428436D02*
X223644307Y-197584039D01*
X321800452Y-163508011D02*
X321800449Y-163507991D01*
X144918528Y-162189343D02*
X144824061Y-162250690D01*
X287209878Y-111823188D02*
X287274176Y-111916585D01*
X289508160Y-112870452D02*
X289620862Y-112852130D01*
X158657108Y-109551812D02*
X158730153Y-109420708D01*
X321018686Y-162316597D02*
X320927913Y-162250688D01*
X143473504Y-164399643D02*
X143404584Y-164471259D01*
X181340339Y-196019720D02*
X181364037Y-195874812D01*
X131266895Y-125573646D02*
X131319971Y-125435918D01*
X143404584Y-164471259D02*
X143332455Y-164539312D01*
X241165278Y-196811897D02*
X241074155Y-196766180D01*
X242447871Y-198108583D02*
X242398370Y-198015421D01*
X266975917Y-117397246D02*
X267022380Y-117306458D01*
X253534040Y-135602839D02*
X253625311Y-135488131D01*
X212856683Y-128648979D02*
X212875802Y-128794310D01*
X132675983Y-123938534D02*
X132808286Y-123871843D01*
X254111832Y-132834915D02*
X254066666Y-132693820D01*
X175975053Y-112813052D02*
X176090213Y-112837537D01*
X224466477Y-141122380D02*
X224573338Y-141222377D01*
X266848448Y-118910370D02*
X266821148Y-118806749D01*
X277940066Y-179719180D02*
X277986385Y-179864760D01*
X132943226Y-123811974D02*
X133080540Y-123758968D01*
X198623753Y-117131800D02*
X198678794Y-117217921D01*
X243031666Y-158407160D02*
X243194443Y-158326815D01*
X159869324Y-108319029D02*
X159997170Y-108252862D01*
X254137085Y-134429768D02*
X254170450Y-134286418D01*
X187765568Y-179864760D02*
X187811892Y-179719182D01*
X134232851Y-123586770D02*
X134379657Y-123597318D01*
X288515989Y-112794599D02*
X288622186Y-112823484D01*
X267500934Y-205308552D02*
X267471748Y-205323213D01*
X211660588Y-126689024D02*
X211776870Y-126778283D01*
X313154255Y-126398055D02*
X313246406Y-126500642D01*
X198973922Y-118081036D02*
X198983103Y-118183534D01*
X342167760Y-159533849D02*
X342094278Y-159663300D01*
X254227794Y-133850687D02*
X254232655Y-133704434D01*
X342466101Y-157537393D02*
X342491196Y-157683451D01*
X211685624Y-132693821D02*
X211640457Y-132834918D01*
X267649350Y-205239819D02*
X267619335Y-205252936D01*
X240980177Y-141437457D02*
X241076824Y-141327463D01*
X321800434Y-163507945D02*
X321800429Y-163507931D01*
X143764519Y-163991414D02*
X143713981Y-164079435D01*
X240723279Y-141794980D02*
X240803214Y-141671401D01*
X267068345Y-119738468D02*
X267057138Y-119634266D01*
X182209198Y-198571550D02*
X182107351Y-198466450D01*
X240791669Y-196647761D02*
X240694716Y-196614682D01*
X198162558Y-205266373D02*
X198132728Y-205252933D01*
X178775170Y-111365323D02*
X178823541Y-111253728D01*
X145757489Y-161890519D02*
X145647755Y-161908234D01*
X244769679Y-155991644D02*
X244783196Y-155810627D01*
X289520304Y-172140305D02*
X289483133Y-172153271D01*
X323093163Y-164944095D02*
X323001027Y-164907949D01*
X221088104Y-156525739D02*
X221144955Y-156699085D01*
X151750619Y-127082244D02*
X151868856Y-127014530D01*
X285200658Y-109882915D02*
X285317821Y-109910180D01*
X312905679Y-126063396D02*
X312983694Y-126179319D01*
X146201188Y-161876610D02*
X146089996Y-161871507D01*
X342491196Y-157683451D02*
X342509001Y-157830016D01*
X312703066Y-125690647D02*
X312765164Y-125818949D01*
X243650035Y-158028603D02*
X243789486Y-157910950D01*
X244777275Y-155447168D02*
X244757729Y-155265750D01*
X330934545Y-123672658D02*
X331079766Y-123640220D01*
X178999373Y-110937614D02*
X179067717Y-110838975D01*
X176090213Y-112837537D02*
X176205512Y-112856261D01*
X214701523Y-212819144D02*
X214557606Y-212854347D01*
X142564860Y-164975830D02*
X142469283Y-165003057D01*
X198690342Y-120151926D02*
X198704443Y-120253584D01*
X266811095Y-117878787D02*
X266834813Y-117779372D01*
X161401546Y-107949801D02*
X161549298Y-107957927D01*
X287042743Y-111521277D02*
X287093987Y-111625451D01*
X198564527Y-117048277D02*
X198623753Y-117131800D01*
X252995530Y-128219209D02*
X253043143Y-128078916D01*
X124010462Y-160137269D02*
X123914078Y-160026035D01*
X322038167Y-164079432D02*
X321987654Y-163991414D01*
X252880039Y-136185514D02*
X253000749Y-136101906D01*
X244685198Y-154906077D02*
X244632098Y-154728846D01*
X221144955Y-156699085D02*
X221212506Y-156869242D01*
X289620862Y-112852130D02*
X289733417Y-112828170D01*
X320531799Y-162035517D02*
X320427121Y-161995270D01*
X342519010Y-158270211D02*
X342508016Y-158416229D01*
X331519125Y-123586773D02*
X331665925Y-123583448D01*
X144824061Y-162250690D02*
X144733289Y-162316597D01*
X304202784Y-107957925D02*
X304350552Y-107949801D01*
X252926205Y-212717969D02*
X252787438Y-212768270D01*
X241828338Y-197283083D02*
X241752595Y-197214377D01*
X176268985Y-172153272D02*
X176232012Y-172140307D01*
X249777795Y-212107074D02*
X249673676Y-212004098D01*
X211961150Y-135245317D02*
X212041110Y-135368898D01*
X287490379Y-112173967D02*
X287569649Y-112251894D01*
X134526191Y-123615117D02*
X134672196Y-123640221D01*
X198683850Y-119738465D02*
X198677839Y-119842505D01*
X321105630Y-162386890D02*
X321018686Y-162316597D01*
X181550471Y-197603732D02*
X181495755Y-197465367D01*
X178775172Y-111366030D02*
X178775170Y-111365323D01*
X125081569Y-160889781D02*
X124947020Y-160830160D01*
X267543684Y-116675646D02*
X267626442Y-116611330D01*
X319773296Y-161872130D02*
X319662130Y-161871507D01*
X181495755Y-197465367D02*
X181448146Y-197325072D01*
X183051533Y-199154030D02*
X182918655Y-199088537D01*
X177637050Y-112611493D02*
X177735812Y-112557928D01*
X177327498Y-112744010D02*
X177432721Y-112704616D01*
X180788345Y-109845859D02*
X180907611Y-109836069D01*
X243789486Y-157910950D02*
X243921976Y-157784558D01*
X212193872Y-127188090D02*
X212285143Y-127302799D01*
X152203978Y-126780007D02*
X152308490Y-126691728D01*
X312646662Y-125558434D02*
X312703066Y-125690647D01*
X131319971Y-125435918D02*
X131379575Y-125301365D01*
X181374290Y-197039780D02*
X181348040Y-196895305D01*
X342347330Y-159129194D02*
X342294324Y-159266535D01*
X240888906Y-141552167D02*
X240980177Y-141437457D01*
X224077483Y-197148380D02*
X223923795Y-197283091D01*
X315733937Y-127430971D02*
X315875340Y-127413166D01*
X240089326Y-196486768D02*
X239985200Y-196477644D01*
X251050785Y-212819141D02*
X250908170Y-212776680D01*
X284411692Y-196019723D02*
X284428280Y-196165360D01*
X132420983Y-124091819D02*
X132546589Y-124012017D01*
X283918233Y-198122457D02*
X283832537Y-198241724D01*
X267802868Y-116494314D02*
X267896395Y-116441957D01*
X150986406Y-127371099D02*
X151119311Y-127337469D01*
X142658803Y-164944098D02*
X142564860Y-164975830D01*
X123285924Y-157537400D02*
X123318295Y-157392125D01*
X284139980Y-197739284D02*
X284072144Y-197871050D01*
X240298410Y-143043678D02*
X240317525Y-142898343D01*
X267187443Y-117048281D02*
X267250769Y-116967521D01*
X215385370Y-212539669D02*
X215255296Y-212608525D01*
X252626077Y-136335050D02*
X252755079Y-136263292D01*
X332390723Y-123673709D02*
X332531994Y-123712863D01*
X161993837Y-108027497D02*
X162141642Y-108066142D01*
X178104049Y-112298901D02*
X178188517Y-112223348D01*
X123229315Y-158123661D02*
X123232615Y-157976847D01*
X123457785Y-159266527D02*
X123404819Y-159129195D01*
X143601097Y-164246106D02*
X143539060Y-164324558D01*
X153048901Y-125690648D02*
X153105302Y-125558431D01*
X198986429Y-118390405D02*
X198980418Y-118494421D01*
X133793484Y-123598288D02*
X133939504Y-123587302D01*
X199538530Y-121621741D02*
X199624927Y-121682243D01*
X211536254Y-133996614D02*
X211555347Y-134141947D01*
X181407657Y-197183124D02*
X181374290Y-197039780D01*
X265846670Y-121839141D02*
X265943629Y-121791114D01*
X181323775Y-196165361D02*
X181340339Y-196019720D01*
X146641756Y-161954750D02*
X146532691Y-161926520D01*
X287569649Y-112251894D02*
X287652223Y-112325750D01*
X221212506Y-156869242D02*
X221290700Y-157035689D01*
X198775507Y-120551670D02*
X198808534Y-120648164D01*
X289283025Y-112890498D02*
X289395487Y-112883211D01*
X284963805Y-109845858D02*
X285082584Y-109861476D01*
X176305824Y-172166764D02*
X176268985Y-172153272D01*
X307021812Y-109420712D02*
X307094844Y-109551815D01*
X286981755Y-111377491D02*
X286986625Y-111389622D01*
X143098404Y-164721127D02*
X143015020Y-164773979D01*
X267073174Y-117217924D02*
X267128215Y-117131799D01*
X286276505Y-110403187D02*
X286366404Y-110482173D01*
X341837878Y-160026038D02*
X341741503Y-160137269D01*
X313066616Y-126290914D02*
X313154255Y-126398055D01*
X215865390Y-212204796D02*
X215751833Y-212297087D01*
X284404077Y-196895313D02*
X284377815Y-197039780D01*
X321800330Y-163507869D02*
X321800314Y-163507867D01*
X266976640Y-120551675D02*
X267005050Y-120453626D01*
X186713471Y-176472501D02*
X186591448Y-176387078D01*
X315875340Y-127413166D02*
X316016930Y-127388442D01*
X123404819Y-159129195D02*
X123358745Y-158989760D01*
X180318355Y-109943264D02*
X180434351Y-109910179D01*
X278007683Y-177847250D02*
X277961034Y-177983497D01*
X277887410Y-178262329D02*
X277860649Y-178404411D01*
X211571558Y-133121455D02*
X211547829Y-133266364D01*
X212825886Y-212717967D02*
X212689228Y-212660682D01*
X324087538Y-165047382D02*
X323984476Y-165059588D01*
X267619335Y-205252936D02*
X267589487Y-205266374D01*
X313246406Y-126500642D02*
X313342881Y-126598569D01*
X321800449Y-163507991D02*
X321800443Y-163507973D01*
X254048996Y-134712019D02*
X254096595Y-134571720D01*
X242107796Y-197584040D02*
X242041614Y-197504977D01*
X244783196Y-155810627D02*
X244785746Y-155628963D01*
X321800349Y-163507869D02*
X321800330Y-163507869D01*
X289733417Y-112828170D02*
X289845662Y-112798489D01*
X282700448Y-199154029D02*
X282563914Y-199213118D01*
X341187443Y-160613725D02*
X341063693Y-160691971D01*
X159744729Y-108391250D02*
X159869324Y-108319029D01*
X150299531Y-127446285D02*
X150439230Y-127444004D01*
X285433851Y-109943271D02*
X285548522Y-109982167D01*
X152768277Y-126179323D02*
X152846286Y-126063394D01*
X179666855Y-110258539D02*
X179767862Y-110193189D01*
X240295123Y-196515649D02*
X240192661Y-196499451D01*
X266834813Y-117779372D02*
X266863231Y-117681345D01*
X267896395Y-116441957D02*
X267993361Y-116393930D01*
X224675198Y-141327467D02*
X224771876Y-141437460D01*
X306245814Y-108553387D02*
X306359212Y-108643066D01*
X340804959Y-160830153D02*
X340670410Y-160889783D01*
X321769878Y-163398800D02*
X321734156Y-163291985D01*
X225442230Y-143773936D02*
X225418504Y-143918840D01*
X145978837Y-161872135D02*
X145867920Y-161878477D01*
X141870127Y-165066536D02*
X141767455Y-165059584D01*
X212840585Y-129669478D02*
X212809714Y-129813380D01*
X286874929Y-111145146D02*
X286928480Y-111253731D01*
X240499844Y-144485782D02*
X240447528Y-144346483D01*
X221704910Y-157649687D02*
X221829981Y-157784560D01*
X306468406Y-108738338D02*
X306573158Y-108839075D01*
X278418806Y-177089503D02*
X278335182Y-177207451D01*
X289059396Y-112888929D02*
X289170936Y-112892370D01*
X285879938Y-110132698D02*
X285984316Y-110193194D01*
X198711583Y-119530065D02*
X198695079Y-119634260D01*
X334071837Y-124799152D02*
X334156014Y-124918879D01*
X123260875Y-157683447D02*
X123285924Y-157537400D01*
X286534035Y-110652713D02*
X286611454Y-110743957D01*
X198747095Y-120453625D02*
X198775507Y-120551670D01*
X198760758Y-119322413D02*
X198733456Y-119426062D01*
X151983962Y-126941516D02*
X152095735Y-126863309D01*
X267071006Y-120049410D02*
X267075209Y-119946214D01*
X340936125Y-160764165D02*
X340804959Y-160830153D01*
X223594418Y-140580537D02*
X223730952Y-140639690D01*
X277961034Y-177983497D02*
X277920906Y-178121944D01*
X222557521Y-158326815D02*
X222720289Y-158407156D01*
X159506243Y-108553389D02*
X159623618Y-108469411D01*
X282833317Y-199088536D02*
X282700448Y-199154029D01*
X265746333Y-121882658D02*
X265846670Y-121839141D01*
X304789210Y-107968984D02*
X304933089Y-107989506D01*
X187791049Y-177983496D02*
X187744411Y-177847245D01*
X211547829Y-133266364D02*
X211531242Y-133412007D01*
X253062810Y-212660676D02*
X252926205Y-212717969D01*
X253043143Y-128078916D02*
X253097865Y-127940545D01*
X306128442Y-108469412D02*
X306245814Y-108553387D01*
X242338130Y-158626807D02*
X242516974Y-158587632D01*
X180090676Y-110026885D02*
X180203726Y-109982166D01*
X198983103Y-118183534D02*
X198987301Y-118286712D01*
X322347471Y-164471259D02*
X322278569Y-164399644D01*
X158475688Y-109972557D02*
X158529639Y-109827852D01*
X252356671Y-136459752D02*
X252493210Y-136400599D01*
X321267490Y-162539932D02*
X321188611Y-162461395D01*
X321800388Y-163507885D02*
X321800374Y-163507876D01*
X241972219Y-158672228D02*
X242156393Y-158655080D01*
X221119872Y-154728849D02*
X221066777Y-154906079D01*
X198132728Y-205252933D02*
X198102769Y-205239819D01*
X244047051Y-157649686D02*
X244164256Y-157506567D01*
X320213189Y-161931613D02*
X320104378Y-161908234D01*
X160397801Y-108091843D02*
X160536243Y-108051053D01*
X288948584Y-112880242D02*
X289059396Y-112888929D01*
X240649303Y-141922719D02*
X240723279Y-141794980D01*
X198903510Y-118910373D02*
X198870698Y-119013459D01*
X342432593Y-158848482D02*
X342393430Y-158989760D01*
X244567714Y-154554033D02*
X240499844Y-144485782D01*
X198125526Y-116611331D02*
X198208281Y-116675647D01*
X266766743Y-121015129D02*
X266817528Y-120926583D01*
X221587702Y-157506564D02*
X221704910Y-157649687D01*
X254212075Y-126605408D02*
X254337035Y-126527634D01*
X222101923Y-158028606D02*
X222247884Y-158137294D01*
X277840733Y-178547959D02*
X277827756Y-178692703D01*
X211524300Y-133850685D02*
X211536254Y-133996614D01*
X253863425Y-126873009D02*
X253975084Y-126778285D01*
X319002574Y-161988802D02*
X309760387Y-165171124D01*
X286366404Y-110482173D02*
X286452301Y-110565401D01*
X287652223Y-112325750D02*
X287737942Y-112395473D01*
X284423187Y-196749975D02*
X284404077Y-196895313D01*
X284725009Y-109832115D02*
X284844534Y-109836071D01*
X144563364Y-162461398D02*
X144484487Y-162539934D01*
X286976784Y-111365320D02*
X286981755Y-111377491D01*
X266652502Y-121184788D02*
X266711717Y-121101253D01*
X321412366Y-162708380D02*
X321342118Y-162622318D01*
X177001769Y-112832607D02*
X177111846Y-112808093D01*
X143923620Y-163610282D02*
X143890621Y-163709739D01*
X242345892Y-197924493D02*
X242290515Y-197835845D01*
X284221586Y-195307865D02*
X284273906Y-195447166D01*
X145431272Y-161960633D02*
X145324971Y-161995270D01*
X199301608Y-121418063D02*
X199376794Y-121489475D01*
X132072565Y-124364804D02*
X132183811Y-124268427D01*
X254096595Y-134571720D02*
X254137085Y-134429768D01*
X320735424Y-162132741D02*
X320634635Y-162081344D01*
X322494744Y-164603699D02*
X322419581Y-164539309D01*
X176232012Y-172140307D02*
X146749727Y-161988804D01*
X187930190Y-178838420D02*
X187924271Y-178692706D01*
X249574598Y-211896042D02*
X249480758Y-211783065D01*
X267464669Y-116743593D02*
X267543684Y-116675646D01*
X212097219Y-127078100D02*
X212193872Y-127188090D01*
X321861638Y-163709739D02*
X321828657Y-163610288D01*
X211995375Y-126973008D02*
X212097219Y-127078100D01*
X287737942Y-112395473D02*
X287826631Y-112460971D01*
X287414597Y-112092056D02*
X287490379Y-112173967D01*
X179140683Y-110743952D02*
X179218105Y-110652715D01*
X151119311Y-127337469D02*
X151250264Y-127297890D01*
X178016362Y-112370210D02*
X178104049Y-112298901D01*
X214844143Y-212776673D02*
X214701523Y-212819144D01*
X198888741Y-117681339D02*
X198917149Y-117779376D01*
X199905346Y-121839141D02*
X200005657Y-121882661D01*
X143179210Y-164664335D02*
X143098404Y-164721127D01*
X181314354Y-196311474D02*
X181323775Y-196165361D01*
X321646804Y-163085832D02*
X321595454Y-162986841D01*
X212964695Y-212768270D02*
X212825886Y-212717967D01*
X158730153Y-109420708D02*
X158809085Y-109294378D01*
X284844534Y-109836071D02*
X284963805Y-109845858D01*
X321478099Y-162797944D02*
X321412366Y-162708380D01*
X252787438Y-212768270D02*
X252646782Y-212811563D01*
X211888526Y-126873010D02*
X211995375Y-126973008D01*
X240887267Y-196684063D02*
X240791669Y-196647761D01*
X158529639Y-109827852D02*
X158590191Y-109687564D01*
X241752595Y-197214377D02*
X241674656Y-197148380D01*
X266768855Y-118183537D02*
X266778046Y-118081037D01*
X332103705Y-123616384D02*
X332247876Y-123641536D01*
X252876310Y-128794309D02*
X252895428Y-128648978D01*
X199040429Y-121101254D02*
X199099640Y-121184784D01*
X176379115Y-172195347D02*
X176342532Y-172180793D01*
X266991519Y-119322413D02*
X266958733Y-119219298D01*
X315452433Y-127446288D02*
X315592901Y-127441976D01*
X334156014Y-124918879D02*
X334234296Y-125042629D01*
X152986801Y-125818949D02*
X153048901Y-125690648D01*
X181312079Y-196457794D02*
X181314354Y-196311474D01*
X181737910Y-109930947D02*
X181853238Y-109967877D01*
X242157541Y-140580537D02*
X252356671Y-136459752D01*
X176664605Y-112875096D02*
X176777967Y-112866189D01*
X239985200Y-196477644D02*
X239880354Y-196472140D01*
X249886753Y-212204795D02*
X249777795Y-212107074D01*
X322910843Y-164867487D02*
X322822777Y-164822804D01*
X266920107Y-119116560D02*
X266920070Y-119116496D01*
X131966411Y-124466284D02*
X132072565Y-124364804D01*
X153155811Y-125422421D02*
X158475688Y-109972557D01*
X215255296Y-212608525D02*
X215121599Y-212671096D01*
X250767821Y-212727204D02*
X250630694Y-212671094D01*
X143332455Y-164539312D02*
X143257284Y-164603698D01*
X254220951Y-133412005D02*
X254204392Y-133266364D01*
X240447528Y-144346483D02*
X240402370Y-144205377D01*
X197658261Y-116350412D02*
X197758596Y-116393930D01*
X146422763Y-161904099D02*
X146312184Y-161887469D01*
X224948907Y-141671403D02*
X225028881Y-141794979D01*
X223992834Y-140776996D02*
X224117795Y-140854772D01*
X142929205Y-164822795D02*
X142841125Y-164867484D01*
X313547988Y-126780007D02*
X313656235Y-126863312D01*
X278335182Y-177207451D02*
X278257461Y-177329065D01*
X177925645Y-112437214D02*
X178016362Y-112370210D01*
X160128021Y-108192862D02*
X160261649Y-108139154D01*
X187631960Y-177582297D02*
X187566365Y-177454098D01*
X283899062Y-109967876D02*
X284014379Y-109930951D01*
X333451947Y-124177362D02*
X333568140Y-124268428D01*
X250000342Y-212297085D02*
X249886753Y-212204795D01*
X215974313Y-212107073D02*
X215865390Y-212204796D01*
X145220271Y-162035516D02*
X145117386Y-162081346D01*
X266778046Y-118081037D02*
X266792150Y-117979394D01*
X285082584Y-109861476D02*
X285200658Y-109882915D01*
X216519223Y-211416395D02*
X216442354Y-211543070D01*
X211521788Y-133558115D02*
X211519475Y-133704432D01*
X321800443Y-163507973D02*
X321800438Y-163507961D01*
X289170936Y-112892370D02*
X289283025Y-112890498D01*
X321800455Y-163508052D02*
X321800452Y-163508011D01*
X241972925Y-197428431D02*
X241901804Y-197354454D01*
X213395653Y-136459748D02*
X223594418Y-140580537D01*
X198042442Y-205214559D02*
X183188068Y-199213125D01*
X243921976Y-157784558D02*
X244047051Y-157649686D01*
X186195346Y-176165551D02*
X186053670Y-176104114D01*
X225387626Y-144062747D02*
X225349604Y-144205382D01*
X145538938Y-161931613D02*
X145431272Y-161960633D01*
X212708868Y-128078913D02*
X212756519Y-128219207D01*
X223519741Y-197749524D02*
X223406130Y-197924493D01*
X277821826Y-178838420D02*
X277823044Y-178984851D01*
X212875802Y-128794310D02*
X212887784Y-128940240D01*
X266863982Y-120835795D02*
X266906034Y-120742925D01*
X179979925Y-110077212D02*
X180090676Y-110026885D01*
X161108106Y-107955444D02*
X161254403Y-107949015D01*
X221024915Y-155085214D02*
X220994235Y-155265747D01*
X123318295Y-157392125D02*
X131180989Y-125857753D01*
X178618051Y-111685583D02*
X178675105Y-111582632D01*
X182789651Y-199016826D02*
X182664694Y-198939085D01*
X244372467Y-157197928D02*
X244461254Y-157035691D01*
X314122519Y-127144538D02*
X314246440Y-127201318D01*
X124218297Y-160344268D02*
X124111934Y-160243397D01*
X186830326Y-176563308D02*
X186713471Y-176472501D01*
X199162958Y-121265541D02*
X199230306Y-121343364D01*
X123287446Y-158705627D02*
X123262296Y-158561457D01*
X242398370Y-198015421D02*
X242345892Y-197924493D01*
X161697430Y-107973505D02*
X161845688Y-107996659D01*
X284377815Y-197039780D02*
X284344436Y-197183122D01*
X283644612Y-198466458D02*
X283542771Y-198571553D01*
X321693084Y-163187602D02*
X321646804Y-163085832D01*
X212751399Y-136101903D02*
X212872127Y-136185515D01*
X266943610Y-120648159D02*
X266976640Y-120551675D01*
X282962319Y-199016827D02*
X282833317Y-199088536D01*
X304644008Y-107955445D02*
X304789210Y-107968984D01*
X144017824Y-163291981D02*
X143982105Y-163398793D01*
X253025438Y-130097118D02*
X252980278Y-129956021D01*
X146089996Y-161871507D02*
X145978837Y-161872135D01*
X313656235Y-126863312D02*
X313768006Y-126941520D01*
X149735034Y-127388442D02*
X149876618Y-127413165D01*
X267709880Y-205214558D02*
X267679529Y-205227024D01*
X303758187Y-108027500D02*
X303906367Y-107996653D01*
X181833729Y-198122454D02*
X181753799Y-197998832D01*
X341533672Y-160344262D02*
X341422649Y-160439713D01*
X277870659Y-179425995D02*
X277901528Y-179572843D01*
X289409590Y-172180791D02*
X289373208Y-172195346D01*
X133080540Y-123758968D02*
X133219963Y-123712867D01*
X266799278Y-118702772D02*
X266782765Y-118598605D01*
X289957424Y-112763014D02*
X303463112Y-108112711D01*
X321800314Y-163507867D02*
X321800277Y-163507865D01*
X123358745Y-158989760D02*
X123319607Y-158848479D01*
X198776054Y-117397245D02*
X198818115Y-117490103D01*
X213536119Y-212899173D02*
X213391361Y-212877041D01*
X254466039Y-126455875D02*
X254598902Y-126390329D01*
X277986385Y-179864760D02*
X278040585Y-180009343D01*
X225766778Y-196477644D02*
X225559332Y-196499450D01*
X222399899Y-158236781D02*
X222557521Y-158326815D01*
X181611976Y-197739288D02*
X181550471Y-197603732D01*
X160676732Y-108016905D02*
X160819031Y-107989511D01*
X198681159Y-120049412D02*
X198690342Y-120151926D01*
X242290515Y-197835845D02*
X242232326Y-197749518D01*
X286452301Y-110565401D02*
X286534035Y-110652713D01*
X284248556Y-109874634D02*
X284366988Y-109855244D01*
X225468262Y-143482179D02*
X225458817Y-143628294D01*
X342094278Y-159663300D02*
X342014480Y-159788895D01*
X213126141Y-136335048D02*
X213259055Y-136400598D01*
X287274176Y-111916585D02*
X287342471Y-112006236D01*
X278508219Y-176975460D02*
X278418806Y-177089503D01*
X199099640Y-121184784D02*
X199162958Y-121265541D01*
X224354806Y-141027650D02*
X224466477Y-141122380D01*
X225977091Y-196470294D02*
X225766778Y-196477644D01*
X197855566Y-116441960D02*
X197949096Y-116494314D01*
X321188611Y-162461395D02*
X321105630Y-162386890D01*
X142174264Y-165056768D02*
X142073694Y-165065033D01*
X253756575Y-126973009D02*
X253863425Y-126873009D01*
X241074155Y-196766180D02*
X240981459Y-196723551D01*
X150577963Y-127435234D02*
X150715539Y-127420089D01*
X287918113Y-112522166D02*
X288012207Y-112578974D01*
X267318139Y-116889703D02*
X267389461Y-116815003D01*
X212416596Y-135817920D02*
X212523444Y-135917918D01*
X307094844Y-109551815D02*
X307161758Y-109687566D01*
X222887758Y-158477570D02*
X223059473Y-158537807D01*
X267712866Y-116550829D02*
X267802868Y-116494314D01*
X279038615Y-176472504D02*
X278921774Y-176563310D01*
X241759123Y-140776997D02*
X241888133Y-140705240D01*
X187850442Y-179572840D02*
X187881316Y-179425994D01*
X304350552Y-107949801D02*
X304497706Y-107949010D01*
X159392822Y-108643072D02*
X159506243Y-108553389D01*
X224409610Y-196912405D02*
X224239632Y-197024690D01*
X319329405Y-161904099D02*
X319219505Y-161926517D01*
X198952680Y-118702769D02*
X198930813Y-118806753D01*
X176435831Y-112876733D02*
X176550496Y-112878634D01*
X123823019Y-159909865D02*
X123737479Y-159788894D01*
X242171394Y-197665571D02*
X242107796Y-197584040D01*
X267559801Y-205280127D02*
X267530288Y-205294178D01*
X151379066Y-127252473D02*
X151505529Y-127201318D01*
X180434351Y-109910179D02*
X180551492Y-109882916D01*
X123319607Y-158848479D02*
X123287446Y-158705627D01*
X266920338Y-119116857D02*
X266920309Y-119116827D01*
X159283617Y-108738340D02*
X159392822Y-108643072D01*
X187494658Y-177329062D02*
X187416940Y-177207453D01*
X152409088Y-126598568D02*
X152505559Y-126500638D01*
X220994235Y-155265747D02*
X220974683Y-155447165D01*
X314001349Y-127082241D02*
X314122519Y-127144538D01*
X178347130Y-112059860D02*
X178420910Y-111972083D01*
X160261649Y-108139154D02*
X160397801Y-108091843D01*
X267074347Y-119842509D02*
X267068345Y-119738468D01*
X321800438Y-163507961D02*
X321800434Y-163507945D01*
X253227199Y-127673353D02*
X253301184Y-127545616D01*
X253466808Y-127302800D02*
X253558079Y-127188093D01*
X320833442Y-162189341D02*
X320735424Y-162132741D01*
X187864644Y-178262327D02*
X187831165Y-178121943D01*
X331225780Y-123615121D02*
X331372314Y-123597321D01*
X181348040Y-196895305D02*
X181328923Y-196749975D01*
X266919717Y-119115896D02*
X266919662Y-119115834D01*
X198846113Y-120742924D02*
X198888166Y-120835791D01*
X180203726Y-109982166D02*
X180318355Y-109943264D01*
X134817405Y-123672657D02*
X149593472Y-127356700D01*
X284201485Y-197603730D02*
X284139980Y-197739284D01*
X178823541Y-111253728D02*
X178877131Y-111145149D01*
X266765534Y-118390397D02*
X266764662Y-118286713D01*
X144484487Y-162539934D02*
X144409858Y-162622315D01*
X134379657Y-123597318D02*
X134526191Y-123615117D01*
X198987301Y-118286712D02*
X198986429Y-118390405D01*
X254337035Y-126527634D02*
X254466039Y-126455875D01*
X161254403Y-107949015D02*
X161401546Y-107949801D01*
X253994269Y-134850387D02*
X254048996Y-134712019D01*
X132300007Y-124177361D02*
X132420983Y-124091819D01*
X243352058Y-158236777D02*
X243504073Y-158137298D01*
X198934619Y-120926586D02*
X198985398Y-121015131D01*
X198208281Y-116675647D02*
X198287307Y-116743593D01*
X277847359Y-179278884D02*
X277870659Y-179425995D01*
X285661634Y-110026886D02*
X285772324Y-110077211D01*
X253335542Y-135817919D02*
X253437389Y-135712831D01*
X266127157Y-121682245D02*
X266213568Y-121621740D01*
X181316939Y-196604050D02*
X181312079Y-196457794D01*
X286996175Y-111413657D02*
X287042743Y-111521277D01*
X319994646Y-161890522D02*
X319884207Y-161878479D01*
X150851748Y-127398671D02*
X150986406Y-127371099D01*
X159078786Y-108945166D02*
X159178858Y-108839076D01*
X321800123Y-163507861D02*
X321769878Y-163398800D01*
X321987654Y-163991414D02*
X321941295Y-163900400D01*
X182664694Y-198939085D02*
X182543985Y-198855500D01*
X162288858Y-108112712D02*
X175745882Y-112746447D01*
X254598902Y-126390329D02*
X254735434Y-126331179D01*
X181385242Y-109855246D02*
X181503696Y-109874632D01*
X321828657Y-163610288D02*
X321800455Y-163508212D01*
X198221830Y-205294181D02*
X198192262Y-205280121D01*
X321800412Y-163507903D02*
X321800403Y-163507894D01*
X212674206Y-130236420D02*
X211737942Y-132554522D01*
X240281559Y-143335865D02*
X240286413Y-143189600D01*
X254232655Y-133704434D02*
X254230370Y-133558115D01*
X250240610Y-212464691D02*
X250118365Y-212383775D01*
X334485310Y-125573643D02*
X334531743Y-125714325D01*
X266821148Y-118806749D02*
X266799278Y-118702772D01*
X250496978Y-212608527D02*
X250366886Y-212539670D01*
X179872271Y-110132697D02*
X179979925Y-110077212D01*
X213105384Y-212811565D02*
X212964695Y-212768270D01*
X266958733Y-119219298D02*
X266920376Y-119116893D01*
X251778036Y-212922950D02*
X251631585Y-212916586D01*
X266296314Y-121557426D02*
X266375322Y-121489478D01*
X284319070Y-195588269D02*
X284357093Y-195730909D01*
X198280566Y-205323211D02*
X198251269Y-205308546D01*
X158590191Y-109687564D02*
X158657108Y-109551812D01*
X141457727Y-165006808D02*
X125503408Y-161028900D01*
X278921774Y-176563310D02*
X278810214Y-176659254D01*
X198969194Y-118598602D02*
X198952680Y-118702769D01*
X306942888Y-109294383D02*
X307021812Y-109420712D01*
X323984476Y-165059588D02*
X323881803Y-165066539D01*
X321800374Y-163507876D02*
X321800363Y-163507875D01*
X252955040Y-128361159D02*
X252995530Y-128219209D01*
X198985398Y-121015131D02*
X199040429Y-121101254D01*
X150018026Y-127430975D02*
X150159063Y-127441980D01*
X124329320Y-160439715D02*
X124218297Y-160344268D01*
X342508016Y-158416229D02*
X342489925Y-158561456D01*
X266711717Y-121101253D02*
X266766743Y-121015129D01*
X268093698Y-116350409D02*
X283785211Y-110010649D01*
X198723386Y-120354205D02*
X198747095Y-120453625D01*
X244709955Y-156349710D02*
X244745245Y-156171508D01*
X187831165Y-178121943D02*
X187791049Y-177983496D01*
X331812467Y-123587299D02*
X331958482Y-123598289D01*
X212314752Y-135712836D02*
X212416596Y-135817920D01*
X211602434Y-132977550D02*
X211571558Y-133121455D01*
X211757703Y-134850389D02*
X211819261Y-134985882D01*
X242021000Y-140639695D02*
X242157541Y-140580537D01*
X178490771Y-111880391D02*
X178556544Y-111784866D01*
X212554986Y-212596423D02*
X198280566Y-205323211D01*
X267530288Y-205294178D02*
X267500934Y-205308552D01*
X143713981Y-164079435D02*
X143659456Y-164164360D01*
X123232615Y-157976847D02*
X123243121Y-157830018D01*
X144646345Y-162386889D02*
X144563364Y-162461398D01*
X186591448Y-176387078D02*
X186464349Y-176307282D01*
X198930813Y-118806753D02*
X198903510Y-118910373D01*
X151505529Y-127201318D02*
X151629443Y-127144539D01*
X341422649Y-160439713D02*
X341307164Y-160529581D01*
X213974261Y-212922947D02*
X213827829Y-212922152D01*
X342522869Y-158123658D02*
X342519010Y-158270211D01*
X266920376Y-119116893D02*
X266920338Y-119116857D01*
X243194443Y-158326815D02*
X243352058Y-158236777D01*
X342433669Y-157392122D02*
X342466101Y-157537393D01*
X331665925Y-123583448D02*
X331812467Y-123587299D01*
X178675105Y-111582632D02*
X178727541Y-111476085D01*
X284435165Y-196604047D02*
X284423187Y-196749975D01*
X199376794Y-121489475D02*
X199455798Y-121557427D01*
X252504505Y-212847827D02*
X252360866Y-212877041D01*
X143982105Y-163398793D02*
X143951863Y-163507861D01*
X133219963Y-123712867D02*
X133361236Y-123673707D01*
X144212799Y-162890824D02*
X144156512Y-162986845D01*
X225453795Y-143043684D02*
X225465750Y-143189608D01*
X211555347Y-134141947D02*
X211581566Y-134286419D01*
X150715539Y-127420089D02*
X150851748Y-127398671D01*
X176550496Y-112878634D02*
X176664605Y-112875096D01*
X198251269Y-205308546D02*
X198221830Y-205294181D01*
X181364037Y-195874812D02*
X181394889Y-195730906D01*
X254180687Y-133121456D02*
X254149831Y-132977553D01*
X187904622Y-179278883D02*
X187920471Y-179131754D01*
X178269602Y-112143645D02*
X178347130Y-112059860D01*
X198362514Y-116815005D02*
X198433836Y-116889703D01*
X278810214Y-176659254D02*
X278704029Y-176760093D01*
X252871157Y-129378927D02*
X252861739Y-129232817D01*
X244727053Y-155085216D02*
X244685198Y-154906077D01*
X342294324Y-159266535D02*
X342234453Y-159401499D01*
X241428444Y-196967100D02*
X241342501Y-196912400D01*
X159178858Y-108839076D02*
X159283617Y-108738340D01*
X267075209Y-119946214D02*
X267074347Y-119842509D01*
X266771537Y-118494423D02*
X266765534Y-118390397D01*
X252921672Y-128504508D02*
X252955040Y-128361159D01*
X304933089Y-107989506D02*
X305075389Y-108016908D01*
X320634635Y-162081344D02*
X320531799Y-162035517D01*
X251631585Y-212916586D02*
X251485373Y-212903045D01*
X305754923Y-108252860D02*
X305882759Y-108319033D01*
X125359979Y-160989314D02*
X125219295Y-160942886D01*
X187148791Y-176865580D02*
X187048091Y-176760094D01*
X323001027Y-164907949D02*
X322910843Y-164867487D01*
X284273906Y-195447166D02*
X284319070Y-195588269D01*
X198501197Y-116967522D02*
X198564527Y-117048277D01*
X253975084Y-126778285D02*
X254091364Y-126689026D01*
X220966216Y-155628965D02*
X220968763Y-155810627D01*
X312596157Y-125422417D02*
X312646662Y-125558434D01*
X221006712Y-156171513D02*
X221042007Y-156349714D01*
X145867920Y-161878477D02*
X145757489Y-161890519D01*
X143890621Y-163709739D02*
X143852992Y-163806470D01*
X240981459Y-196723551D02*
X240887267Y-196684063D01*
X216590048Y-211285491D02*
X216519223Y-211416395D01*
X221478815Y-157355439D02*
X221587702Y-157506564D01*
X244461254Y-157035691D02*
X244539454Y-156869239D01*
X286182755Y-110328591D02*
X286276505Y-110403187D01*
X224770616Y-196723559D02*
X224586814Y-196811894D01*
X212771692Y-129956019D02*
X212726524Y-130097118D01*
X323282669Y-165003062D02*
X323187094Y-164975833D01*
X216177451Y-211896038D02*
X216078403Y-212004100D01*
X303906367Y-107996653D02*
X304054643Y-107973507D01*
X212654096Y-127940548D02*
X212708868Y-128078913D01*
X198818115Y-117490103D02*
X198855700Y-117584856D01*
X241254754Y-196860653D02*
X241165278Y-196811897D01*
X249161910Y-211285494D02*
X242447871Y-198108583D01*
X198917149Y-117779376D02*
X198940873Y-117878784D01*
X251339659Y-212882305D02*
X251194705Y-212854346D01*
X123737479Y-159788894D02*
X123657675Y-159663305D01*
X200005657Y-121882661D02*
X211016517Y-126331179D01*
X284303918Y-197325071D02*
X284256264Y-197465363D01*
X158809085Y-109294378D02*
X158893660Y-109172937D01*
X250366886Y-212539670D02*
X250240610Y-212464691D01*
X322213027Y-164324561D02*
X322151007Y-164246100D01*
X286752744Y-110937615D02*
X286816299Y-111039724D01*
X322151007Y-164246100D02*
X322092675Y-164164360D01*
X334234296Y-125042629D02*
X334306523Y-125170196D01*
X306768355Y-109056485D02*
X306858326Y-109172933D01*
X187881316Y-179425994D02*
X187904622Y-179278883D01*
X286684410Y-110838973D02*
X286752744Y-110937615D01*
X213827829Y-212922152D02*
X213681695Y-212914220D01*
X241512496Y-197024689D02*
X241428444Y-196967100D01*
X223923795Y-197283091D02*
X223779201Y-197428436D01*
X283542771Y-198571553D02*
X283435924Y-198671548D01*
X239774879Y-196470293D02*
X225977091Y-196470294D01*
X221379493Y-157197924D02*
X221478815Y-157355439D01*
X187243902Y-176975461D02*
X187148791Y-176865580D01*
X149876618Y-127413165D02*
X150018026Y-127430975D01*
X199714912Y-121738760D02*
X199808412Y-121791115D01*
X179385736Y-110482175D02*
X179475638Y-110403184D01*
X225349604Y-144205382D02*
X225304435Y-144346484D01*
X133939504Y-123587302D02*
X134086046Y-123583445D01*
X266919814Y-119116030D02*
X266919764Y-119115965D01*
X181621319Y-109899872D02*
X181737910Y-109930947D01*
X284014379Y-109930951D02*
X284130949Y-109899870D01*
X221829981Y-157784560D02*
X221962472Y-157910947D01*
X242516974Y-158587632D02*
X242692479Y-158537809D01*
X321800420Y-163507915D02*
X321800412Y-163507903D01*
X212830428Y-128504505D02*
X212856683Y-128648979D01*
X177220486Y-112778533D02*
X177327498Y-112744010D01*
X224117795Y-140854772D02*
X224238513Y-140938389D01*
X223406130Y-197924493D02*
X223304085Y-198108583D01*
X151629443Y-127144539D02*
X151750619Y-127082244D01*
X181967098Y-110010652D02*
X197658261Y-116350412D01*
X187924271Y-178692706D02*
X187911304Y-178547953D01*
X244273141Y-157355439D02*
X244372467Y-157197928D01*
X181919435Y-198241723D02*
X181833729Y-198122454D01*
X123244196Y-158416228D02*
X123233191Y-158270210D01*
X241594594Y-197085129D02*
X241512496Y-197024689D01*
X199230306Y-121343364D02*
X199301608Y-121418063D01*
X152308490Y-126691728D02*
X152409088Y-126598568D01*
X240333511Y-143918840D02*
X240309812Y-143773935D01*
X304054643Y-107973507D02*
X304202784Y-107957925D01*
X198733456Y-119426062D02*
X198711583Y-119530065D01*
X249309625Y-211543070D02*
X249232739Y-211416393D01*
X225375143Y-142610530D02*
X225408487Y-142753873D01*
X213259055Y-136400598D02*
X213395653Y-136459748D01*
X176777967Y-112866189D02*
X176890411Y-112851998D01*
X151250264Y-127297890D02*
X151379066Y-127252473D01*
X225458817Y-143628294D02*
X225442230Y-143773936D01*
X254149831Y-132977553D02*
X254111832Y-132834915D01*
X283435924Y-198671548D02*
X283324264Y-198766259D01*
X212756519Y-128219207D02*
X212797042Y-128361161D01*
X224238513Y-140938389D02*
X224354806Y-141027650D01*
X144273880Y-162797943D02*
X144212799Y-162890824D01*
X225470574Y-143335865D02*
X225468262Y-143482179D01*
X244164256Y-157506567D02*
X244273141Y-157355439D01*
X134672196Y-123640221D02*
X134817405Y-123672657D01*
X179475638Y-110403184D02*
X179569387Y-110328589D01*
X144058893Y-163187598D02*
X144017824Y-163291981D01*
X267057138Y-119634266D02*
X267040647Y-119530067D01*
X152597715Y-126398052D02*
X152685349Y-126290911D01*
X266920150Y-119116629D02*
X266920107Y-119116560D01*
X323678245Y-165065035D02*
X323577675Y-165056770D01*
X179218105Y-110652715D02*
X179299843Y-110565404D01*
X216442354Y-211543070D02*
X216359628Y-211665353D01*
X212797042Y-128361161D02*
X212830428Y-128504505D01*
X178935793Y-111039721D02*
X178999373Y-110937614D01*
X221184258Y-154554035D02*
X221119872Y-154728849D01*
X224771876Y-141437460D02*
X224863171Y-141552166D01*
X198676967Y-119946217D02*
X198681159Y-120049412D01*
X182316045Y-198671548D02*
X182209198Y-198571550D01*
X224239632Y-197024690D02*
X224077483Y-197148380D01*
X240283832Y-143482180D02*
X240281559Y-143335865D01*
X334571330Y-125857755D02*
X342433669Y-157392122D01*
X211819261Y-134985882D02*
X211887142Y-135117583D01*
X251485373Y-212903045D02*
X251339659Y-212882305D01*
X252861739Y-129232817D02*
X252859457Y-129086494D01*
X158983642Y-109056488D02*
X159078786Y-108945166D01*
X182427701Y-198766256D02*
X182316045Y-198671548D01*
X144156512Y-162986845D02*
X144105172Y-163085830D01*
X306007342Y-108391250D02*
X306128442Y-108469412D01*
X266764662Y-118286713D02*
X266768855Y-118183537D01*
X143659456Y-164164360D02*
X143601097Y-164246106D01*
X315174001Y-127435230D02*
X315312737Y-127444002D01*
X198433836Y-116889703D02*
X198501197Y-116967522D01*
X266920246Y-119116760D02*
X266920195Y-119116694D01*
X266919764Y-119115965D02*
X266919717Y-119115896D01*
X252895428Y-128648978D02*
X252921672Y-128504508D01*
X175860222Y-112782712D02*
X175975053Y-112813052D01*
X187048091Y-176760094D02*
X186941899Y-176659256D01*
X284605428Y-109833986D02*
X284725009Y-109832115D01*
X284072144Y-197871050D02*
X283998167Y-197998837D01*
X182010702Y-198356448D02*
X181919435Y-198241723D01*
X305624078Y-108192863D02*
X305754923Y-108252860D01*
X254735434Y-126331179D02*
X265746333Y-121882658D01*
X123657675Y-159663305D02*
X123584258Y-159533843D01*
X240309812Y-143773935D02*
X240293245Y-143628295D01*
X177735812Y-112557928D02*
X177832068Y-112499808D01*
X132808286Y-123871843D02*
X132943226Y-123811974D01*
X342393430Y-158989760D02*
X342347330Y-159129194D01*
X221290700Y-157035689D02*
X221379493Y-157197924D01*
X252493210Y-136400599D02*
X252626077Y-136335050D01*
X240317525Y-142898343D02*
X240343774Y-142753874D01*
X244745245Y-156171508D02*
X244769679Y-155991644D01*
X287093987Y-111625451D02*
X287149762Y-111726116D01*
X285984316Y-110193194D02*
X286085309Y-110258541D01*
X307222310Y-109827854D02*
X307276255Y-109972559D01*
X253000749Y-136101906D02*
X253117029Y-136012642D01*
X313768006Y-126941520D02*
X313883111Y-127014530D01*
X144339611Y-162708381D02*
X144273880Y-162797943D01*
X124564528Y-160613722D02*
X124444803Y-160529584D01*
X143951863Y-163508213D02*
X143923620Y-163610282D01*
X267028764Y-120354205D02*
X267047714Y-120253578D01*
X123584258Y-159533843D02*
X123517616Y-159401500D01*
X177432721Y-112704616D02*
X177535962Y-112660412D01*
X212726524Y-130097118D02*
X212674206Y-130236420D01*
X211655387Y-134571718D02*
X211702983Y-134712020D01*
X266817528Y-120926583D02*
X266863982Y-120835795D01*
X266920070Y-119116496D02*
X266919999Y-119116363D01*
X322419581Y-164539309D02*
X322347471Y-164471259D01*
X286928480Y-111253731D02*
X286976784Y-111365320D01*
X146312184Y-161887469D02*
X146201188Y-161876610D01*
X215633839Y-212383774D02*
X215511622Y-212464693D01*
X341640033Y-160243398D02*
X341533672Y-160344262D01*
X198832297Y-119115832D02*
X198831967Y-119116887D01*
X322092675Y-164164360D02*
X322038167Y-164079432D01*
X321800429Y-163507931D02*
X321800426Y-163507918D01*
X214557606Y-212854347D02*
X214412654Y-212882306D01*
X144733289Y-162316597D02*
X144646345Y-162386889D01*
X306573158Y-108839075D02*
X306673220Y-108945161D01*
X198729587Y-117306456D02*
X198776054Y-117397245D01*
X266589182Y-121265543D02*
X266652502Y-121184788D01*
X319439961Y-161887471D02*
X319329405Y-161904099D01*
X342234453Y-159401499D02*
X342167760Y-159533849D01*
X266919929Y-119116230D02*
X266919897Y-119116165D01*
X240343774Y-142753874D02*
X240377147Y-142610529D01*
X286986625Y-111389622D02*
X286996175Y-111413657D01*
X284130949Y-109899870D02*
X284248556Y-109874634D01*
X134086046Y-123583445D02*
X134232851Y-123586770D01*
X132183811Y-124268427D02*
X132300007Y-124177361D01*
X178420910Y-111972083D02*
X178490771Y-111880391D01*
X241076824Y-141327463D02*
X241178672Y-141222380D01*
X161549298Y-107957927D02*
X161697430Y-107973505D01*
X250630694Y-212671094D02*
X250496978Y-212608527D01*
X312765164Y-125818949D02*
X312832766Y-125943233D01*
X160819031Y-107989511D02*
X160962901Y-107968984D01*
X288622186Y-112823484D02*
X288729804Y-112847437D01*
X215511622Y-212464693D02*
X215385370Y-212539669D01*
X314501701Y-127297890D02*
X314632657Y-127337468D01*
X123233191Y-158270210D02*
X123229315Y-158123661D01*
X212890324Y-129232812D02*
X212880891Y-129378927D01*
X125503408Y-161028900D02*
X125359979Y-160989314D01*
X253437389Y-135712831D02*
X253534040Y-135602839D01*
X211640457Y-132834918D02*
X211602434Y-132977550D01*
X187691344Y-177713432D02*
X187631960Y-177582297D01*
X303463112Y-108112711D02*
X303610360Y-108066148D01*
X197949096Y-116494314D02*
X198039102Y-116550834D01*
X254204392Y-133266364D02*
X254180687Y-133121456D01*
X333981932Y-124683667D02*
X334071837Y-124799152D01*
X181328923Y-196749975D02*
X181316939Y-196604050D01*
X222247884Y-158137294D02*
X222399899Y-158236781D01*
X254170450Y-134286418D02*
X254196693Y-134141951D01*
X334531743Y-125714325D02*
X334571330Y-125857755D01*
X241397174Y-141027646D02*
X241513456Y-140938389D01*
X267250769Y-116967521D02*
X267318139Y-116889703D01*
X223595572Y-158655084D02*
X223779737Y-158672229D01*
X225252119Y-144485779D02*
X221184258Y-154554035D01*
X284366988Y-109855244D02*
X284486010Y-109841697D01*
X340670410Y-160889783D02*
X340532686Y-160942889D01*
X212880891Y-129378927D02*
X212864308Y-129524567D01*
X251194705Y-212854346D02*
X251050785Y-212819141D01*
X267471748Y-205323213D02*
X253197002Y-212596421D01*
X266896268Y-117584862D02*
X266933857Y-117490103D01*
X182543985Y-198855500D02*
X182427701Y-198766256D01*
X342519543Y-157976843D02*
X342522869Y-158123658D01*
X152685349Y-126290911D02*
X152768277Y-126179323D01*
X266863231Y-117681345D02*
X266896268Y-117584862D01*
X252911421Y-129669477D02*
X252887718Y-129524568D01*
X182918655Y-199088537D02*
X182789651Y-199016826D01*
X333205361Y-124012018D02*
X333330963Y-124091817D01*
X333568140Y-124268428D02*
X333679394Y-124364807D01*
X158893660Y-109172937D02*
X158983642Y-109056488D01*
X305215877Y-108051056D02*
X305354312Y-108091843D01*
X187911304Y-178547953D02*
X187891395Y-178404412D01*
X242041614Y-197504977D02*
X241972925Y-197428431D01*
X133648261Y-123616383D02*
X133793484Y-123598288D01*
X283832537Y-198241724D02*
X283741263Y-198356453D01*
X315036427Y-127420087D02*
X315174001Y-127435230D01*
X225028881Y-141794979D02*
X225102909Y-141922722D01*
X252646782Y-212811563D02*
X252504505Y-212847827D01*
X146532691Y-161926520D02*
X146422763Y-161904099D01*
X323478110Y-165043622D02*
X323379731Y-165025689D01*
X177111846Y-112808093D02*
X177220486Y-112778533D01*
X211414927Y-126527631D02*
X211539877Y-126605408D01*
X266933857Y-117490103D02*
X266975917Y-117397246D01*
X178188517Y-112223348D02*
X178269602Y-112143645D01*
X283207982Y-198855499D02*
X283087271Y-198939087D01*
X284344436Y-197183122D02*
X284303918Y-197325071D01*
X182107351Y-198466450D02*
X182010702Y-198356448D01*
X240803214Y-141671401D02*
X240888906Y-141552167D01*
X225287080Y-142328279D02*
X225334672Y-142468580D01*
X152919196Y-125943237D02*
X152986801Y-125818949D01*
X159997170Y-108252862D02*
X160128021Y-108192862D01*
X197758596Y-116393930D02*
X197855566Y-116441960D01*
X331079766Y-123640220D02*
X331225780Y-123615121D01*
X266037156Y-121738761D02*
X266127157Y-121682245D01*
X254066666Y-132693820D02*
X254014354Y-132554521D01*
X214266937Y-212903048D02*
X214120717Y-212916583D01*
X285317821Y-109910180D02*
X285433851Y-109943271D01*
X342014480Y-159788895D02*
X341928937Y-159909861D01*
X340532686Y-160942889D02*
X340392001Y-160989316D01*
X267061815Y-120151923D02*
X267071006Y-120049410D01*
X334306523Y-125170196D02*
X334372537Y-125301365D01*
X332671413Y-123758970D02*
X332808730Y-123811974D01*
X225418504Y-143918840D02*
X225387626Y-144062747D01*
X223234982Y-158587632D02*
X223413832Y-158626805D01*
X307161758Y-109687566D02*
X307222310Y-109827854D01*
X277901528Y-179572843D02*
X277940066Y-179719180D01*
X225355369Y-196535324D02*
X225155518Y-196584888D01*
X305354312Y-108091843D02*
X305490458Y-108139150D01*
X225304435Y-144346484D02*
X225252119Y-144485779D01*
X132546589Y-124012017D02*
X132675983Y-123938534D01*
X146749727Y-161988804D02*
X146641756Y-161954750D01*
X198695079Y-119634260D02*
X198683850Y-119738465D01*
X316158490Y-127356701D02*
X330934545Y-123672658D01*
X153105302Y-125558431D02*
X153155811Y-125422421D01*
X187711368Y-180009340D02*
X187765568Y-179864760D01*
X253711011Y-135368894D02*
X253790946Y-135245318D01*
X175745882Y-112746447D02*
X175860222Y-112782712D01*
X131445555Y-125170198D02*
X131517757Y-125042629D01*
X212218097Y-135602840D02*
X212314752Y-135712836D01*
X160536243Y-108051053D02*
X160676732Y-108016905D01*
X186464349Y-176307282D02*
X186332281Y-176233352D01*
X340392001Y-160989316D02*
X340248575Y-161028898D01*
X322572802Y-164664337D02*
X322494744Y-164603699D01*
X212370836Y-127422035D02*
X212450774Y-127545614D01*
X214412654Y-212882306D02*
X214266937Y-212903048D01*
X267679529Y-205227024D02*
X267649350Y-205239819D01*
X131865525Y-124572644D02*
X131966411Y-124466284D01*
X240286413Y-143189600D02*
X240298410Y-143043678D01*
X314372902Y-127252470D02*
X314501701Y-127297890D01*
X225465750Y-143189608D02*
X225470574Y-143335865D01*
X278185747Y-177454094D02*
X278120147Y-177582296D01*
X284387964Y-195874813D02*
X284411692Y-196019723D01*
X321800277Y-163507865D02*
X321800233Y-163507859D01*
X225155518Y-196584888D02*
X224960386Y-196647756D01*
X221042007Y-156349714D02*
X221088104Y-156525739D01*
X241342501Y-196912400D02*
X241254754Y-196860653D01*
X244607003Y-156699089D02*
X244663856Y-156525744D01*
X198980418Y-118494421D02*
X198969194Y-118598602D01*
X241513456Y-140938389D02*
X241634172Y-140854774D01*
X181266190Y-109841698D02*
X181385242Y-109855246D01*
X322822777Y-164822804D02*
X322736978Y-164773981D01*
X211016517Y-126331179D02*
X211153057Y-126390329D01*
X284486010Y-109841697D02*
X284605428Y-109833986D01*
X141767455Y-165059584D02*
X141664390Y-165047378D01*
X332943664Y-123871841D02*
X333075964Y-123938540D01*
X287342471Y-112006236D02*
X287414597Y-112092056D01*
X198808534Y-120648164D02*
X198846113Y-120742924D01*
X224586814Y-196811894D02*
X224409610Y-196912405D01*
X253654730Y-127078099D02*
X253756575Y-126973009D01*
X224863171Y-141552166D02*
X224948907Y-141671403D01*
X198940873Y-117878784D02*
X198959814Y-117979395D01*
X145647755Y-161908234D02*
X145538938Y-161931613D01*
X160962901Y-107968984D02*
X161108106Y-107955444D01*
X321899236Y-163806472D02*
X321861638Y-163709739D01*
X287149762Y-111726116D02*
X287209878Y-111823188D01*
X212887784Y-128940240D02*
X212892627Y-129086496D01*
X181027159Y-109832111D02*
X181146764Y-109833992D01*
X266919999Y-119116363D02*
X266919929Y-119116230D01*
X341307164Y-160529581D02*
X341187443Y-160613725D01*
X316016930Y-127388442D02*
X316158490Y-127356701D01*
X213391361Y-212877041D02*
X213247695Y-212847822D01*
X306673220Y-108945161D02*
X306768355Y-109056485D01*
X239880354Y-196472140D02*
X239774879Y-196470293D01*
X267128215Y-117131799D02*
X267187443Y-117048281D01*
X240192661Y-196499451D02*
X240089326Y-196486768D01*
X124444803Y-160529584D02*
X124329320Y-160439715D01*
X142750939Y-164907950D02*
X142658803Y-164944098D01*
X340248575Y-161028898D02*
X324294202Y-165006810D01*
X240364367Y-144062747D02*
X240333511Y-143918840D01*
X212809714Y-129813380D02*
X212771692Y-129956019D01*
X321342118Y-162622318D02*
X321267490Y-162539932D01*
X178877131Y-111145149D02*
X178935793Y-111039721D01*
X181753799Y-197998832D02*
X181679812Y-197871047D01*
X131220510Y-125714326D02*
X131266895Y-125573646D01*
X225232369Y-142189914D02*
X225287080Y-142328279D01*
X199455798Y-121557427D02*
X199538530Y-121621741D01*
X313443479Y-126691721D02*
X313547988Y-126780007D01*
X250118365Y-212383775D02*
X250000342Y-212297085D01*
X187920471Y-179131754D02*
X187928960Y-178984848D01*
X123243121Y-157830018D02*
X123260875Y-157683447D01*
X288207586Y-112679151D02*
X288308515Y-112722352D01*
X198677839Y-119842505D02*
X198676967Y-119946217D01*
X216078403Y-212004100D02*
X215974313Y-212107073D01*
X265943629Y-121791114D02*
X266037156Y-121738761D01*
X283087271Y-198939087D02*
X282962319Y-199016827D01*
X142372218Y-165025691D02*
X142273828Y-165043628D01*
X225559332Y-196499450D02*
X225355369Y-196535324D01*
X198959814Y-117979395D02*
X198973922Y-118081036D01*
X288308515Y-112722352D02*
X288411372Y-112760864D01*
X321941295Y-163900400D02*
X321899236Y-163806472D01*
X143852992Y-163806470D02*
X143810907Y-163900395D01*
X159623618Y-108469411D02*
X159744729Y-108391250D01*
X333679394Y-124364807D02*
X333785551Y-124466282D01*
X211776870Y-126778283D02*
X211888526Y-126873010D01*
X179569387Y-110328589D02*
X179666855Y-110258539D01*
X198287307Y-116743593D02*
X198362514Y-116815005D01*
X266919897Y-119116165D02*
X266919857Y-119116096D01*
X278257461Y-177329065D02*
X278185747Y-177454094D01*
X331958482Y-123598289D02*
X332103705Y-123616384D01*
X323379731Y-165025689D02*
X323282669Y-165003062D01*
X240396642Y-196535326D02*
X240295123Y-196515649D01*
X243504073Y-158137298D02*
X243650035Y-158028603D01*
X241901804Y-197354454D02*
X241828338Y-197283083D01*
X224573338Y-141222377D02*
X224675198Y-141327467D01*
X131680164Y-124799155D02*
X131770053Y-124683667D01*
X267022380Y-117306458D02*
X267073174Y-117217924D01*
X181478049Y-195447165D02*
X181530367Y-195307870D01*
X283998167Y-197998837D02*
X283918233Y-198122457D01*
X244539454Y-156869239D02*
X244607003Y-156699089D01*
X223059473Y-158537807D02*
X223234982Y-158587632D01*
X212285143Y-127302799D02*
X212370836Y-127422035D01*
X244757729Y-155265750D02*
X244727053Y-155085216D01*
X149593472Y-127356700D02*
X149735034Y-127388442D01*
X320104378Y-161908234D02*
X319994646Y-161890522D01*
X285772324Y-110077211D02*
X285879938Y-110132698D01*
X180907611Y-109836069D02*
X181027159Y-109832111D01*
X187416940Y-177207453D02*
X187333318Y-177089498D01*
M02*
