G04 #@! TF.GenerationSoftware,KiCad,Pcbnew,7.0.5-0*
G04 #@! TF.CreationDate,2023-07-18T22:32:37-04:00*
G04 #@! TF.ProjectId,tern,7465726e-2e6b-4696-9361-645f70636258,v1.0.0*
G04 #@! TF.SameCoordinates,Original*
G04 #@! TF.FileFunction,Legend,Bot*
G04 #@! TF.FilePolarity,Positive*
%FSLAX46Y46*%
G04 Gerber Fmt 4.6, Leading zero omitted, Abs format (unit mm)*
G04 Created by KiCad (PCBNEW 7.0.5-0) date 2023-07-18 22:32:37*
%MOMM*%
%LPD*%
G01*
G04 APERTURE LIST*
G04 Aperture macros list*
%AMRotRect*
0 Rectangle, with rotation*
0 The origin of the aperture is its center*
0 $1 length*
0 $2 width*
0 $3 Rotation angle, in degrees counterclockwise*
0 Add horizontal line*
21,1,$1,$2,0,0,$3*%
G04 Aperture macros list end*
%ADD10C,0.150000*%
%ADD11O,2.750000X1.800000*%
%ADD12R,2.750000X1.800000*%
%ADD13C,1.701800*%
%ADD14C,3.000000*%
%ADD15C,3.429000*%
%ADD16RotRect,2.600000X2.600000X19.000000*%
%ADD17RotRect,2.600000X2.600000X22.000000*%
%ADD18RotRect,2.600000X2.600000X341.000000*%
%ADD19RotRect,2.600000X2.600000X346.000000*%
%ADD20RotRect,2.600000X2.600000X338.000000*%
%ADD21RotRect,2.600000X2.600000X14.000000*%
%ADD22C,2.200000*%
%ADD23C,4.400000*%
%ADD24RotRect,2.600000X2.600000X333.000000*%
%ADD25RotRect,2.600000X2.600000X27.000000*%
G04 APERTURE END LIST*
D10*
X227522256Y-164759353D02*
X227522256Y-164159353D01*
X227522256Y-164159353D02*
X227293685Y-164159353D01*
X227293685Y-164159353D02*
X227236542Y-164187924D01*
X227236542Y-164187924D02*
X227207971Y-164216496D01*
X227207971Y-164216496D02*
X227179399Y-164273639D01*
X227179399Y-164273639D02*
X227179399Y-164359353D01*
X227179399Y-164359353D02*
X227207971Y-164416496D01*
X227207971Y-164416496D02*
X227236542Y-164445067D01*
X227236542Y-164445067D02*
X227293685Y-164473639D01*
X227293685Y-164473639D02*
X227522256Y-164473639D01*
X226607971Y-164759353D02*
X226950828Y-164759353D01*
X226779399Y-164759353D02*
X226779399Y-164159353D01*
X226779399Y-164159353D02*
X226836542Y-164245067D01*
X226836542Y-164245067D02*
X226893685Y-164302210D01*
X226893685Y-164302210D02*
X226950828Y-164330782D01*
X239153459Y-174919353D02*
X239153459Y-174319353D01*
X239153459Y-174319353D02*
X238924888Y-174319353D01*
X238924888Y-174319353D02*
X238867745Y-174347924D01*
X238867745Y-174347924D02*
X238839174Y-174376496D01*
X238839174Y-174376496D02*
X238810602Y-174433639D01*
X238810602Y-174433639D02*
X238810602Y-174519353D01*
X238810602Y-174519353D02*
X238839174Y-174576496D01*
X238839174Y-174576496D02*
X238867745Y-174605067D01*
X238867745Y-174605067D02*
X238924888Y-174633639D01*
X238924888Y-174633639D02*
X239153459Y-174633639D01*
X238467745Y-174576496D02*
X238524888Y-174547924D01*
X238524888Y-174547924D02*
X238553459Y-174519353D01*
X238553459Y-174519353D02*
X238582031Y-174462210D01*
X238582031Y-174462210D02*
X238582031Y-174433639D01*
X238582031Y-174433639D02*
X238553459Y-174376496D01*
X238553459Y-174376496D02*
X238524888Y-174347924D01*
X238524888Y-174347924D02*
X238467745Y-174319353D01*
X238467745Y-174319353D02*
X238353459Y-174319353D01*
X238353459Y-174319353D02*
X238296317Y-174347924D01*
X238296317Y-174347924D02*
X238267745Y-174376496D01*
X238267745Y-174376496D02*
X238239174Y-174433639D01*
X238239174Y-174433639D02*
X238239174Y-174462210D01*
X238239174Y-174462210D02*
X238267745Y-174519353D01*
X238267745Y-174519353D02*
X238296317Y-174547924D01*
X238296317Y-174547924D02*
X238353459Y-174576496D01*
X238353459Y-174576496D02*
X238467745Y-174576496D01*
X238467745Y-174576496D02*
X238524888Y-174605067D01*
X238524888Y-174605067D02*
X238553459Y-174633639D01*
X238553459Y-174633639D02*
X238582031Y-174690782D01*
X238582031Y-174690782D02*
X238582031Y-174805067D01*
X238582031Y-174805067D02*
X238553459Y-174862210D01*
X238553459Y-174862210D02*
X238524888Y-174890782D01*
X238524888Y-174890782D02*
X238467745Y-174919353D01*
X238467745Y-174919353D02*
X238353459Y-174919353D01*
X238353459Y-174919353D02*
X238296317Y-174890782D01*
X238296317Y-174890782D02*
X238267745Y-174862210D01*
X238267745Y-174862210D02*
X238239174Y-174805067D01*
X238239174Y-174805067D02*
X238239174Y-174690782D01*
X238239174Y-174690782D02*
X238267745Y-174633639D01*
X238267745Y-174633639D02*
X238296317Y-174605067D01*
X238296317Y-174605067D02*
X238353459Y-174576496D01*
X227522256Y-174919353D02*
X227522256Y-174319353D01*
X227522256Y-174319353D02*
X227293685Y-174319353D01*
X227293685Y-174319353D02*
X227236542Y-174347924D01*
X227236542Y-174347924D02*
X227207971Y-174376496D01*
X227207971Y-174376496D02*
X227179399Y-174433639D01*
X227179399Y-174433639D02*
X227179399Y-174519353D01*
X227179399Y-174519353D02*
X227207971Y-174576496D01*
X227207971Y-174576496D02*
X227236542Y-174605067D01*
X227236542Y-174605067D02*
X227293685Y-174633639D01*
X227293685Y-174633639D02*
X227522256Y-174633639D01*
X226636542Y-174319353D02*
X226922256Y-174319353D01*
X226922256Y-174319353D02*
X226950828Y-174605067D01*
X226950828Y-174605067D02*
X226922256Y-174576496D01*
X226922256Y-174576496D02*
X226865114Y-174547924D01*
X226865114Y-174547924D02*
X226722256Y-174547924D01*
X226722256Y-174547924D02*
X226665114Y-174576496D01*
X226665114Y-174576496D02*
X226636542Y-174605067D01*
X226636542Y-174605067D02*
X226607971Y-174662210D01*
X226607971Y-174662210D02*
X226607971Y-174805067D01*
X226607971Y-174805067D02*
X226636542Y-174862210D01*
X226636542Y-174862210D02*
X226665114Y-174890782D01*
X226665114Y-174890782D02*
X226722256Y-174919353D01*
X226722256Y-174919353D02*
X226865114Y-174919353D01*
X226865114Y-174919353D02*
X226922256Y-174890782D01*
X226922256Y-174890782D02*
X226950828Y-174862210D01*
X239153459Y-177459353D02*
X239153459Y-176859353D01*
X239153459Y-176859353D02*
X238924888Y-176859353D01*
X238924888Y-176859353D02*
X238867745Y-176887924D01*
X238867745Y-176887924D02*
X238839174Y-176916496D01*
X238839174Y-176916496D02*
X238810602Y-176973639D01*
X238810602Y-176973639D02*
X238810602Y-177059353D01*
X238810602Y-177059353D02*
X238839174Y-177116496D01*
X238839174Y-177116496D02*
X238867745Y-177145067D01*
X238867745Y-177145067D02*
X238924888Y-177173639D01*
X238924888Y-177173639D02*
X239153459Y-177173639D01*
X238610602Y-176859353D02*
X238210602Y-176859353D01*
X238210602Y-176859353D02*
X238467745Y-177459353D01*
X239239174Y-166699353D02*
X239039174Y-167299353D01*
X239039174Y-167299353D02*
X238839174Y-166699353D01*
X238296316Y-167242210D02*
X238324888Y-167270782D01*
X238324888Y-167270782D02*
X238410602Y-167299353D01*
X238410602Y-167299353D02*
X238467745Y-167299353D01*
X238467745Y-167299353D02*
X238553459Y-167270782D01*
X238553459Y-167270782D02*
X238610602Y-167213639D01*
X238610602Y-167213639D02*
X238639173Y-167156496D01*
X238639173Y-167156496D02*
X238667745Y-167042210D01*
X238667745Y-167042210D02*
X238667745Y-166956496D01*
X238667745Y-166956496D02*
X238639173Y-166842210D01*
X238639173Y-166842210D02*
X238610602Y-166785067D01*
X238610602Y-166785067D02*
X238553459Y-166727924D01*
X238553459Y-166727924D02*
X238467745Y-166699353D01*
X238467745Y-166699353D02*
X238410602Y-166699353D01*
X238410602Y-166699353D02*
X238324888Y-166727924D01*
X238324888Y-166727924D02*
X238296316Y-166756496D01*
X237696316Y-167242210D02*
X237724888Y-167270782D01*
X237724888Y-167270782D02*
X237810602Y-167299353D01*
X237810602Y-167299353D02*
X237867745Y-167299353D01*
X237867745Y-167299353D02*
X237953459Y-167270782D01*
X237953459Y-167270782D02*
X238010602Y-167213639D01*
X238010602Y-167213639D02*
X238039173Y-167156496D01*
X238039173Y-167156496D02*
X238067745Y-167042210D01*
X238067745Y-167042210D02*
X238067745Y-166956496D01*
X238067745Y-166956496D02*
X238039173Y-166842210D01*
X238039173Y-166842210D02*
X238010602Y-166785067D01*
X238010602Y-166785067D02*
X237953459Y-166727924D01*
X237953459Y-166727924D02*
X237867745Y-166699353D01*
X237867745Y-166699353D02*
X237810602Y-166699353D01*
X237810602Y-166699353D02*
X237724888Y-166727924D01*
X237724888Y-166727924D02*
X237696316Y-166756496D01*
X227522256Y-177459353D02*
X227522256Y-176859353D01*
X227522256Y-176859353D02*
X227293685Y-176859353D01*
X227293685Y-176859353D02*
X227236542Y-176887924D01*
X227236542Y-176887924D02*
X227207971Y-176916496D01*
X227207971Y-176916496D02*
X227179399Y-176973639D01*
X227179399Y-176973639D02*
X227179399Y-177059353D01*
X227179399Y-177059353D02*
X227207971Y-177116496D01*
X227207971Y-177116496D02*
X227236542Y-177145067D01*
X227236542Y-177145067D02*
X227293685Y-177173639D01*
X227293685Y-177173639D02*
X227522256Y-177173639D01*
X226665114Y-176859353D02*
X226779399Y-176859353D01*
X226779399Y-176859353D02*
X226836542Y-176887924D01*
X226836542Y-176887924D02*
X226865114Y-176916496D01*
X226865114Y-176916496D02*
X226922256Y-177002210D01*
X226922256Y-177002210D02*
X226950828Y-177116496D01*
X226950828Y-177116496D02*
X226950828Y-177345067D01*
X226950828Y-177345067D02*
X226922256Y-177402210D01*
X226922256Y-177402210D02*
X226893685Y-177430782D01*
X226893685Y-177430782D02*
X226836542Y-177459353D01*
X226836542Y-177459353D02*
X226722256Y-177459353D01*
X226722256Y-177459353D02*
X226665114Y-177430782D01*
X226665114Y-177430782D02*
X226636542Y-177402210D01*
X226636542Y-177402210D02*
X226607971Y-177345067D01*
X226607971Y-177345067D02*
X226607971Y-177202210D01*
X226607971Y-177202210D02*
X226636542Y-177145067D01*
X226636542Y-177145067D02*
X226665114Y-177116496D01*
X226665114Y-177116496D02*
X226722256Y-177087924D01*
X226722256Y-177087924D02*
X226836542Y-177087924D01*
X226836542Y-177087924D02*
X226893685Y-177116496D01*
X226893685Y-177116496D02*
X226922256Y-177145067D01*
X226922256Y-177145067D02*
X226950828Y-177202210D01*
X239239174Y-161619353D02*
X239039174Y-162219353D01*
X239039174Y-162219353D02*
X238839174Y-161619353D01*
X238639173Y-161619353D02*
X238639173Y-162105067D01*
X238639173Y-162105067D02*
X238610602Y-162162210D01*
X238610602Y-162162210D02*
X238582031Y-162190782D01*
X238582031Y-162190782D02*
X238524888Y-162219353D01*
X238524888Y-162219353D02*
X238410602Y-162219353D01*
X238410602Y-162219353D02*
X238353459Y-162190782D01*
X238353459Y-162190782D02*
X238324888Y-162162210D01*
X238324888Y-162162210D02*
X238296316Y-162105067D01*
X238296316Y-162105067D02*
X238296316Y-161619353D01*
X238039174Y-162190782D02*
X237953460Y-162219353D01*
X237953460Y-162219353D02*
X237810602Y-162219353D01*
X237810602Y-162219353D02*
X237753460Y-162190782D01*
X237753460Y-162190782D02*
X237724888Y-162162210D01*
X237724888Y-162162210D02*
X237696317Y-162105067D01*
X237696317Y-162105067D02*
X237696317Y-162047924D01*
X237696317Y-162047924D02*
X237724888Y-161990782D01*
X237724888Y-161990782D02*
X237753460Y-161962210D01*
X237753460Y-161962210D02*
X237810602Y-161933639D01*
X237810602Y-161933639D02*
X237924888Y-161905067D01*
X237924888Y-161905067D02*
X237982031Y-161876496D01*
X237982031Y-161876496D02*
X238010602Y-161847924D01*
X238010602Y-161847924D02*
X238039174Y-161790782D01*
X238039174Y-161790782D02*
X238039174Y-161733639D01*
X238039174Y-161733639D02*
X238010602Y-161676496D01*
X238010602Y-161676496D02*
X237982031Y-161647924D01*
X237982031Y-161647924D02*
X237924888Y-161619353D01*
X237924888Y-161619353D02*
X237782031Y-161619353D01*
X237782031Y-161619353D02*
X237696317Y-161647924D01*
X237239173Y-161905067D02*
X237153459Y-161933639D01*
X237153459Y-161933639D02*
X237124888Y-161962210D01*
X237124888Y-161962210D02*
X237096316Y-162019353D01*
X237096316Y-162019353D02*
X237096316Y-162105067D01*
X237096316Y-162105067D02*
X237124888Y-162162210D01*
X237124888Y-162162210D02*
X237153459Y-162190782D01*
X237153459Y-162190782D02*
X237210602Y-162219353D01*
X237210602Y-162219353D02*
X237439173Y-162219353D01*
X237439173Y-162219353D02*
X237439173Y-161619353D01*
X237439173Y-161619353D02*
X237239173Y-161619353D01*
X237239173Y-161619353D02*
X237182031Y-161647924D01*
X237182031Y-161647924D02*
X237153459Y-161676496D01*
X237153459Y-161676496D02*
X237124888Y-161733639D01*
X237124888Y-161733639D02*
X237124888Y-161790782D01*
X237124888Y-161790782D02*
X237153459Y-161847924D01*
X237153459Y-161847924D02*
X237182031Y-161876496D01*
X237182031Y-161876496D02*
X237239173Y-161905067D01*
X237239173Y-161905067D02*
X237439173Y-161905067D01*
X227522256Y-167299353D02*
X227522256Y-166699353D01*
X227522256Y-166699353D02*
X227293685Y-166699353D01*
X227293685Y-166699353D02*
X227236542Y-166727924D01*
X227236542Y-166727924D02*
X227207971Y-166756496D01*
X227207971Y-166756496D02*
X227179399Y-166813639D01*
X227179399Y-166813639D02*
X227179399Y-166899353D01*
X227179399Y-166899353D02*
X227207971Y-166956496D01*
X227207971Y-166956496D02*
X227236542Y-166985067D01*
X227236542Y-166985067D02*
X227293685Y-167013639D01*
X227293685Y-167013639D02*
X227522256Y-167013639D01*
X226950828Y-166756496D02*
X226922256Y-166727924D01*
X226922256Y-166727924D02*
X226865114Y-166699353D01*
X226865114Y-166699353D02*
X226722256Y-166699353D01*
X226722256Y-166699353D02*
X226665114Y-166727924D01*
X226665114Y-166727924D02*
X226636542Y-166756496D01*
X226636542Y-166756496D02*
X226607971Y-166813639D01*
X226607971Y-166813639D02*
X226607971Y-166870782D01*
X226607971Y-166870782D02*
X226636542Y-166956496D01*
X226636542Y-166956496D02*
X226979399Y-167299353D01*
X226979399Y-167299353D02*
X226607971Y-167299353D01*
X227522256Y-172379353D02*
X227522256Y-171779353D01*
X227522256Y-171779353D02*
X227293685Y-171779353D01*
X227293685Y-171779353D02*
X227236542Y-171807924D01*
X227236542Y-171807924D02*
X227207971Y-171836496D01*
X227207971Y-171836496D02*
X227179399Y-171893639D01*
X227179399Y-171893639D02*
X227179399Y-171979353D01*
X227179399Y-171979353D02*
X227207971Y-172036496D01*
X227207971Y-172036496D02*
X227236542Y-172065067D01*
X227236542Y-172065067D02*
X227293685Y-172093639D01*
X227293685Y-172093639D02*
X227522256Y-172093639D01*
X226665114Y-171979353D02*
X226665114Y-172379353D01*
X226807971Y-171750782D02*
X226950828Y-172179353D01*
X226950828Y-172179353D02*
X226579399Y-172179353D01*
X227522256Y-169839353D02*
X227522256Y-169239353D01*
X227522256Y-169239353D02*
X227293685Y-169239353D01*
X227293685Y-169239353D02*
X227236542Y-169267924D01*
X227236542Y-169267924D02*
X227207971Y-169296496D01*
X227207971Y-169296496D02*
X227179399Y-169353639D01*
X227179399Y-169353639D02*
X227179399Y-169439353D01*
X227179399Y-169439353D02*
X227207971Y-169496496D01*
X227207971Y-169496496D02*
X227236542Y-169525067D01*
X227236542Y-169525067D02*
X227293685Y-169553639D01*
X227293685Y-169553639D02*
X227522256Y-169553639D01*
X226979399Y-169239353D02*
X226607971Y-169239353D01*
X226607971Y-169239353D02*
X226807971Y-169467924D01*
X226807971Y-169467924D02*
X226722256Y-169467924D01*
X226722256Y-169467924D02*
X226665114Y-169496496D01*
X226665114Y-169496496D02*
X226636542Y-169525067D01*
X226636542Y-169525067D02*
X226607971Y-169582210D01*
X226607971Y-169582210D02*
X226607971Y-169725067D01*
X226607971Y-169725067D02*
X226636542Y-169782210D01*
X226636542Y-169782210D02*
X226665114Y-169810782D01*
X226665114Y-169810782D02*
X226722256Y-169839353D01*
X226722256Y-169839353D02*
X226893685Y-169839353D01*
X226893685Y-169839353D02*
X226950828Y-169810782D01*
X226950828Y-169810782D02*
X226979399Y-169782210D01*
X238839174Y-164187924D02*
X238896317Y-164159353D01*
X238896317Y-164159353D02*
X238982031Y-164159353D01*
X238982031Y-164159353D02*
X239067745Y-164187924D01*
X239067745Y-164187924D02*
X239124888Y-164245067D01*
X239124888Y-164245067D02*
X239153459Y-164302210D01*
X239153459Y-164302210D02*
X239182031Y-164416496D01*
X239182031Y-164416496D02*
X239182031Y-164502210D01*
X239182031Y-164502210D02*
X239153459Y-164616496D01*
X239153459Y-164616496D02*
X239124888Y-164673639D01*
X239124888Y-164673639D02*
X239067745Y-164730782D01*
X239067745Y-164730782D02*
X238982031Y-164759353D01*
X238982031Y-164759353D02*
X238924888Y-164759353D01*
X238924888Y-164759353D02*
X238839174Y-164730782D01*
X238839174Y-164730782D02*
X238810602Y-164702210D01*
X238810602Y-164702210D02*
X238810602Y-164502210D01*
X238810602Y-164502210D02*
X238924888Y-164502210D01*
X238553459Y-164759353D02*
X238553459Y-164159353D01*
X238553459Y-164159353D02*
X238210602Y-164759353D01*
X238210602Y-164759353D02*
X238210602Y-164159353D01*
X237924888Y-164759353D02*
X237924888Y-164159353D01*
X237924888Y-164159353D02*
X237782031Y-164159353D01*
X237782031Y-164159353D02*
X237696317Y-164187924D01*
X237696317Y-164187924D02*
X237639174Y-164245067D01*
X237639174Y-164245067D02*
X237610603Y-164302210D01*
X237610603Y-164302210D02*
X237582031Y-164416496D01*
X237582031Y-164416496D02*
X237582031Y-164502210D01*
X237582031Y-164502210D02*
X237610603Y-164616496D01*
X237610603Y-164616496D02*
X237639174Y-164673639D01*
X237639174Y-164673639D02*
X237696317Y-164730782D01*
X237696317Y-164730782D02*
X237782031Y-164759353D01*
X237782031Y-164759353D02*
X237924888Y-164759353D01*
X239153459Y-172379353D02*
X239153459Y-171779353D01*
X239153459Y-171779353D02*
X238924888Y-171779353D01*
X238924888Y-171779353D02*
X238867745Y-171807924D01*
X238867745Y-171807924D02*
X238839174Y-171836496D01*
X238839174Y-171836496D02*
X238810602Y-171893639D01*
X238810602Y-171893639D02*
X238810602Y-171979353D01*
X238810602Y-171979353D02*
X238839174Y-172036496D01*
X238839174Y-172036496D02*
X238867745Y-172065067D01*
X238867745Y-172065067D02*
X238924888Y-172093639D01*
X238924888Y-172093639D02*
X239153459Y-172093639D01*
X238524888Y-172379353D02*
X238410602Y-172379353D01*
X238410602Y-172379353D02*
X238353459Y-172350782D01*
X238353459Y-172350782D02*
X238324888Y-172322210D01*
X238324888Y-172322210D02*
X238267745Y-172236496D01*
X238267745Y-172236496D02*
X238239174Y-172122210D01*
X238239174Y-172122210D02*
X238239174Y-171893639D01*
X238239174Y-171893639D02*
X238267745Y-171836496D01*
X238267745Y-171836496D02*
X238296317Y-171807924D01*
X238296317Y-171807924D02*
X238353459Y-171779353D01*
X238353459Y-171779353D02*
X238467745Y-171779353D01*
X238467745Y-171779353D02*
X238524888Y-171807924D01*
X238524888Y-171807924D02*
X238553459Y-171836496D01*
X238553459Y-171836496D02*
X238582031Y-171893639D01*
X238582031Y-171893639D02*
X238582031Y-172036496D01*
X238582031Y-172036496D02*
X238553459Y-172093639D01*
X238553459Y-172093639D02*
X238524888Y-172122210D01*
X238524888Y-172122210D02*
X238467745Y-172150782D01*
X238467745Y-172150782D02*
X238353459Y-172150782D01*
X238353459Y-172150782D02*
X238296317Y-172122210D01*
X238296317Y-172122210D02*
X238267745Y-172093639D01*
X238267745Y-172093639D02*
X238239174Y-172036496D01*
X227522256Y-162219353D02*
X227522256Y-161619353D01*
X227522256Y-161619353D02*
X227293685Y-161619353D01*
X227293685Y-161619353D02*
X227236542Y-161647924D01*
X227236542Y-161647924D02*
X227207971Y-161676496D01*
X227207971Y-161676496D02*
X227179399Y-161733639D01*
X227179399Y-161733639D02*
X227179399Y-161819353D01*
X227179399Y-161819353D02*
X227207971Y-161876496D01*
X227207971Y-161876496D02*
X227236542Y-161905067D01*
X227236542Y-161905067D02*
X227293685Y-161933639D01*
X227293685Y-161933639D02*
X227522256Y-161933639D01*
X226807971Y-161619353D02*
X226750828Y-161619353D01*
X226750828Y-161619353D02*
X226693685Y-161647924D01*
X226693685Y-161647924D02*
X226665114Y-161676496D01*
X226665114Y-161676496D02*
X226636542Y-161733639D01*
X226636542Y-161733639D02*
X226607971Y-161847924D01*
X226607971Y-161847924D02*
X226607971Y-161990782D01*
X226607971Y-161990782D02*
X226636542Y-162105067D01*
X226636542Y-162105067D02*
X226665114Y-162162210D01*
X226665114Y-162162210D02*
X226693685Y-162190782D01*
X226693685Y-162190782D02*
X226750828Y-162219353D01*
X226750828Y-162219353D02*
X226807971Y-162219353D01*
X226807971Y-162219353D02*
X226865114Y-162190782D01*
X226865114Y-162190782D02*
X226893685Y-162162210D01*
X226893685Y-162162210D02*
X226922256Y-162105067D01*
X226922256Y-162105067D02*
X226950828Y-161990782D01*
X226950828Y-161990782D02*
X226950828Y-161847924D01*
X226950828Y-161847924D02*
X226922256Y-161733639D01*
X226922256Y-161733639D02*
X226893685Y-161676496D01*
X226893685Y-161676496D02*
X226865114Y-161647924D01*
X226865114Y-161647924D02*
X226807971Y-161619353D01*
X239153459Y-169839353D02*
X239153459Y-169239353D01*
X239153459Y-169239353D02*
X238924888Y-169239353D01*
X238924888Y-169239353D02*
X238867745Y-169267924D01*
X238867745Y-169267924D02*
X238839174Y-169296496D01*
X238839174Y-169296496D02*
X238810602Y-169353639D01*
X238810602Y-169353639D02*
X238810602Y-169439353D01*
X238810602Y-169439353D02*
X238839174Y-169496496D01*
X238839174Y-169496496D02*
X238867745Y-169525067D01*
X238867745Y-169525067D02*
X238924888Y-169553639D01*
X238924888Y-169553639D02*
X239153459Y-169553639D01*
X238239174Y-169839353D02*
X238582031Y-169839353D01*
X238410602Y-169839353D02*
X238410602Y-169239353D01*
X238410602Y-169239353D02*
X238467745Y-169325067D01*
X238467745Y-169325067D02*
X238524888Y-169382210D01*
X238524888Y-169382210D02*
X238582031Y-169410782D01*
X237867745Y-169239353D02*
X237810602Y-169239353D01*
X237810602Y-169239353D02*
X237753459Y-169267924D01*
X237753459Y-169267924D02*
X237724888Y-169296496D01*
X237724888Y-169296496D02*
X237696316Y-169353639D01*
X237696316Y-169353639D02*
X237667745Y-169467924D01*
X237667745Y-169467924D02*
X237667745Y-169610782D01*
X237667745Y-169610782D02*
X237696316Y-169725067D01*
X237696316Y-169725067D02*
X237724888Y-169782210D01*
X237724888Y-169782210D02*
X237753459Y-169810782D01*
X237753459Y-169810782D02*
X237810602Y-169839353D01*
X237810602Y-169839353D02*
X237867745Y-169839353D01*
X237867745Y-169839353D02*
X237924888Y-169810782D01*
X237924888Y-169810782D02*
X237953459Y-169782210D01*
X237953459Y-169782210D02*
X237982030Y-169725067D01*
X237982030Y-169725067D02*
X238010602Y-169610782D01*
X238010602Y-169610782D02*
X238010602Y-169467924D01*
X238010602Y-169467924D02*
X237982030Y-169353639D01*
X237982030Y-169353639D02*
X237953459Y-169296496D01*
X237953459Y-169296496D02*
X237924888Y-169267924D01*
X237924888Y-169267924D02*
X237867745Y-169239353D01*
X249963239Y-193572220D02*
X250181747Y-192899721D01*
X251552206Y-196690743D02*
X252224704Y-196909251D01*
X250181747Y-192899721D02*
X252854767Y-191537750D01*
X252224704Y-196909251D02*
X254452221Y-195774274D01*
X252854767Y-191537750D02*
X253527265Y-191756258D01*
X253981256Y-192647264D02*
X253527265Y-191756258D01*
X256469716Y-196429798D02*
X256787510Y-197053503D01*
X256787510Y-197053503D02*
X260797039Y-195010546D01*
X258663284Y-190822815D02*
X254653754Y-192865772D01*
X258935678Y-191357419D02*
X258663284Y-190822815D01*
X260797039Y-195010546D02*
X260570044Y-194565042D01*
X256469715Y-196429799D02*
G75*
G03*
X254452221Y-195774275I-1336509J-680985D01*
G01*
X253981257Y-192647264D02*
G75*
G03*
X254653754Y-192865771I445502J226995D01*
G01*
X266631523Y-185784305D02*
X266907811Y-185133409D01*
X267942646Y-189029448D02*
X268593541Y-189305737D01*
X266907811Y-185133409D02*
X269689363Y-184009590D01*
X268593541Y-189305737D02*
X270911500Y-188369220D01*
X269689363Y-184009590D02*
X270340258Y-184285878D01*
X270714865Y-185213062D02*
X270340258Y-184285878D01*
X272864186Y-189198086D02*
X273126411Y-189847115D01*
X273126411Y-189847115D02*
X277298738Y-188161385D01*
X275538087Y-183803621D02*
X271365760Y-185489351D01*
X275762851Y-184359931D02*
X275538087Y-183803621D01*
X277298738Y-188161385D02*
X277111435Y-187697793D01*
X272864186Y-189198086D02*
G75*
G03*
X270911500Y-188369220I-1390776J-561910D01*
G01*
X270714864Y-185213062D02*
G75*
G03*
X271365760Y-185489351I463592J187303D01*
G01*
X195449739Y-184285878D02*
X196100634Y-184009590D01*
X194138616Y-187531022D02*
X194414905Y-188181917D01*
X196100634Y-184009590D02*
X198882186Y-185133409D01*
X194414905Y-188181917D02*
X196732864Y-189118433D01*
X198882186Y-185133409D02*
X199158474Y-185784305D01*
X198783868Y-186711488D02*
X199158474Y-185784305D01*
X197561730Y-191071119D02*
X197299506Y-191720148D01*
X197299506Y-191720148D02*
X201471833Y-193405877D01*
X203232484Y-189048113D02*
X199060157Y-187362384D01*
X203007720Y-189604424D02*
X203232484Y-189048113D01*
X201471833Y-193405877D02*
X201659136Y-192942285D01*
X197561730Y-191071119D02*
G75*
G03*
X196732864Y-189118433I-1390776J561910D01*
G01*
X198783869Y-186711488D02*
G75*
G03*
X199060157Y-187362383I463591J-187304D01*
G01*
X161216818Y-128967287D02*
X161852361Y-128657311D01*
X160077329Y-132276602D02*
X160387304Y-132912145D01*
X161852361Y-128657311D02*
X164688917Y-129634016D01*
X160387304Y-132912145D02*
X162751101Y-133726065D01*
X164688917Y-129634016D02*
X164998892Y-130269559D01*
X164673324Y-131215078D02*
X164998892Y-130269559D01*
X163681026Y-135632696D02*
X163453129Y-136294559D01*
X163453129Y-136294559D02*
X167707962Y-137759615D01*
X169238133Y-133315678D02*
X164983299Y-131850621D01*
X169042792Y-133882989D02*
X169238133Y-133315678D01*
X167707962Y-137759615D02*
X167870746Y-137286856D01*
X163681027Y-135632696D02*
G75*
G03*
X162751101Y-133726065I-1418278J488353D01*
G01*
X164673325Y-131215078D02*
G75*
G03*
X164983299Y-131850620I472758J-162784D01*
G01*
X267596693Y-142792232D02*
X267872981Y-142141336D01*
X268907816Y-146037375D02*
X269558711Y-146313664D01*
X267872981Y-142141336D02*
X270654533Y-141017517D01*
X269558711Y-146313664D02*
X271876670Y-145377147D01*
X270654533Y-141017517D02*
X271305428Y-141293805D01*
X271680035Y-142220989D02*
X271305428Y-141293805D01*
X273829356Y-146206013D02*
X274091581Y-146855042D01*
X274091581Y-146855042D02*
X278263908Y-145169312D01*
X276503257Y-140811548D02*
X272330930Y-142497278D01*
X276728021Y-141367858D02*
X276503257Y-140811548D01*
X278263908Y-145169312D02*
X278076605Y-144705720D01*
X273829356Y-146206013D02*
G75*
G03*
X271876670Y-145377147I-1390776J-561910D01*
G01*
X271680034Y-142220989D02*
G75*
G03*
X272330930Y-142497278I463592J187303D01*
G01*
X306325762Y-146343374D02*
X306635737Y-145707831D01*
X307465251Y-149652689D02*
X308100794Y-149962665D01*
X306635737Y-145707831D02*
X309472293Y-144731126D01*
X308100794Y-149962665D02*
X310464590Y-149148744D01*
X309472293Y-144731126D02*
X310107836Y-145041102D01*
X310433405Y-145986620D02*
X310107836Y-145041102D01*
X312371220Y-150078670D02*
X312599118Y-150740533D01*
X312599118Y-150740533D02*
X316853952Y-149275476D01*
X315323781Y-144831539D02*
X311068948Y-146296595D01*
X315519122Y-145398850D02*
X315323781Y-144831539D01*
X316853952Y-149275476D02*
X316691168Y-148802717D01*
X312371221Y-150078670D02*
G75*
G03*
X310464590Y-149148744I-1418278J-488352D01*
G01*
X310433406Y-145986620D02*
G75*
G03*
X311068948Y-146296594I472758J162784D01*
G01*
X326343924Y-145510787D02*
X326708111Y-144904678D01*
X327190651Y-148906822D02*
X327796759Y-149271009D01*
X326708111Y-144904678D02*
X329618998Y-144178912D01*
X327796759Y-149271009D02*
X330222499Y-148666204D01*
X329618998Y-144178912D02*
X330225107Y-144543099D01*
X330467029Y-145513395D02*
X330225107Y-144543099D01*
X332040825Y-149758765D02*
X332210170Y-150437972D01*
X332210170Y-150437972D02*
X336576501Y-149349323D01*
X335439468Y-144788933D02*
X331073138Y-145877582D01*
X335584621Y-145371111D02*
X335439468Y-144788933D01*
X336576501Y-149349323D02*
X336455540Y-148864175D01*
X332040826Y-149758765D02*
G75*
G03*
X330222499Y-148666204I-1455444J-362883D01*
G01*
X330467029Y-145513395D02*
G75*
G03*
X331073138Y-145877582I485148J120961D01*
G01*
X300791104Y-130269562D02*
X301101079Y-129634019D01*
X301930593Y-133578877D02*
X302566136Y-133888853D01*
X301101079Y-129634019D02*
X303937635Y-128657314D01*
X302566136Y-133888853D02*
X304929932Y-133074932D01*
X303937635Y-128657314D02*
X304573178Y-128967290D01*
X304898747Y-129912808D02*
X304573178Y-128967290D01*
X306836562Y-134004858D02*
X307064460Y-134666721D01*
X307064460Y-134666721D02*
X311319294Y-133201664D01*
X309789123Y-128757727D02*
X305534290Y-130222783D01*
X309984464Y-129325038D02*
X309789123Y-128757727D01*
X311319294Y-133201664D02*
X311156510Y-132728905D01*
X306836563Y-134004858D02*
G75*
G03*
X304929932Y-133074932I-1418278J-488352D01*
G01*
X304898748Y-129912808D02*
G75*
G03*
X305534290Y-130222782I472758J162784D01*
G01*
X255018724Y-157041607D02*
X255295012Y-156390711D01*
X256329847Y-160286750D02*
X256980742Y-160563039D01*
X255295012Y-156390711D02*
X258076564Y-155266892D01*
X256980742Y-160563039D02*
X259298701Y-159626522D01*
X258076564Y-155266892D02*
X258727459Y-155543180D01*
X259102066Y-156470364D02*
X258727459Y-155543180D01*
X261251387Y-160455388D02*
X261513612Y-161104417D01*
X261513612Y-161104417D02*
X265685939Y-159418687D01*
X263925288Y-155060923D02*
X259752961Y-156746653D01*
X264150052Y-155617233D02*
X263925288Y-155060923D01*
X265685939Y-159418687D02*
X265498636Y-158955095D01*
X261251387Y-160455388D02*
G75*
G03*
X259298701Y-159626522I-1390776J-561910D01*
G01*
X259102065Y-156470364D02*
G75*
G03*
X259752961Y-156746653I463592J187303D01*
G01*
X188116264Y-157055929D02*
X188767159Y-156779641D01*
X186805141Y-160301073D02*
X187081430Y-160951968D01*
X188767159Y-156779641D02*
X191548711Y-157903460D01*
X187081430Y-160951968D02*
X189399389Y-161888484D01*
X191548711Y-157903460D02*
X191824999Y-158554356D01*
X191450393Y-159481539D02*
X191824999Y-158554356D01*
X190228255Y-163841170D02*
X189966031Y-164490199D01*
X189966031Y-164490199D02*
X194138358Y-166175928D01*
X195899009Y-161818164D02*
X191726682Y-160132435D01*
X195674245Y-162374475D02*
X195899009Y-161818164D01*
X194138358Y-166175928D02*
X194325661Y-165712336D01*
X190228255Y-163841170D02*
G75*
G03*
X189399389Y-161888484I-1390776J561910D01*
G01*
X191450394Y-159481539D02*
G75*
G03*
X191726682Y-160132434I463591J-187304D01*
G01*
X213430857Y-139781056D02*
X214081752Y-139504768D01*
X212119734Y-143026200D02*
X212396023Y-143677095D01*
X214081752Y-139504768D02*
X216863304Y-140628587D01*
X212396023Y-143677095D02*
X214713982Y-144613611D01*
X216863304Y-140628587D02*
X217139592Y-141279483D01*
X216764986Y-142206666D02*
X217139592Y-141279483D01*
X215542848Y-146566297D02*
X215280624Y-147215326D01*
X215280624Y-147215326D02*
X219452951Y-148901055D01*
X221213602Y-144543291D02*
X217041275Y-142857562D01*
X220988838Y-145099602D02*
X221213602Y-144543291D01*
X219452951Y-148901055D02*
X219640254Y-148437463D01*
X215542848Y-146566297D02*
G75*
G03*
X214713982Y-144613611I-1390776J561910D01*
G01*
X216764987Y-142206666D02*
G75*
G03*
X217041275Y-142857561I463591J-187304D01*
G01*
X139677566Y-128048067D02*
X140283675Y-127683880D01*
X138830840Y-131444102D02*
X139195026Y-132050211D01*
X140283675Y-127683880D02*
X143194562Y-128409646D01*
X139195026Y-132050211D02*
X141620766Y-132655016D01*
X143194562Y-128409646D02*
X143558749Y-129015755D01*
X143316827Y-129986050D02*
X143558749Y-129015755D01*
X142713326Y-134473342D02*
X142543981Y-135152549D01*
X142543981Y-135152549D02*
X146910312Y-136241198D01*
X148047345Y-131680808D02*
X143681014Y-130592159D01*
X147902192Y-132262985D02*
X148047345Y-131680808D01*
X146910312Y-136241198D02*
X147031273Y-135756050D01*
X142713326Y-134473342D02*
G75*
G03*
X141620766Y-132655016I-1455443J362883D01*
G01*
X143316827Y-129986050D02*
G75*
G03*
X143681014Y-130592159I485148J-120961D01*
G01*
X248650407Y-141279481D02*
X248926695Y-140628585D01*
X249961530Y-144524624D02*
X250612425Y-144800913D01*
X248926695Y-140628585D02*
X251708247Y-139504766D01*
X250612425Y-144800913D02*
X252930384Y-143864396D01*
X251708247Y-139504766D02*
X252359142Y-139781054D01*
X252733749Y-140708238D02*
X252359142Y-139781054D01*
X254883070Y-144693262D02*
X255145295Y-145342291D01*
X255145295Y-145342291D02*
X259317622Y-143656561D01*
X257556971Y-139298797D02*
X253384644Y-140984527D01*
X257781735Y-139855107D02*
X257556971Y-139298797D01*
X259317622Y-143656561D02*
X259130319Y-143192969D01*
X254883070Y-144693262D02*
G75*
G03*
X252930384Y-143864396I-1390776J-561910D01*
G01*
X252733748Y-140708238D02*
G75*
G03*
X253384644Y-140984527I463592J187303D01*
G01*
X155682162Y-145041103D02*
X156317705Y-144731127D01*
X154542673Y-148350418D02*
X154852648Y-148985961D01*
X156317705Y-144731127D02*
X159154261Y-145707832D01*
X154852648Y-148985961D02*
X157216445Y-149799881D01*
X159154261Y-145707832D02*
X159464236Y-146343375D01*
X159138668Y-147288894D02*
X159464236Y-146343375D01*
X158146370Y-151706512D02*
X157918473Y-152368375D01*
X157918473Y-152368375D02*
X162173306Y-153833431D01*
X163703477Y-149389494D02*
X159448643Y-147924437D01*
X163508136Y-149956805D02*
X163703477Y-149389494D01*
X162173306Y-153833431D02*
X162336090Y-153360672D01*
X158146371Y-151706512D02*
G75*
G03*
X157216445Y-149799881I-1418278J488353D01*
G01*
X159138669Y-147288894D02*
G75*
G03*
X159448643Y-147924436I472758J-162784D01*
G01*
X186682836Y-115222836D02*
X187333731Y-114946548D01*
X185371713Y-118467980D02*
X185648002Y-119118875D01*
X187333731Y-114946548D02*
X190115283Y-116070367D01*
X185648002Y-119118875D02*
X187965961Y-120055391D01*
X190115283Y-116070367D02*
X190391571Y-116721263D01*
X190016965Y-117648446D02*
X190391571Y-116721263D01*
X188794827Y-122008077D02*
X188532603Y-122657106D01*
X188532603Y-122657106D02*
X192704930Y-124342835D01*
X194465581Y-119985071D02*
X190293254Y-118299342D01*
X194240817Y-120541382D02*
X194465581Y-119985071D01*
X192704930Y-124342835D02*
X192892233Y-123879243D01*
X188794827Y-122008077D02*
G75*
G03*
X187965961Y-120055391I-1390776J561910D01*
G01*
X190016966Y-117648446D02*
G75*
G03*
X190293254Y-118299341I463591J-187304D01*
G01*
X180314522Y-130984961D02*
X180965417Y-130708673D01*
X179003399Y-134230105D02*
X179279688Y-134881000D01*
X180965417Y-130708673D02*
X183746969Y-131832492D01*
X179279688Y-134881000D02*
X181597647Y-135817516D01*
X183746969Y-131832492D02*
X184023257Y-132483388D01*
X183648651Y-133410571D02*
X184023257Y-132483388D01*
X182426513Y-137770202D02*
X182164289Y-138419231D01*
X182164289Y-138419231D02*
X186336616Y-140104960D01*
X188097267Y-135747196D02*
X183924940Y-134061467D01*
X187872503Y-136303507D02*
X188097267Y-135747196D01*
X186336616Y-140104960D02*
X186523919Y-139641368D01*
X182426513Y-137770202D02*
G75*
G03*
X181597647Y-135817516I-1390776J561910D01*
G01*
X183648652Y-133410571D02*
G75*
G03*
X183924940Y-134061466I463591J-187304D01*
G01*
X275398427Y-116721263D02*
X275674715Y-116070367D01*
X276709550Y-119966406D02*
X277360445Y-120242695D01*
X275674715Y-116070367D02*
X278456267Y-114946548D01*
X277360445Y-120242695D02*
X279678404Y-119306178D01*
X278456267Y-114946548D02*
X279107162Y-115222836D01*
X279481769Y-116150020D02*
X279107162Y-115222836D01*
X281631090Y-120135044D02*
X281893315Y-120784073D01*
X281893315Y-120784073D02*
X286065642Y-119098343D01*
X284304991Y-114740579D02*
X280132664Y-116426309D01*
X284529755Y-115296889D02*
X284304991Y-114740579D01*
X286065642Y-119098343D02*
X285878339Y-118634751D01*
X281631090Y-120135044D02*
G75*
G03*
X279678404Y-119306178I-1390776J-561910D01*
G01*
X279481768Y-116150020D02*
G75*
G03*
X280132664Y-116426309I463592J187303D01*
G01*
X281766743Y-132483388D02*
X282043031Y-131832492D01*
X283077866Y-135728531D02*
X283728761Y-136004820D01*
X282043031Y-131832492D02*
X284824583Y-130708673D01*
X283728761Y-136004820D02*
X286046720Y-135068303D01*
X284824583Y-130708673D02*
X285475478Y-130984961D01*
X285850085Y-131912145D02*
X285475478Y-130984961D01*
X287999406Y-135897169D02*
X288261631Y-136546198D01*
X288261631Y-136546198D02*
X292433958Y-134860468D01*
X290673307Y-130502704D02*
X286500980Y-132188434D01*
X290898071Y-131059014D02*
X290673307Y-130502704D01*
X292433958Y-134860468D02*
X292246655Y-134396876D01*
X287999406Y-135897169D02*
G75*
G03*
X286046720Y-135068303I-1390776J-561910D01*
G01*
X285850084Y-131912145D02*
G75*
G03*
X286500980Y-132188434I463592J187303D01*
G01*
X212262731Y-191756261D02*
X212935229Y-191537753D01*
X210673764Y-194874784D02*
X210892272Y-195547282D01*
X212935229Y-191537753D02*
X215608249Y-192899724D01*
X210892272Y-195547282D02*
X213119788Y-196682258D01*
X215608249Y-192899724D02*
X215826757Y-193572223D01*
X215372766Y-194463229D02*
X215826757Y-193572223D01*
X213775312Y-198699754D02*
X213457519Y-199323458D01*
X213457519Y-199323458D02*
X217467048Y-201366416D01*
X219600804Y-197178685D02*
X215591274Y-195135728D01*
X219328409Y-197713289D02*
X219600804Y-197178685D01*
X217467048Y-201366416D02*
X217694044Y-200920912D01*
X213775312Y-198699754D02*
G75*
G03*
X213119788Y-196682259I-1336509J680986D01*
G01*
X215372767Y-194463229D02*
G75*
G03*
X215591274Y-195135728I445503J-226996D01*
G01*
X194484577Y-141293805D02*
X195135472Y-141017517D01*
X193173454Y-144538949D02*
X193449743Y-145189844D01*
X195135472Y-141017517D02*
X197917024Y-142141336D01*
X193449743Y-145189844D02*
X195767702Y-146126360D01*
X197917024Y-142141336D02*
X198193312Y-142792232D01*
X197818706Y-143719415D02*
X198193312Y-142792232D01*
X196596568Y-148079046D02*
X196334344Y-148728075D01*
X196334344Y-148728075D02*
X200506671Y-150413804D01*
X202267322Y-146056040D02*
X198094995Y-144370311D01*
X202042558Y-146612351D02*
X202267322Y-146056040D01*
X200506671Y-150413804D02*
X200693974Y-149950212D01*
X196596568Y-148079046D02*
G75*
G03*
X195767702Y-146126360I-1390776J561910D01*
G01*
X197818707Y-143719415D02*
G75*
G03*
X198094995Y-144370310I463591J-187304D01*
G01*
X288135049Y-148245512D02*
X288411337Y-147594616D01*
X289446172Y-151490655D02*
X290097067Y-151766944D01*
X288411337Y-147594616D02*
X291192889Y-146470797D01*
X290097067Y-151766944D02*
X292415026Y-150830427D01*
X291192889Y-146470797D02*
X291843784Y-146747085D01*
X292218391Y-147674269D02*
X291843784Y-146747085D01*
X294367712Y-151659293D02*
X294629937Y-152308322D01*
X294629937Y-152308322D02*
X298802264Y-150622592D01*
X297041613Y-146264828D02*
X292869286Y-147950558D01*
X297266377Y-146821138D02*
X297041613Y-146264828D01*
X298802264Y-150622592D02*
X298614961Y-150159000D01*
X294367712Y-151659293D02*
G75*
G03*
X292415026Y-150830427I-1390776J-561910D01*
G01*
X292218390Y-147674269D02*
G75*
G03*
X292869286Y-147950558I463592J187303D01*
G01*
X322231249Y-129015758D02*
X322595436Y-128409649D01*
X323077976Y-132411793D02*
X323684084Y-132775980D01*
X322595436Y-128409649D02*
X325506323Y-127683883D01*
X323684084Y-132775980D02*
X326109824Y-132171175D01*
X325506323Y-127683883D02*
X326112432Y-128048070D01*
X326354354Y-129018366D02*
X326112432Y-128048070D01*
X327928150Y-133263736D02*
X328097495Y-133942943D01*
X328097495Y-133942943D02*
X332463826Y-132854294D01*
X331326793Y-128293904D02*
X326960463Y-129382553D01*
X331471946Y-128876082D02*
X331326793Y-128293904D01*
X332463826Y-132854294D02*
X332342865Y-132369146D01*
X327928151Y-133263736D02*
G75*
G03*
X326109824Y-132171175I-1455444J-362883D01*
G01*
X326354354Y-129018366D02*
G75*
G03*
X326960463Y-129382553I485148J120961D01*
G01*
X273965005Y-158554358D02*
X274241293Y-157903462D01*
X275276128Y-161799501D02*
X275927023Y-162075790D01*
X274241293Y-157903462D02*
X277022845Y-156779643D01*
X275927023Y-162075790D02*
X278244982Y-161139273D01*
X277022845Y-156779643D02*
X277673740Y-157055931D01*
X278048347Y-157983115D02*
X277673740Y-157055931D01*
X280197668Y-161968139D02*
X280459893Y-162617168D01*
X280459893Y-162617168D02*
X284632220Y-160931438D01*
X282871569Y-156573674D02*
X278699242Y-158259404D01*
X283096333Y-157129984D02*
X282871569Y-156573674D01*
X284632220Y-160931438D02*
X284444917Y-160467846D01*
X280197668Y-161968139D02*
G75*
G03*
X278244982Y-161139273I-1390776J-561910D01*
G01*
X278048346Y-157983115D02*
G75*
G03*
X278699242Y-158259404I463592J187303D01*
G01*
X173946211Y-146747086D02*
X174597106Y-146470798D01*
X172635088Y-149992230D02*
X172911377Y-150643125D01*
X174597106Y-146470798D02*
X177378658Y-147594617D01*
X172911377Y-150643125D02*
X175229336Y-151579641D01*
X177378658Y-147594617D02*
X177654946Y-148245513D01*
X177280340Y-149172696D02*
X177654946Y-148245513D01*
X176058202Y-153532327D02*
X175795978Y-154181356D01*
X175795978Y-154181356D02*
X179968305Y-155867085D01*
X181728956Y-151509321D02*
X177556629Y-149823592D01*
X181504192Y-152065632D02*
X181728956Y-151509321D01*
X179968305Y-155867085D02*
X180155608Y-155403493D01*
X176058202Y-153532327D02*
G75*
G03*
X175229336Y-151579641I-1390776J561910D01*
G01*
X177280341Y-149172696D02*
G75*
G03*
X177556629Y-149823591I463591J-187304D01*
G01*
X200852885Y-125531681D02*
X201503780Y-125255393D01*
X199541762Y-128776825D02*
X199818051Y-129427720D01*
X201503780Y-125255393D02*
X204285332Y-126379212D01*
X199818051Y-129427720D02*
X202136010Y-130364236D01*
X204285332Y-126379212D02*
X204561620Y-127030108D01*
X204187014Y-127957291D02*
X204561620Y-127030108D01*
X202964876Y-132316922D02*
X202702652Y-132965951D01*
X202702652Y-132965951D02*
X206874979Y-134651680D01*
X208635630Y-130293916D02*
X204463303Y-128608187D01*
X208410866Y-130850227D02*
X208635630Y-130293916D01*
X206874979Y-134651680D02*
X207062282Y-134188088D01*
X202964876Y-132316922D02*
G75*
G03*
X202136010Y-130364236I-1390776J561910D01*
G01*
X204187015Y-127957291D02*
G75*
G03*
X204463303Y-128608186I463591J-187304D01*
G01*
X135564894Y-144543097D02*
X136171003Y-144178910D01*
X134718168Y-147939132D02*
X135082354Y-148545241D01*
X136171003Y-144178910D02*
X139081890Y-144904676D01*
X135082354Y-148545241D02*
X137508094Y-149150046D01*
X139081890Y-144904676D02*
X139446077Y-145510785D01*
X139204155Y-146481080D02*
X139446077Y-145510785D01*
X138600654Y-150968372D02*
X138431309Y-151647579D01*
X138431309Y-151647579D02*
X142797640Y-152736228D01*
X143934673Y-148175838D02*
X139568342Y-147087189D01*
X143789520Y-148758015D02*
X143934673Y-148175838D01*
X142797640Y-152736228D02*
X142918601Y-152251080D01*
X138600654Y-150968372D02*
G75*
G03*
X137508094Y-149150046I-1455443J362883D01*
G01*
X139204155Y-146481080D02*
G75*
G03*
X139568342Y-147087189I485148J-120961D01*
G01*
X295256447Y-114195743D02*
X295566422Y-113560200D01*
X296395936Y-117505058D02*
X297031479Y-117815034D01*
X295566422Y-113560200D02*
X298402978Y-112583495D01*
X297031479Y-117815034D02*
X299395275Y-117001113D01*
X298402978Y-112583495D02*
X299038521Y-112893471D01*
X299364090Y-113838989D02*
X299038521Y-112893471D01*
X301301905Y-117931039D02*
X301529803Y-118592902D01*
X301529803Y-118592902D02*
X305784637Y-117127845D01*
X304254466Y-112683908D02*
X299999633Y-114148964D01*
X304449807Y-113251219D02*
X304254466Y-112683908D01*
X305784637Y-117127845D02*
X305621853Y-116655086D01*
X301301906Y-117931039D02*
G75*
G03*
X299395275Y-117001113I-1418278J-488352D01*
G01*
X299364091Y-113838989D02*
G75*
G03*
X299999633Y-114148963I472758J162784D01*
G01*
X261228377Y-127030106D02*
X261504665Y-126379210D01*
X262539500Y-130275249D02*
X263190395Y-130551538D01*
X261504665Y-126379210D02*
X264286217Y-125255391D01*
X263190395Y-130551538D02*
X265508354Y-129615021D01*
X264286217Y-125255391D02*
X264937112Y-125531679D01*
X265311719Y-126458863D02*
X264937112Y-125531679D01*
X267461040Y-130443887D02*
X267723265Y-131092916D01*
X267723265Y-131092916D02*
X271895592Y-129407186D01*
X270134941Y-125049422D02*
X265962614Y-126735152D01*
X270359705Y-125605732D02*
X270134941Y-125049422D01*
X271895592Y-129407186D02*
X271708289Y-128943594D01*
X267461040Y-130443887D02*
G75*
G03*
X265508354Y-129615021I-1390776J-561910D01*
G01*
X265311718Y-126458863D02*
G75*
G03*
X265962614Y-126735152I463592J187303D01*
G01*
X166751478Y-112893472D02*
X167387021Y-112583496D01*
X165611989Y-116202787D02*
X165921964Y-116838330D01*
X167387021Y-112583496D02*
X170223577Y-113560201D01*
X165921964Y-116838330D02*
X168285761Y-117652250D01*
X170223577Y-113560201D02*
X170533552Y-114195744D01*
X170207984Y-115141263D02*
X170533552Y-114195744D01*
X169215686Y-119558881D02*
X168987789Y-120220744D01*
X168987789Y-120220744D02*
X173242622Y-121685800D01*
X174772793Y-117241863D02*
X170517959Y-115776806D01*
X174577452Y-117809174D02*
X174772793Y-117241863D01*
X173242622Y-121685800D02*
X173405406Y-121213041D01*
X169215687Y-119558881D02*
G75*
G03*
X168285761Y-117652250I-1418278J488353D01*
G01*
X170207985Y-115141263D02*
G75*
G03*
X170517959Y-115776805I472758J-162784D01*
G01*
X207062543Y-155543175D02*
X207713438Y-155266887D01*
X205751420Y-158788319D02*
X206027709Y-159439214D01*
X207713438Y-155266887D02*
X210494990Y-156390706D01*
X206027709Y-159439214D02*
X208345668Y-160375730D01*
X210494990Y-156390706D02*
X210771278Y-157041602D01*
X210396672Y-157968785D02*
X210771278Y-157041602D01*
X209174534Y-162328416D02*
X208912310Y-162977445D01*
X208912310Y-162977445D02*
X213084637Y-164663174D01*
X214845288Y-160305410D02*
X210672961Y-158619681D01*
X214620524Y-160861721D02*
X214845288Y-160305410D01*
X213084637Y-164663174D02*
X213271940Y-164199582D01*
X209174534Y-162328416D02*
G75*
G03*
X208345668Y-160375730I-1390776J561910D01*
G01*
X210396673Y-157968785D02*
G75*
G03*
X210672961Y-158619680I463591J-187304D01*
G01*
D11*
X224800001Y-161949582D03*
X224800001Y-164489582D03*
X224800001Y-167029582D03*
X224800001Y-169569582D03*
X224800001Y-172109582D03*
X224800001Y-174649582D03*
X224800001Y-177189582D03*
X240990001Y-177189582D03*
X240990001Y-174649582D03*
X240990001Y-172109582D03*
X240990001Y-169569582D03*
X240990001Y-167029582D03*
D12*
X240990001Y-164489582D03*
D11*
X240990001Y-161949582D03*
%LPC*%
D13*
X305523322Y-154763356D03*
D14*
X308786543Y-147346895D03*
D15*
X310723674Y-152972731D03*
D14*
X314230386Y-147799196D03*
D13*
X315924026Y-151182106D03*
D16*
X305689970Y-148413131D03*
X317326960Y-146732960D03*
D13*
X281406070Y-140933826D03*
D14*
X284276672Y-133356746D03*
D15*
X286505581Y-138873490D03*
D14*
X289736726Y-133523518D03*
D13*
X291605092Y-136813154D03*
D17*
X281240145Y-134583583D03*
X292773253Y-132296681D03*
D13*
X155400628Y-135108291D03*
D14*
X162538111Y-131273080D03*
D15*
X160600980Y-136898916D03*
D14*
X166549453Y-134981062D03*
D13*
X165801332Y-138689541D03*
D18*
X159441537Y-130206845D03*
X169646027Y-136047298D03*
D13*
X254658051Y-165492045D03*
D14*
X257528653Y-157914965D03*
D15*
X259757562Y-163431709D03*
D14*
X262988707Y-158081737D03*
D13*
X264857073Y-161371373D03*
D17*
X254492126Y-159141802D03*
X266025234Y-156854900D03*
D13*
X287774376Y-156695950D03*
D14*
X290644978Y-149118870D03*
D15*
X292873887Y-154635614D03*
D14*
X296105032Y-149285642D03*
D13*
X297973398Y-152575278D03*
D17*
X287608451Y-150345707D03*
X299141559Y-148058805D03*
D13*
X130306061Y-151167648D03*
D14*
X137082122Y-146724958D03*
D15*
X135642687Y-152498218D03*
D14*
X141401373Y-150069219D03*
D13*
X140979313Y-153828788D03*
D19*
X133904404Y-145932664D03*
X144579091Y-150861513D03*
D13*
X275037754Y-125171701D03*
D14*
X277908356Y-117594621D03*
D15*
X280137265Y-123111365D03*
D14*
X283368410Y-117761393D03*
D13*
X285236776Y-121051029D03*
D17*
X274871829Y-118821458D03*
X286404937Y-116534556D03*
D13*
X194723271Y-131359874D03*
D14*
X202051691Y-127903466D03*
D15*
X199822782Y-133420210D03*
D14*
X205863476Y-131816304D03*
D13*
X204922293Y-135480546D03*
D20*
X199015164Y-126676629D03*
X208900003Y-133043140D03*
D13*
X324810688Y-153828790D03*
D14*
X328707879Y-146724960D03*
D15*
X330147314Y-152498220D03*
D14*
X334091586Y-147650002D03*
D13*
X335483940Y-151167650D03*
D21*
X325530160Y-147517255D03*
X337269304Y-146857707D03*
D13*
X134418733Y-134672618D03*
D14*
X141194794Y-130229928D03*
D15*
X139755359Y-136003188D03*
D14*
X145514045Y-133574189D03*
D13*
X145091985Y-137333758D03*
D19*
X138017076Y-129437634D03*
X148691763Y-134366483D03*
D13*
X320698013Y-137333761D03*
D14*
X324595204Y-130229931D03*
D15*
X326034639Y-136003191D03*
D14*
X329978911Y-131154973D03*
D13*
X331371265Y-134672621D03*
D21*
X321417485Y-131022226D03*
X333156629Y-130362678D03*
D22*
X196990225Y-173799369D03*
D13*
X174184908Y-136813154D03*
D14*
X181513328Y-133356746D03*
D15*
X179284419Y-138873490D03*
D14*
X185325113Y-137269584D03*
D13*
X184383930Y-140933826D03*
D20*
X178476801Y-132129909D03*
X188361640Y-138496420D03*
D13*
X273604332Y-167004796D03*
D14*
X276474934Y-159427716D03*
D15*
X278703843Y-164944460D03*
D14*
X281934988Y-159594488D03*
D13*
X283803354Y-162884124D03*
D17*
X273438407Y-160654553D03*
X284971515Y-158367651D03*
D13*
X266270850Y-194234743D03*
D14*
X269141452Y-186657663D03*
D15*
X271370361Y-192174407D03*
D14*
X274601506Y-186824435D03*
D13*
X276469872Y-190114071D03*
D17*
X266104925Y-187884500D03*
X277638033Y-185597598D03*
D13*
X160935288Y-119034476D03*
D14*
X168072771Y-115199265D03*
D15*
X166135640Y-120825101D03*
D14*
X172084113Y-118907247D03*
D13*
X171335992Y-122615726D03*
D18*
X164976197Y-114133030D03*
X175180687Y-119973483D03*
D13*
X189320125Y-190114071D03*
D14*
X196648545Y-186657663D03*
D15*
X194419636Y-192174407D03*
D14*
X200460330Y-190570501D03*
D13*
X199519147Y-194234743D03*
D20*
X193612018Y-185430826D03*
X203496857Y-191797337D03*
D13*
X267236020Y-151242670D03*
D14*
X270106622Y-143665590D03*
D15*
X272335531Y-149182334D03*
D14*
X275566676Y-143832362D03*
D13*
X277435042Y-147121998D03*
D17*
X267070095Y-144892427D03*
X278603203Y-142605525D03*
D23*
X214496579Y-172513748D03*
D13*
X200932929Y-161371368D03*
D14*
X208261349Y-157914960D03*
D15*
X206032440Y-163431704D03*
D14*
X212073134Y-161827798D03*
D13*
X211131951Y-165492040D03*
D20*
X205224822Y-156688123D03*
X215109661Y-163054634D03*
D13*
X299988664Y-138689544D03*
D14*
X303251885Y-131273083D03*
D15*
X305189016Y-136898919D03*
D14*
X308695728Y-131725384D03*
D13*
X310389368Y-135108294D03*
D16*
X300155312Y-132339319D03*
X311792302Y-130659148D03*
D13*
X181986650Y-162884122D03*
D14*
X189315070Y-159427714D03*
D15*
X187086161Y-164944458D03*
D14*
X193126855Y-163340552D03*
D13*
X192185672Y-167004794D03*
D20*
X186278543Y-158200877D03*
X196163382Y-164567388D03*
D22*
X268799776Y-173799364D03*
D13*
X260867704Y-135480544D03*
D14*
X263738306Y-127903464D03*
D15*
X265967215Y-133420208D03*
D14*
X269198360Y-128070236D03*
D13*
X271066726Y-131359872D03*
D17*
X260701779Y-129130301D03*
X272234887Y-126843399D03*
D11*
X224800001Y-161949582D03*
X224800001Y-164489582D03*
X224800001Y-167029582D03*
X224800001Y-169569582D03*
X224800001Y-172109582D03*
X224800001Y-174649582D03*
X224800001Y-177189582D03*
X240990001Y-177189582D03*
X240990001Y-174649582D03*
X240990001Y-172109582D03*
X240990001Y-169569582D03*
X240990001Y-167029582D03*
D12*
X240990001Y-164489582D03*
D11*
X240990001Y-161949582D03*
D13*
X205648481Y-197028044D03*
D14*
X213250260Y-194223503D03*
D15*
X210549017Y-199524992D03*
D14*
X216706514Y-198453670D03*
D13*
X215449553Y-202021940D03*
D24*
X210332214Y-192736684D03*
X219624560Y-199940489D03*
D23*
X251293421Y-172513749D03*
D13*
X248289734Y-149729919D03*
D14*
X251160336Y-142152839D03*
D15*
X253389245Y-147669583D03*
D14*
X256620390Y-142319611D03*
D13*
X258488756Y-145609247D03*
D17*
X248123809Y-143379676D03*
X259656917Y-141092774D03*
D13*
X250340443Y-202021937D03*
D14*
X252539736Y-194223500D03*
D15*
X255240979Y-199524989D03*
D14*
X257993547Y-193913762D03*
D13*
X260141515Y-197028041D03*
D25*
X249621689Y-195710319D03*
X260911594Y-192426943D03*
D13*
X188354963Y-147121998D03*
D14*
X195683383Y-143665590D03*
D15*
X193454474Y-149182334D03*
D14*
X199495168Y-147578428D03*
D13*
X198553985Y-151242670D03*
D20*
X192646856Y-142438753D03*
X202531695Y-148805264D03*
D13*
X180553222Y-121051029D03*
D14*
X187881642Y-117594621D03*
D15*
X185652733Y-123111365D03*
D14*
X191693427Y-121507459D03*
D13*
X190752244Y-125171701D03*
D20*
X184845115Y-116367784D03*
X194729954Y-122734295D03*
D13*
X149865972Y-151182107D03*
D14*
X157003455Y-147346896D03*
D15*
X155066324Y-152972732D03*
D14*
X161014797Y-151054878D03*
D13*
X160266676Y-154763357D03*
D18*
X153906881Y-146280661D03*
X164111371Y-152121114D03*
D13*
X207301243Y-145609249D03*
D14*
X214629663Y-142152841D03*
D15*
X212400754Y-147669585D03*
D14*
X218441448Y-146065679D03*
D13*
X217500265Y-149729921D03*
D20*
X211593136Y-140926004D03*
X221477975Y-147292515D03*
D13*
X294454007Y-122615725D03*
D14*
X297717228Y-115199264D03*
D15*
X299654359Y-120825100D03*
D14*
X303161071Y-115651565D03*
D13*
X304854711Y-119034475D03*
D16*
X294620655Y-116265500D03*
X306257645Y-114585329D03*
D13*
X167816597Y-152575279D03*
D14*
X175145017Y-149118871D03*
D15*
X172916108Y-154635615D03*
D14*
X178956802Y-153031709D03*
D13*
X178015619Y-156695951D03*
D20*
X172108490Y-147892034D03*
X181993329Y-154258545D03*
%LPD*%
M02*
