G04 #@! TF.GenerationSoftware,KiCad,Pcbnew,7.0.5-0*
G04 #@! TF.CreationDate,2023-07-18T22:32:37-04:00*
G04 #@! TF.ProjectId,tern,7465726e-2e6b-4696-9361-645f70636258,v1.0.0*
G04 #@! TF.SameCoordinates,Original*
G04 #@! TF.FileFunction,Paste,Top*
G04 #@! TF.FilePolarity,Positive*
%FSLAX46Y46*%
G04 Gerber Fmt 4.6, Leading zero omitted, Abs format (unit mm)*
G04 Created by KiCad (PCBNEW 7.0.5-0) date 2023-07-18 22:32:37*
%MOMM*%
%LPD*%
G01*
G04 APERTURE LIST*
G04 Aperture macros list*
%AMRotRect*
0 Rectangle, with rotation*
0 The origin of the aperture is its center*
0 $1 length*
0 $2 width*
0 $3 Rotation angle, in degrees counterclockwise*
0 Add horizontal line*
21,1,$1,$2,0,0,$3*%
G04 Aperture macros list end*
%ADD10RotRect,0.900000X1.200000X202.000000*%
%ADD11RotRect,0.900000X1.200000X158.000000*%
%ADD12RotRect,0.900000X1.200000X161.000000*%
%ADD13RotRect,0.900000X1.200000X199.000000*%
%ADD14RotRect,0.900000X1.200000X207.000000*%
%ADD15RotRect,0.900000X1.200000X166.000000*%
%ADD16RotRect,0.900000X1.200000X194.000000*%
%ADD17RotRect,0.900000X1.200000X153.000000*%
G04 APERTURE END LIST*
D10*
X269257717Y-137159868D03*
X266198011Y-138396070D03*
D11*
X185421934Y-128087231D03*
X182362228Y-126851029D03*
D10*
X283427767Y-126851029D03*
X280368061Y-128087231D03*
D12*
X155096261Y-157953858D03*
X151976049Y-156879484D03*
D11*
X199591986Y-138396074D03*
X196532280Y-137159872D03*
D13*
X313813953Y-156879483D03*
X310693741Y-157953857D03*
D11*
X205801643Y-168407572D03*
X202741937Y-167171370D03*
X194188837Y-197150272D03*
X191129131Y-195914070D03*
X186855358Y-169920327D03*
X183795652Y-168684125D03*
D14*
X258844899Y-202963639D03*
X255904577Y-204461807D03*
D15*
X136106643Y-157457782D03*
X132904667Y-156659440D03*
D16*
X332885336Y-156659441D03*
X329683360Y-157457783D03*
D10*
X256679755Y-151409248D03*
X253620049Y-152645450D03*
X296164392Y-158375276D03*
X293104686Y-159611478D03*
D12*
X166165575Y-125806222D03*
X163045363Y-124731848D03*
D16*
X328772666Y-140164413D03*
X325570690Y-140962755D03*
D11*
X193223673Y-154158197D03*
X190163967Y-152921995D03*
D10*
X275626034Y-152921998D03*
X272566328Y-154158200D03*
D11*
X179053624Y-143849354D03*
X175993918Y-142613152D03*
D15*
X140219314Y-140962752D03*
X137017338Y-140164410D03*
D13*
X302744636Y-124731854D03*
X299624424Y-125806228D03*
D10*
X281994345Y-168684120D03*
X278934639Y-169920322D03*
D11*
X172685307Y-159611479D03*
X169625601Y-158375277D03*
D10*
X263048063Y-167171373D03*
X259988357Y-168407575D03*
D12*
X160630918Y-141880041D03*
X157510706Y-140805667D03*
D10*
X274660869Y-195914071D03*
X271601163Y-197150273D03*
D17*
X209885422Y-204461804D03*
X206945100Y-202963636D03*
D10*
X289796080Y-142613152D03*
X286736374Y-143849354D03*
D13*
X308279291Y-140805666D03*
X305159079Y-141880040D03*
D11*
X212169954Y-152645448D03*
X209110248Y-151409246D03*
M02*
