0
SECTION
2
HEADER
9
$INSUNITS
70
4
0
ENDSEC
0
SECTION
2
TABLES
0
TABLE
2
LTYPE
0
LTYPE
72
65
70
64
2
CONTINUOUS
3
______
73
0
40
0
0
ENDTAB
0
TABLE
2
LAYER
0
ENDTAB
0
ENDSEC
0
SECTION
2
ENTITIES
0
LINE
8
0
10
203.3112903
20
-147.2850744
11
230.0269249
21
-147.2850744
0
LINE
8
0
10
225.4065152
20
-185.077572
11
207.9317
21
-185.077572
0
LINE
8
0
10
203.3112903
20
-147.2850744
11
210.1691076
21
-130.3113809
0
LINE
8
0
10
160.0990733
20
-160.772907
11
172.6281448
21
-165.8349804
0
LINE
8
0
10
194.406982
20
-123.9430689
11
210.1691076
21
-130.3113809
0
LINE
8
0
10
223.1691076
20
-130.3113809
11
230.0269249
21
-147.2850744
0
LINE
8
0
10
260.7100704
20
-165.8349804
11
273.2391419
21
-160.772907
0
LINE
8
0
10
223.1691076
20
-130.3113809
11
238.9312332
21
-123.9430689
0
LINE
8
0
10
106.3854548
20
-148.9102415
11
127.2468129
21
-154.1115622
0
LINE
8
0
10
127.2468129
20
-154.1115622
11
128.3146613
21
-149.8286563
0
LINE
8
0
10
106.3854548
20
-148.9102415
11
115.6994477
21
-111.553856
0
LINE
8
0
10
115.6994477
20
-111.553856
11
136.053716
21
-116.628745
0
LINE
8
0
10
128.3146613
20
-149.8286563
11
160.0990733
21
-160.772907
0
LINE
8
0
10
136.053716
20
-116.628745
11
143.2452813
21
-95.7429229
0
LINE
8
0
10
143.2452813
20
-95.7429229
11
161.7084458
21
-102.1003003
0
LINE
8
0
10
181.8290126
20
-109.693694
11
183.4210906
21
-105.7531626
0
LINE
8
0
10
183.4210906
20
-105.7531626
11
163.4866377
21
-97.6991209
0
LINE
8
0
10
163.4866377
20
-97.6991209
11
161.7084458
21
-102.1003003
0
LINE
8
0
10
194.406982
20
-123.9430689
11
197.5911381
21
-116.062006
0
LINE
8
0
10
181.8290126
20
-109.693694
11
197.5911381
21
-116.062006
0
LINE
8
0
10
306.0914023
20
-154.1115622
11
326.9527604
21
-148.9102415
0
LINE
8
0
10
317.6387675
20
-111.553856
11
326.9527604
21
-148.9102415
0
LINE
8
0
10
305.0235539
20
-149.8286563
11
306.0914023
21
-154.1115622
0
LINE
8
0
10
297.2844992
20
-116.628745
11
317.6387675
21
-111.553856
0
LINE
8
0
10
273.2391419
20
-160.772907
11
305.0235539
21
-149.8286563
0
LINE
8
0
10
290.0929339
20
-95.7429229
11
297.2844992
21
-116.628745
0
LINE
8
0
10
271.6297694
20
-102.1003003
11
290.0929339
21
-95.7429229
0
LINE
8
0
10
271.6297694
20
-102.1003003
11
269.8515775
21
-97.6991209
0
LINE
8
0
10
269.8515775
20
-97.6991209
11
249.9171246
21
-105.7531626
0
LINE
8
0
10
249.9171246
20
-105.7531626
11
251.5092026
21
-109.693694
0
LINE
8
0
10
235.7470771
20
-116.062006
11
251.5092026
21
-109.693694
0
LINE
8
0
10
235.7470771
20
-116.062006
11
238.9312332
21
-123.9430689
0
LINE
8
0
10
164.1994965
20
-186.6966172
11
181.9567011
21
-193.8709935
0
LINE
8
0
10
164.1994965
20
-186.6966172
11
172.6281448
21
-165.8349804
0
LINE
8
0
10
181.9567011
20
-193.8709935
11
199.0210475
21
-202.5657122
0
LINE
8
0
10
199.0210475
20
-202.5657122
11
207.9317
21
-185.077572
0
LINE
8
0
10
251.3815141
20
-193.8709935
11
269.1387187
21
-186.6966172
0
LINE
8
0
10
260.7100704
20
-165.8349804
11
269.1387187
21
-186.6966172
0
LINE
8
0
10
234.3171677
20
-202.5657122
11
251.3815141
21
-193.8709935
0
LINE
8
0
10
225.4065152
20
-185.077572
11
234.3171677
21
-202.5657122
0
LINE
8
0
10
109.4159988
20
-147.0893069
11
125.4258783
21
-151.0810182
0
LINE
8
0
10
125.4258783
20
-151.0810182
11
129.4175896
21
-135.0711387
0
LINE
8
0
10
129.4175896
20
-135.0711387
11
113.4077101
21
-131.0794274
0
LINE
8
0
10
113.4077101
20
-131.0794274
11
109.4159988
21
-147.0893069
0
LINE
8
0
10
113.528671
20
-130.5942795
11
129.5385505
21
-134.5859908
0
LINE
8
0
10
129.5385505
20
-134.5859908
11
133.5302618
21
-118.5761113
0
LINE
8
0
10
133.5302618
20
-118.5761113
11
117.5203823
21
-114.5844
0
LINE
8
0
10
117.5203823
20
-114.5844
11
113.528671
21
-130.5942795
0
LINE
8
0
10
128.3539656
20
-146.6693278
11
143.9550221
21
-152.0412023
0
LINE
8
0
10
143.9550221
20
-152.0412023
11
149.3268966
21
-136.4401458
0
LINE
8
0
10
149.3268966
20
-136.4401458
11
133.7258401
21
-131.0682713
0
LINE
8
0
10
133.7258401
20
-131.0682713
11
128.3539656
21
-146.6693278
0
LINE
8
0
10
133.8886242
20
-130.595512
11
149.4896807
21
-135.9673865
0
LINE
8
0
10
149.4896807
20
-135.9673865
11
154.8615552
21
-120.36633
0
LINE
8
0
10
154.8615552
20
-120.36633
11
139.2604987
21
-114.9944555
0
LINE
8
0
10
139.2604987
20
-114.9944555
11
133.8886242
21
-130.595512
0
LINE
8
0
10
139.4232828
20
-114.5216962
11
155.0243393
21
-119.8935707
0
LINE
8
0
10
155.0243393
20
-119.8935707
11
160.3962138
21
-104.2925142
0
LINE
8
0
10
160.3962138
20
-104.2925142
11
144.7951573
21
-98.9206397
0
LINE
8
0
10
144.7951573
20
-98.9206397
11
139.4232828
21
-114.5216962
0
LINE
8
0
10
145.9504479
20
-147.7763817
11
161.2489815
21
-153.9573905
0
LINE
8
0
10
161.2489815
20
-153.9573905
11
167.4299903
21
-138.6588569
0
LINE
8
0
10
167.4299903
20
-138.6588569
11
152.1314567
21
-132.4778481
0
LINE
8
0
10
152.1314567
20
-132.4778481
11
145.9504479
21
-147.7763817
0
LINE
8
0
10
152.31876
20
-132.0142561
11
167.6172936
21
-138.1952649
0
LINE
8
0
10
167.6172936
20
-138.1952649
11
173.7983024
21
-122.8967313
0
LINE
8
0
10
173.7983024
20
-122.8967313
11
158.4997688
21
-116.7157225
0
LINE
8
0
10
158.4997688
20
-116.7157225
11
152.31876
21
-132.0142561
0
LINE
8
0
10
158.6870721
20
-116.2521306
11
173.9856057
21
-122.4331394
0
LINE
8
0
10
173.9856057
20
-122.4331394
11
180.1666145
21
-107.1346058
0
LINE
8
0
10
180.1666145
20
-107.1346058
11
164.8680809
21
-100.953597
0
LINE
8
0
10
164.8680809
20
-100.953597
11
158.6870721
21
-116.2521306
0
LINE
8
0
10
160.1204954
20
-158.0852252
11
175.419029
21
-164.266234
0
LINE
8
0
10
175.419029
20
-164.266234
11
181.6000378
21
-148.9677004
0
LINE
8
0
10
181.6000378
20
-148.9677004
11
166.3015042
21
-142.7866916
0
LINE
8
0
10
166.3015042
20
-142.7866916
11
160.1204954
21
-158.0852252
0
LINE
8
0
10
166.4888075
20
-142.3230996
11
181.7873411
21
-148.5041084
0
LINE
8
0
10
181.7873411
20
-148.5041084
11
187.9683499
21
-133.2055748
0
LINE
8
0
10
187.9683499
20
-133.2055748
11
172.6698163
21
-127.024566
0
LINE
8
0
10
172.6698163
20
-127.024566
11
166.4888075
21
-142.3230996
0
LINE
8
0
10
172.8571196
20
-126.560974
11
188.1556532
21
-132.7419828
0
LINE
8
0
10
188.1556532
20
-132.7419828
11
194.336662
21
-117.4434492
0
LINE
8
0
10
194.336662
20
-117.4434492
11
179.0381284
21
-111.2624404
0
LINE
8
0
10
179.0381284
20
-111.2624404
11
172.8571196
21
-126.560974
0
LINE
8
0
10
179.066777
20
-156.5724744
11
194.3653106
21
-162.7534832
0
LINE
8
0
10
194.3653106
20
-162.7534832
11
200.5463194
21
-147.4549496
0
LINE
8
0
10
200.5463194
20
-147.4549496
11
185.2477858
21
-141.2739408
0
LINE
8
0
10
185.2477858
20
-141.2739408
11
179.066777
21
-156.5724744
0
LINE
8
0
10
185.4350891
20
-140.8103489
11
200.7336227
21
-146.9913577
0
LINE
8
0
10
200.7336227
20
-146.9913577
11
206.9146315
21
-131.6928241
0
LINE
8
0
10
206.9146315
20
-131.6928241
11
191.6160979
21
-125.5118153
0
LINE
8
0
10
191.6160979
20
-125.5118153
11
185.4350891
21
-140.8103489
0
LINE
8
0
10
307.9123369
20
-151.0810182
11
323.9222164
21
-147.0893069
0
LINE
8
0
10
323.9222164
20
-147.0893069
11
319.9305051
21
-131.0794274
0
LINE
8
0
10
319.9305051
20
-131.0794274
11
303.9206256
21
-135.0711387
0
LINE
8
0
10
303.9206256
20
-135.0711387
11
307.9123369
21
-151.0810182
0
LINE
8
0
10
303.7996647
20
-134.5859908
11
319.8095442
21
-130.5942795
0
LINE
8
0
10
319.8095442
20
-130.5942795
11
315.8178329
21
-114.5844
0
LINE
8
0
10
315.8178329
20
-114.5844
11
299.8079534
21
-118.5761113
0
LINE
8
0
10
299.8079534
20
-118.5761113
11
303.7996647
21
-134.5859908
0
LINE
8
0
10
289.3831931
20
-152.0412023
11
304.9842496
21
-146.6693278
0
LINE
8
0
10
304.9842496
20
-146.6693278
11
299.6123751
21
-131.0682713
0
LINE
8
0
10
299.6123751
20
-131.0682713
11
284.0113186
21
-136.4401458
0
LINE
8
0
10
284.0113186
20
-136.4401458
11
289.3831931
21
-152.0412023
0
LINE
8
0
10
283.8485345
20
-135.9673865
11
299.449591
21
-130.595512
0
LINE
8
0
10
299.449591
20
-130.595512
11
294.0777165
21
-114.9944555
0
LINE
8
0
10
294.0777165
20
-114.9944555
11
278.47666
21
-120.36633
0
LINE
8
0
10
278.47666
20
-120.36633
11
283.8485345
21
-135.9673865
0
LINE
8
0
10
278.3138759
20
-119.8935707
11
293.9149324
21
-114.5216962
0
LINE
8
0
10
293.9149324
20
-114.5216962
11
288.5430579
21
-98.9206397
0
LINE
8
0
10
288.5430579
20
-98.9206397
11
272.9420014
21
-104.2925142
0
LINE
8
0
10
272.9420014
20
-104.2925142
11
278.3138759
21
-119.8935707
0
LINE
8
0
10
272.0892337
20
-153.9573905
11
287.3877673
21
-147.7763817
0
LINE
8
0
10
287.3877673
20
-147.7763817
11
281.2067585
21
-132.4778481
0
LINE
8
0
10
281.2067585
20
-132.4778481
11
265.9082249
21
-138.6588569
0
LINE
8
0
10
265.9082249
20
-138.6588569
11
272.0892337
21
-153.9573905
0
LINE
8
0
10
265.7209216
20
-138.1952649
11
281.0194552
21
-132.0142561
0
LINE
8
0
10
281.0194552
20
-132.0142561
11
274.8384464
21
-116.7157225
0
LINE
8
0
10
274.8384464
20
-116.7157225
11
259.5399128
21
-122.8967313
0
LINE
8
0
10
259.5399128
20
-122.8967313
11
265.7209216
21
-138.1952649
0
LINE
8
0
10
259.3526095
20
-122.4331394
11
274.6511431
21
-116.2521306
0
LINE
8
0
10
274.6511431
20
-116.2521306
11
268.4701343
21
-100.953597
0
LINE
8
0
10
268.4701343
20
-100.953597
11
253.1716007
21
-107.1346058
0
LINE
8
0
10
253.1716007
20
-107.1346058
11
259.3526095
21
-122.4331394
0
LINE
8
0
10
257.9191862
20
-164.266234
11
273.2177198
21
-158.0852252
0
LINE
8
0
10
273.2177198
20
-158.0852252
11
267.036711
21
-142.7866916
0
LINE
8
0
10
267.036711
20
-142.7866916
11
251.7381774
21
-148.9677004
0
LINE
8
0
10
251.7381774
20
-148.9677004
11
257.9191862
21
-164.266234
0
LINE
8
0
10
251.5508741
20
-148.5041084
11
266.8494077
21
-142.3230996
0
LINE
8
0
10
266.8494077
20
-142.3230996
11
260.6683989
21
-127.024566
0
LINE
8
0
10
260.6683989
20
-127.024566
11
245.3698653
21
-133.2055748
0
LINE
8
0
10
245.3698653
20
-133.2055748
11
251.5508741
21
-148.5041084
0
LINE
8
0
10
245.182562
20
-132.7419828
11
260.4810956
21
-126.560974
0
LINE
8
0
10
260.4810956
20
-126.560974
11
254.3000868
21
-111.2624404
0
LINE
8
0
10
254.3000868
20
-111.2624404
11
239.0015532
21
-117.4434492
0
LINE
8
0
10
239.0015532
20
-117.4434492
11
245.182562
21
-132.7419828
0
LINE
8
0
10
238.9729046
20
-162.7534832
11
254.2714382
21
-156.5724744
0
LINE
8
0
10
254.2714382
20
-156.5724744
11
248.0904294
21
-141.2739408
0
LINE
8
0
10
248.0904294
20
-141.2739408
11
232.7918958
21
-147.4549496
0
LINE
8
0
10
232.7918958
20
-147.4549496
11
238.9729046
21
-162.7534832
0
LINE
8
0
10
232.6045925
20
-146.9913577
11
247.9031261
21
-140.8103489
0
LINE
8
0
10
247.9031261
20
-140.8103489
11
241.7221173
21
-125.5118153
0
LINE
8
0
10
241.7221173
20
-125.5118153
11
226.4235837
21
-131.6928241
0
LINE
8
0
10
226.4235837
20
-131.6928241
11
232.6045925
21
-146.9913577
0
LINE
8
0
10
167.4539726
20
-185.315174
11
182.7525062
21
-191.4961828
0
LINE
8
0
10
182.7525062
20
-191.4961828
11
188.933515
21
-176.1976492
0
LINE
8
0
10
188.933515
20
-176.1976492
11
173.6349814
21
-170.0166404
0
LINE
8
0
10
173.6349814
20
-170.0166404
11
167.4539726
21
-185.315174
0
LINE
8
0
10
183.2268998
20
-191.7123764
11
197.9285074
21
-199.2032196
0
LINE
8
0
10
197.9285074
20
-199.2032196
11
205.4193506
21
-184.501612
0
LINE
8
0
10
205.4193506
20
-184.501612
11
190.717743
21
-177.0107688
0
LINE
8
0
10
190.717743
20
-177.0107688
11
183.2268998
21
-191.7123764
0
LINE
8
0
10
250.585709
20
-191.4961828
11
265.8842426
21
-185.315174
0
LINE
8
0
10
265.8842426
20
-185.315174
11
259.7032338
21
-170.0166404
0
LINE
8
0
10
259.7032338
20
-170.0166404
11
244.4047002
21
-176.1976492
0
LINE
8
0
10
244.4047002
20
-176.1976492
11
250.585709
21
-191.4961828
0
LINE
8
0
10
235.4097078
20
-199.2032196
11
250.1113154
21
-191.7123764
0
LINE
8
0
10
250.1113154
20
-191.7123764
11
242.6204722
21
-177.0107688
0
LINE
8
0
10
242.6204722
20
-177.0107688
11
227.9188646
21
-184.501612
0
LINE
8
0
10
227.9188646
20
-184.501612
11
235.4097078
21
-199.2032196
0
LINE
8
0
10
207.9191076
20
-168.1515865
11
225.4191076
21
-168.1515865
0
LINE
8
0
10
225.4191076
20
-168.1515865
11
225.4191076
21
-148.1515865
0
LINE
8
0
10
225.4191076
20
-148.1515865
11
207.9191076
21
-148.1515865
0
LINE
8
0
10
207.9191076
20
-148.1515865
11
207.9191076
21
-168.1515865
0
CIRCLE
8
0
10
180.7643351
20
-162.3813724
40
1
0
CIRCLE
8
0
10
252.5738801
20
-162.3813724
40
1
0
CIRCLE
8
0
10
198.2706819
20
-161.0957514
40
1.6
0
CIRCLE
8
0
10
235.0675333
20
-161.0957514
40
1.6
0
LINE
8
0
10
195.4844641
20
-161.3182147
11
201.103563
21
-147.4104569
0
LINE
8
0
10
201.103563
20
-147.4104569
11
232.2346522
21
-147.4104569
0
LINE
8
0
10
232.2346522
20
-147.4104569
11
237.8537511
21
-161.3182147
0
LINE
8
0
10
237.8537511
20
-161.3182147
11
232.2346522
21
-175.2259726
0
LINE
8
0
10
232.2346522
20
-175.2259726
11
201.103563
21
-175.2259726
0
LINE
8
0
10
201.103563
20
-175.2259726
11
195.4844641
21
-161.3182147
0
CIRCLE
8
0
10
198.2706819
20
-161.0957514
40
1
0
CIRCLE
8
0
10
235.0675333
20
-161.0957514
40
1
0
ENDSEC
0
EOF