0
SECTION
2
HEADER
9
$INSUNITS
70
4
0
ENDSEC
0
SECTION
2
TABLES
0
TABLE
2
LTYPE
0
LTYPE
72
65
70
64
2
CONTINUOUS
3
______
73
0
40
0
0
ENDTAB
0
TABLE
2
LAYER
0
ENDTAB
0
ENDSEC
0
SECTION
2
ENTITIES
0
LINE
8
0
10
203.3112903
20
-147.2850744
11
230.0269249
21
-147.2850744
0
LINE
8
0
10
225.4065152
20
-185.077572
11
207.9317
21
-185.077572
0
LINE
8
0
10
203.3112903
20
-147.2850744
11
210.1691076
21
-130.3113809
0
LINE
8
0
10
160.0990733
20
-160.772907
11
172.6281448
21
-165.8349804
0
LINE
8
0
10
194.406982
20
-123.9430689
11
210.1691076
21
-130.3113809
0
LINE
8
0
10
223.1691076
20
-130.3113809
11
230.0269249
21
-147.2850744
0
LINE
8
0
10
260.7100704
20
-165.8349804
11
273.2391419
21
-160.772907
0
LINE
8
0
10
223.1691076
20
-130.3113809
11
238.9312332
21
-123.9430689
0
LINE
8
0
10
106.3854548
20
-148.9102415
11
127.2468129
21
-154.1115622
0
LINE
8
0
10
127.2468129
20
-154.1115622
11
128.3146613
21
-149.8286563
0
LINE
8
0
10
106.3854548
20
-148.9102415
11
115.6994477
21
-111.553856
0
LINE
8
0
10
115.6994477
20
-111.553856
11
136.053716
21
-116.628745
0
LINE
8
0
10
128.3146613
20
-149.8286563
11
160.0990733
21
-160.772907
0
LINE
8
0
10
136.053716
20
-116.628745
11
143.2452813
21
-95.7429229
0
LINE
8
0
10
143.2452813
20
-95.7429229
11
161.7084458
21
-102.1003003
0
LINE
8
0
10
181.8290126
20
-109.693694
11
183.4210906
21
-105.7531626
0
LINE
8
0
10
183.4210906
20
-105.7531626
11
163.4866377
21
-97.6991209
0
LINE
8
0
10
163.4866377
20
-97.6991209
11
161.7084458
21
-102.1003003
0
LINE
8
0
10
194.406982
20
-123.9430689
11
197.5911381
21
-116.062006
0
LINE
8
0
10
181.8290126
20
-109.693694
11
197.5911381
21
-116.062006
0
LINE
8
0
10
306.0914023
20
-154.1115622
11
326.9527604
21
-148.9102415
0
LINE
8
0
10
317.6387675
20
-111.553856
11
326.9527604
21
-148.9102415
0
LINE
8
0
10
305.0235539
20
-149.8286563
11
306.0914023
21
-154.1115622
0
LINE
8
0
10
297.2844992
20
-116.628745
11
317.6387675
21
-111.553856
0
LINE
8
0
10
273.2391419
20
-160.772907
11
305.0235539
21
-149.8286563
0
LINE
8
0
10
290.0929339
20
-95.7429229
11
297.2844992
21
-116.628745
0
LINE
8
0
10
271.6297694
20
-102.1003003
11
290.0929339
21
-95.7429229
0
LINE
8
0
10
271.6297694
20
-102.1003003
11
269.8515775
21
-97.6991209
0
LINE
8
0
10
269.8515775
20
-97.6991209
11
249.9171246
21
-105.7531626
0
LINE
8
0
10
249.9171246
20
-105.7531626
11
251.5092026
21
-109.693694
0
LINE
8
0
10
235.7470771
20
-116.062006
11
251.5092026
21
-109.693694
0
LINE
8
0
10
235.7470771
20
-116.062006
11
238.9312332
21
-123.9430689
0
LINE
8
0
10
164.1994965
20
-186.6966172
11
181.9567011
21
-193.8709935
0
LINE
8
0
10
164.1994965
20
-186.6966172
11
172.6281448
21
-165.8349804
0
LINE
8
0
10
181.9567011
20
-193.8709935
11
199.0210475
21
-202.5657122
0
LINE
8
0
10
199.0210475
20
-202.5657122
11
207.9317
21
-185.077572
0
LINE
8
0
10
251.3815141
20
-193.8709935
11
269.1387187
21
-186.6966172
0
LINE
8
0
10
260.7100704
20
-165.8349804
11
269.1387187
21
-186.6966172
0
LINE
8
0
10
234.3171677
20
-202.5657122
11
251.3815141
21
-193.8709935
0
LINE
8
0
10
225.4065152
20
-185.077572
11
234.3171677
21
-202.5657122
0
LINE
8
0
10
111.0236418
20
-146.1233375
11
124.4599089
21
-149.4733752
0
LINE
8
0
10
124.4599089
20
-149.4733752
11
127.8099466
21
-136.0371081
0
LINE
8
0
10
127.8099466
20
-136.0371081
11
114.3736795
21
-132.6870704
0
LINE
8
0
10
114.3736795
20
-132.6870704
11
111.0236418
21
-146.1233375
0
LINE
8
0
10
115.136314
20
-129.6283101
11
128.5725811
21
-132.9783478
0
LINE
8
0
10
128.5725811
20
-132.9783478
11
131.9226188
21
-119.5420807
0
LINE
8
0
10
131.9226188
20
-119.5420807
11
118.4863517
21
-116.192043
0
LINE
8
0
10
118.4863517
20
-116.192043
11
115.136314
21
-129.6283101
0
LINE
8
0
10
130.0396808
20
-145.8471495
11
143.1328438
21
-150.3554871
0
LINE
8
0
10
143.1328438
20
-150.3554871
11
147.6411814
21
-137.2623241
0
LINE
8
0
10
147.6411814
20
-137.2623241
11
134.5480184
21
-132.7539865
0
LINE
8
0
10
134.5480184
20
-132.7539865
11
130.0396808
21
-145.8471495
0
LINE
8
0
10
135.5743394
20
-129.7733337
11
148.6675024
21
-134.2816713
0
LINE
8
0
10
148.6675024
20
-134.2816713
11
153.17584
21
-121.1885083
0
LINE
8
0
10
153.17584
20
-121.1885083
11
140.082677
21
-116.6801707
0
LINE
8
0
10
140.082677
20
-116.6801707
11
135.5743394
21
-129.7733337
0
LINE
8
0
10
141.108998
20
-113.6995179
11
154.202161
21
-118.2078555
0
LINE
8
0
10
154.202161
20
-118.2078555
11
158.7104986
21
-105.1146925
0
LINE
8
0
10
158.7104986
20
-105.1146925
11
145.6173356
21
-100.6063549
0
LINE
8
0
10
145.6173356
20
-100.6063549
11
141.108998
21
-113.6995179
0
LINE
8
0
10
147.6768824
20
-147.0435537
11
160.5161535
21
-152.230956
0
LINE
8
0
10
160.5161535
20
-152.230956
11
165.7035558
21
-139.3916849
0
LINE
8
0
10
165.7035558
20
-139.3916849
11
152.8642847
21
-134.2042826
0
LINE
8
0
10
152.8642847
20
-134.2042826
11
147.6768824
21
-147.0435537
0
LINE
8
0
10
154.0451945
20
-131.2814281
11
166.8844656
21
-136.4688304
0
LINE
8
0
10
166.8844656
20
-136.4688304
11
172.0718679
21
-123.6295593
0
LINE
8
0
10
172.0718679
20
-123.6295593
11
159.2325968
21
-118.442157
0
LINE
8
0
10
159.2325968
20
-118.442157
11
154.0451945
21
-131.2814281
0
LINE
8
0
10
160.4135066
20
-115.5193026
11
173.2527777
21
-120.7067049
0
LINE
8
0
10
173.2527777
20
-120.7067049
11
178.44018
21
-107.8674338
0
LINE
8
0
10
178.44018
20
-107.8674338
11
165.6009089
21
-102.6800315
0
LINE
8
0
10
165.6009089
20
-102.6800315
11
160.4135066
21
-115.5193026
0
LINE
8
0
10
161.8469299
20
-157.3523972
11
174.686201
21
-162.5397995
0
LINE
8
0
10
174.686201
20
-162.5397995
11
179.8736033
21
-149.7005284
0
LINE
8
0
10
179.8736033
20
-149.7005284
11
167.0343322
21
-144.5131261
0
LINE
8
0
10
167.0343322
20
-144.5131261
11
161.8469299
21
-157.3523972
0
LINE
8
0
10
168.215242
20
-141.5902716
11
181.0545131
21
-146.7776739
0
LINE
8
0
10
181.0545131
20
-146.7776739
11
186.2419154
21
-133.9384028
0
LINE
8
0
10
186.2419154
20
-133.9384028
11
173.4026443
21
-128.7510005
0
LINE
8
0
10
173.4026443
20
-128.7510005
11
168.215242
21
-141.5902716
0
LINE
8
0
10
174.5835541
20
-125.828146
11
187.4228252
21
-131.0155483
0
LINE
8
0
10
187.4228252
20
-131.0155483
11
192.6102275
21
-118.1762772
0
LINE
8
0
10
192.6102275
20
-118.1762772
11
179.7709564
21
-112.9888749
0
LINE
8
0
10
179.7709564
20
-112.9888749
11
174.5835541
21
-125.828146
0
LINE
8
0
10
180.7932115
20
-155.8396464
11
193.6324826
21
-161.0270487
0
LINE
8
0
10
193.6324826
20
-161.0270487
11
198.8198849
21
-148.1877776
0
LINE
8
0
10
198.8198849
20
-148.1877776
11
185.9806138
21
-143.0003753
0
LINE
8
0
10
185.9806138
20
-143.0003753
11
180.7932115
21
-155.8396464
0
LINE
8
0
10
187.1615236
20
-140.0775209
11
200.0007947
21
-145.2649232
0
LINE
8
0
10
200.0007947
20
-145.2649232
11
205.188197
21
-132.4256521
0
LINE
8
0
10
205.188197
20
-132.4256521
11
192.3489259
21
-127.2382498
0
LINE
8
0
10
192.3489259
20
-127.2382498
11
187.1615236
21
-140.0775209
0
LINE
8
0
10
308.8783063
20
-149.4733752
11
322.3145734
21
-146.1233375
0
LINE
8
0
10
322.3145734
20
-146.1233375
11
318.9645357
21
-132.6870704
0
LINE
8
0
10
318.9645357
20
-132.6870704
11
305.5282686
21
-136.0371081
0
LINE
8
0
10
305.5282686
20
-136.0371081
11
308.8783063
21
-149.4733752
0
LINE
8
0
10
304.7656341
20
-132.9783478
11
318.2019012
21
-129.6283101
0
LINE
8
0
10
318.2019012
20
-129.6283101
11
314.8518635
21
-116.192043
0
LINE
8
0
10
314.8518635
20
-116.192043
11
301.4155964
21
-119.5420807
0
LINE
8
0
10
301.4155964
20
-119.5420807
11
304.7656341
21
-132.9783478
0
LINE
8
0
10
290.2053714
20
-150.3554871
11
303.2985344
21
-145.8471495
0
LINE
8
0
10
303.2985344
20
-145.8471495
11
298.7901968
21
-132.7539865
0
LINE
8
0
10
298.7901968
20
-132.7539865
11
285.6970338
21
-137.2623241
0
LINE
8
0
10
285.6970338
20
-137.2623241
11
290.2053714
21
-150.3554871
0
LINE
8
0
10
284.6707128
20
-134.2816713
11
297.7638758
21
-129.7733337
0
LINE
8
0
10
297.7638758
20
-129.7733337
11
293.2555382
21
-116.6801707
0
LINE
8
0
10
293.2555382
20
-116.6801707
11
280.1623752
21
-121.1885083
0
LINE
8
0
10
280.1623752
20
-121.1885083
11
284.6707128
21
-134.2816713
0
LINE
8
0
10
279.1360542
20
-118.2078555
11
292.2292172
21
-113.6995179
0
LINE
8
0
10
292.2292172
20
-113.6995179
11
287.7208796
21
-100.6063549
0
LINE
8
0
10
287.7208796
20
-100.6063549
11
274.6277166
21
-105.1146925
0
LINE
8
0
10
274.6277166
20
-105.1146925
11
279.1360542
21
-118.2078555
0
LINE
8
0
10
272.8220617
20
-152.230956
11
285.6613328
21
-147.0435537
0
LINE
8
0
10
285.6613328
20
-147.0435537
11
280.4739305
21
-134.2042826
0
LINE
8
0
10
280.4739305
20
-134.2042826
11
267.6346594
21
-139.3916849
0
LINE
8
0
10
267.6346594
20
-139.3916849
11
272.8220617
21
-152.230956
0
LINE
8
0
10
266.4537496
20
-136.4688304
11
279.2930207
21
-131.2814281
0
LINE
8
0
10
279.2930207
20
-131.2814281
11
274.1056184
21
-118.442157
0
LINE
8
0
10
274.1056184
20
-118.442157
11
261.2663473
21
-123.6295593
0
LINE
8
0
10
261.2663473
20
-123.6295593
11
266.4537496
21
-136.4688304
0
LINE
8
0
10
260.0854375
20
-120.7067049
11
272.9247086
21
-115.5193026
0
LINE
8
0
10
272.9247086
20
-115.5193026
11
267.7373063
21
-102.6800315
0
LINE
8
0
10
267.7373063
20
-102.6800315
11
254.8980352
21
-107.8674338
0
LINE
8
0
10
254.8980352
20
-107.8674338
11
260.0854375
21
-120.7067049
0
LINE
8
0
10
258.6520142
20
-162.5397995
11
271.4912853
21
-157.3523972
0
LINE
8
0
10
271.4912853
20
-157.3523972
11
266.303883
21
-144.5131261
0
LINE
8
0
10
266.303883
20
-144.5131261
11
253.4646119
21
-149.7005284
0
LINE
8
0
10
253.4646119
20
-149.7005284
11
258.6520142
21
-162.5397995
0
LINE
8
0
10
252.2837021
20
-146.7776739
11
265.1229732
21
-141.5902716
0
LINE
8
0
10
265.1229732
20
-141.5902716
11
259.9355709
21
-128.7510005
0
LINE
8
0
10
259.9355709
20
-128.7510005
11
247.0962998
21
-133.9384028
0
LINE
8
0
10
247.0962998
20
-133.9384028
11
252.2837021
21
-146.7776739
0
LINE
8
0
10
245.91539
20
-131.0155483
11
258.7546611
21
-125.828146
0
LINE
8
0
10
258.7546611
20
-125.828146
11
253.5672588
21
-112.9888749
0
LINE
8
0
10
253.5672588
20
-112.9888749
11
240.7279877
21
-118.1762772
0
LINE
8
0
10
240.7279877
20
-118.1762772
11
245.91539
21
-131.0155483
0
LINE
8
0
10
239.7057326
20
-161.0270487
11
252.5450037
21
-155.8396464
0
LINE
8
0
10
252.5450037
20
-155.8396464
11
247.3576014
21
-143.0003753
0
LINE
8
0
10
247.3576014
20
-143.0003753
11
234.5183303
21
-148.1877776
0
LINE
8
0
10
234.5183303
20
-148.1877776
11
239.7057326
21
-161.0270487
0
LINE
8
0
10
233.3374205
20
-145.2649232
11
246.1766916
21
-140.0775209
0
LINE
8
0
10
246.1766916
20
-140.0775209
11
240.9892893
21
-127.2382498
0
LINE
8
0
10
240.9892893
20
-127.2382498
11
228.1500182
21
-132.4256521
0
LINE
8
0
10
228.1500182
20
-132.4256521
11
233.3374205
21
-145.2649232
0
LINE
8
0
10
169.1804071
20
-184.582346
11
182.0196782
21
-189.7697483
0
LINE
8
0
10
182.0196782
20
-189.7697483
11
187.2070805
21
-176.9304772
0
LINE
8
0
10
187.2070805
20
-176.9304772
11
174.3678094
21
-171.7430749
0
LINE
8
0
10
174.3678094
20
-171.7430749
11
169.1804071
21
-184.582346
0
LINE
8
0
10
185.0106348
20
-191.1328058
11
197.3489368
21
-197.4194846
0
LINE
8
0
10
197.3489368
20
-197.4194846
11
203.6356156
21
-185.0811826
0
LINE
8
0
10
203.6356156
20
-185.0811826
11
191.2973136
21
-178.7945038
0
LINE
8
0
10
191.2973136
20
-178.7945038
11
185.0106348
21
-191.1328058
0
LINE
8
0
10
251.318537
20
-189.7697483
11
264.1578081
21
-184.582346
0
LINE
8
0
10
264.1578081
20
-184.582346
11
258.9704058
21
-171.7430749
0
LINE
8
0
10
258.9704058
20
-171.7430749
11
246.1311347
21
-176.9304772
0
LINE
8
0
10
246.1311347
20
-176.9304772
11
251.318537
21
-189.7697483
0
LINE
8
0
10
235.9892784
20
-197.4194846
11
248.3275804
21
-191.1328058
0
LINE
8
0
10
248.3275804
20
-191.1328058
11
242.0409016
21
-178.7945038
0
LINE
8
0
10
242.0409016
20
-178.7945038
11
229.7025996
21
-185.0811826
0
LINE
8
0
10
229.7025996
20
-185.0811826
11
235.9892784
21
-197.4194846
0
LINE
8
0
10
207.9191076
20
-168.1515865
11
225.4191076
21
-168.1515865
0
LINE
8
0
10
225.4191076
20
-168.1515865
11
225.4191076
21
-148.1515865
0
LINE
8
0
10
225.4191076
20
-148.1515865
11
207.9191076
21
-148.1515865
0
LINE
8
0
10
207.9191076
20
-148.1515865
11
207.9191076
21
-168.1515865
0
CIRCLE
8
0
10
180.7643351
20
-162.3813724
40
1
0
CIRCLE
8
0
10
252.5738801
20
-162.3813724
40
1
0
CIRCLE
8
0
10
198.2706819
20
-161.0957514
40
1.6
0
CIRCLE
8
0
10
235.0675333
20
-161.0957514
40
1.6
0
ENDSEC
0
EOF