0
SECTION
2
HEADER
9
$INSUNITS
70
4
0
ENDSEC
0
SECTION
2
TABLES
0
TABLE
2
LTYPE
0
LTYPE
72
65
70
64
2
CONTINUOUS
3
______
73
0
40
0
0
ENDTAB
0
TABLE
2
LAYER
0
ENDTAB
0
ENDSEC
0
SECTION
2
ENTITIES
0
LINE
8
0
10
203.3112903
20
-147.2850744
11
230.0269249
21
-147.2850744
0
LINE
8
0
10
225.4065152
20
-185.077572
11
207.9317
21
-185.077572
0
LINE
8
0
10
203.3112903
20
-147.2850744
11
210.1691076
21
-130.3113809
0
LINE
8
0
10
160.0990733
20
-160.772907
11
172.6281448
21
-165.8349804
0
LINE
8
0
10
194.406982
20
-123.9430689
11
210.1691076
21
-130.3113809
0
LINE
8
0
10
223.1691076
20
-130.3113809
11
230.0269249
21
-147.2850744
0
LINE
8
0
10
260.7100704
20
-165.8349804
11
273.2391419
21
-160.772907
0
LINE
8
0
10
223.1691076
20
-130.3113809
11
238.9312332
21
-123.9430689
0
LINE
8
0
10
106.3854548
20
-148.9102415
11
127.2468129
21
-154.1115622
0
LINE
8
0
10
127.2468129
20
-154.1115622
11
128.3146613
21
-149.8286563
0
LINE
8
0
10
106.3854548
20
-148.9102415
11
115.6994477
21
-111.553856
0
LINE
8
0
10
115.6994477
20
-111.553856
11
136.053716
21
-116.628745
0
LINE
8
0
10
128.3146613
20
-149.8286563
11
160.0990733
21
-160.772907
0
LINE
8
0
10
136.053716
20
-116.628745
11
143.2452813
21
-95.7429229
0
LINE
8
0
10
143.2452813
20
-95.7429229
11
161.7084458
21
-102.1003003
0
LINE
8
0
10
181.8290126
20
-109.693694
11
183.4210906
21
-105.7531626
0
LINE
8
0
10
183.4210906
20
-105.7531626
11
163.4866377
21
-97.6991209
0
LINE
8
0
10
163.4866377
20
-97.6991209
11
161.7084458
21
-102.1003003
0
LINE
8
0
10
194.406982
20
-123.9430689
11
197.5911381
21
-116.062006
0
LINE
8
0
10
181.8290126
20
-109.693694
11
197.5911381
21
-116.062006
0
LINE
8
0
10
306.0914023
20
-154.1115622
11
326.9527604
21
-148.9102415
0
LINE
8
0
10
317.6387675
20
-111.553856
11
326.9527604
21
-148.9102415
0
LINE
8
0
10
305.0235539
20
-149.8286563
11
306.0914023
21
-154.1115622
0
LINE
8
0
10
297.2844992
20
-116.628745
11
317.6387675
21
-111.553856
0
LINE
8
0
10
273.2391419
20
-160.772907
11
305.0235539
21
-149.8286563
0
LINE
8
0
10
290.0929339
20
-95.7429229
11
297.2844992
21
-116.628745
0
LINE
8
0
10
271.6297694
20
-102.1003003
11
290.0929339
21
-95.7429229
0
LINE
8
0
10
271.6297694
20
-102.1003003
11
269.8515775
21
-97.6991209
0
LINE
8
0
10
269.8515775
20
-97.6991209
11
249.9171246
21
-105.7531626
0
LINE
8
0
10
249.9171246
20
-105.7531626
11
251.5092026
21
-109.693694
0
LINE
8
0
10
235.7470771
20
-116.062006
11
251.5092026
21
-109.693694
0
LINE
8
0
10
235.7470771
20
-116.062006
11
238.9312332
21
-123.9430689
0
LINE
8
0
10
164.1994965
20
-186.6966172
11
181.9567011
21
-193.8709935
0
LINE
8
0
10
164.1994965
20
-186.6966172
11
172.6281448
21
-165.8349804
0
LINE
8
0
10
181.9567011
20
-193.8709935
11
199.0210475
21
-202.5657122
0
LINE
8
0
10
199.0210475
20
-202.5657122
11
207.9317
21
-185.077572
0
LINE
8
0
10
251.3815141
20
-193.8709935
11
269.1387187
21
-186.6966172
0
LINE
8
0
10
260.7100704
20
-165.8349804
11
269.1387187
21
-186.6966172
0
LINE
8
0
10
234.3171677
20
-202.5657122
11
251.3815141
21
-193.8709935
0
LINE
8
0
10
225.4065152
20
-185.077572
11
234.3171677
21
-202.5657122
0
ENDSEC
0
EOF