0
SECTION
2
HEADER
9
$INSUNITS
70
4
0
ENDSEC
0
SECTION
2
TABLES
0
TABLE
2
LTYPE
0
LTYPE
72
65
70
64
2
CONTINUOUS
3
______
73
0
40
0
0
ENDTAB
0
TABLE
2
LAYER
0
ENDTAB
0
ENDSEC
0
SECTION
2
ENTITIES
0
LINE
8
0
10
204.0525707
20
-147.2850744
11
206.9191076
21
-147.2850744
0
LINE
8
0
10
226.4191076
20
-147.2850744
11
229.2856445
21
-147.2850744
0
LINE
8
0
10
225.1001148
20
-185.077572
11
208.2381004
21
-185.077572
0
LINE
8
0
10
203.5889788
20
-146.5977711
11
209.9818043
21
-130.7749728
0
LINE
8
0
10
160.1112137
20
-160.777812
11
172.1645529
21
-165.6476771
0
LINE
8
0
10
194.8705739
20
-124.1303721
11
209.7055157
21
-130.1240776
0
LINE
8
0
10
223.3564109
20
-130.7749728
11
229.7492364
21
-146.5977711
0
LINE
8
0
10
261.1736623
20
-165.6476771
11
273.2270015
21
-160.777812
0
LINE
8
0
10
223.6326995
20
-130.1240776
11
238.4676413
21
-124.1303721
0
LINE
8
0
10
106.8706027
20
-149.0312025
11
126.761665
21
-153.9906012
0
LINE
8
0
10
127.3677739
20
-153.6264143
11
128.1826556
21
-150.3581023
0
LINE
8
0
10
106.5064158
20
-148.4250936
11
115.5784867
21
-112.0390039
0
LINE
8
0
10
116.1845956
20
-111.674817
11
135.6091599
21
-116.5179047
0
LINE
8
0
10
128.8305876
20
-150.0063039
11
160.0866945
21
-160.7686446
0
LINE
8
0
10
136.2028802
20
-116.1955409
11
143.0824972
21
-96.2156822
0
LINE
8
0
10
143.7180406
20
-95.905707
11
161.259814
21
-101.945824
0
LINE
8
0
10
182.0163159
20
-109.2301021
11
183.2337873
21
-106.2167545
0
LINE
8
0
10
182.9574987
20
-105.5658593
11
163.9502296
21
-97.8864242
0
LINE
8
0
10
163.2993344
20
-98.1627128
11
161.88619
21
-101.6603679
0
LINE
8
0
10
194.5942853
20
-123.479477
11
197.4038348
21
-116.5255979
0
LINE
8
0
10
182.2926045
20
-109.8809973
11
197.1275462
21
-115.8747027
0
LINE
8
0
10
306.5765502
20
-153.9906012
11
326.4676125
21
-149.0312025
0
LINE
8
0
10
317.7597285
20
-112.0390039
11
326.8317994
21
-148.4250936
0
LINE
8
0
10
305.1555596
20
-150.3581023
11
305.9704413
21
-153.6264143
0
LINE
8
0
10
297.7290553
20
-116.5179047
11
317.1536196
21
-111.674817
0
LINE
8
0
10
273.2515207
20
-160.7686446
11
304.5076276
21
-150.0063039
0
LINE
8
0
10
290.255718
20
-96.2156822
11
297.135335
21
-116.1955409
0
LINE
8
0
10
272.0784012
20
-101.945824
11
289.6201746
21
-95.905707
0
LINE
8
0
10
271.4520252
20
-101.6603679
11
270.0388808
21
-98.1627128
0
LINE
8
0
10
269.3879856
20
-97.8864242
11
250.3807165
21
-105.5658593
0
LINE
8
0
10
250.1044279
20
-106.2167545
11
251.3218993
21
-109.2301021
0
LINE
8
0
10
236.210669
20
-115.8747027
11
251.0456107
21
-109.8809973
0
LINE
8
0
10
235.9343804
20
-116.5255979
11
238.7439299
21
-123.479477
0
LINE
8
0
10
164.6630884
20
-186.8839205
11
181.9364599
21
-193.8628155
0
LINE
8
0
10
164.3867998
20
-186.2330253
11
172.4408415
21
-166.2985723
0
LINE
8
0
10
181.9761519
20
-193.8809042
11
198.5755442
21
-202.3387169
0
LINE
8
0
10
199.2480428
20
-202.1202089
11
207.7925971
21
-185.3505767
0
LINE
8
0
10
251.4017553
20
-193.8628155
11
268.6751268
21
-186.8839205
0
LINE
8
0
10
260.8973737
20
-166.2985723
11
268.9514154
21
-186.2330253
0
LINE
8
0
10
234.762671
20
-202.3387169
11
251.3620633
21
-193.8809042
0
LINE
8
0
10
225.5456181
20
-185.3505767
11
234.0901724
21
-202.1202089
0
LINE
8
0
10
111.5087897
20
-146.2442985
11
123.974761
21
-149.3524142
0
LINE
8
0
10
124.5808699
20
-148.9882273
11
127.6889856
21
-136.522256
0
LINE
8
0
10
127.3247987
20
-135.9161471
11
114.8588274
21
-132.8080314
0
LINE
8
0
10
114.2527185
20
-133.1722183
11
111.1446028
21
-145.6381896
0
LINE
8
0
10
115.6214619
20
-129.7492711
11
128.0874332
21
-132.8573868
0
LINE
8
0
10
128.6935421
20
-132.4931999
11
131.8016578
21
-120.0272286
0
LINE
8
0
10
131.4374709
20
-119.4211197
11
118.9714996
21
-116.313004
0
LINE
8
0
10
118.3653907
20
-116.6771909
11
115.257275
21
-129.1431622
0
LINE
8
0
10
130.5124401
20
-146.0099336
11
142.6600845
21
-150.192703
0
LINE
8
0
10
143.2956279
20
-149.8827278
11
147.4783973
21
-137.7350834
0
LINE
8
0
10
147.1684221
20
-137.09954
11
135.0207777
21
-132.9167706
0
LINE
8
0
10
134.3852343
20
-133.2267458
11
130.2024649
21
-145.3743902
0
LINE
8
0
10
136.0470987
20
-129.9361178
11
148.1947431
21
-134.1188872
0
LINE
8
0
10
148.8302865
20
-133.808912
11
153.0130559
21
-121.6612676
0
LINE
8
0
10
152.7030807
20
-121.0257242
11
140.5554363
21
-116.8429548
0
LINE
8
0
10
139.9198929
20
-117.15293
11
135.7371235
21
-129.3005744
0
LINE
8
0
10
141.5817573
20
-113.862302
11
153.7294017
21
-118.0450714
0
LINE
8
0
10
154.3649451
20
-117.7350962
11
158.5477145
21
-105.5874518
0
LINE
8
0
10
158.2377393
20
-104.9519084
11
146.0900949
21
-100.769139
0
LINE
8
0
10
145.4545515
20
-101.0791142
11
141.2717821
21
-113.2267586
0
LINE
8
0
10
148.1404743
20
-147.230857
11
160.0525616
21
-152.0436527
0
LINE
8
0
10
160.7034568
20
-151.7673641
11
165.5162525
21
-139.8552768
0
LINE
8
0
10
165.2399639
20
-139.2043816
11
153.3278766
21
-134.3915859
0
LINE
8
0
10
152.6769814
20
-134.6678745
11
147.8641857
21
-146.5799618
0
LINE
8
0
10
154.5087864
20
-131.4687314
11
166.4208737
21
-136.2815271
0
LINE
8
0
10
167.0717689
20
-136.0052385
11
171.8845646
21
-124.0931512
0
LINE
8
0
10
171.608276
20
-123.442256
11
159.6961887
21
-118.6294603
0
LINE
8
0
10
159.0452935
20
-118.9057489
11
154.2324978
21
-130.8178362
0
LINE
8
0
10
160.8770985
20
-115.7066059
11
172.7891858
21
-120.5194016
0
LINE
8
0
10
173.440081
20
-120.243113
11
178.2528767
21
-108.3310257
0
LINE
8
0
10
177.9765881
20
-107.6801305
11
166.0645008
21
-102.8673348
0
LINE
8
0
10
165.4136056
20
-103.1436234
11
160.6008099
21
-115.0557107
0
LINE
8
0
10
162.3105218
20
-157.5397005
11
174.2226091
21
-162.3524962
0
LINE
8
0
10
174.8735043
20
-162.0762076
11
179.6863
21
-150.1641203
0
LINE
8
0
10
179.4100114
20
-149.5132251
11
167.4979241
21
-144.7004294
0
LINE
8
0
10
166.8470289
20
-144.976718
11
162.0342332
21
-156.8888053
0
LINE
8
0
10
168.6788339
20
-141.7775749
11
180.5909212
21
-146.5903706
0
LINE
8
0
10
181.2418164
20
-146.314082
11
186.0546121
21
-134.4019947
0
LINE
8
0
10
185.7783235
20
-133.7510995
11
173.8662362
21
-128.9383038
0
LINE
8
0
10
173.215341
20
-129.2145924
11
168.4025453
21
-141.1266797
0
LINE
8
0
10
175.047146
20
-126.0154493
11
186.9592333
21
-130.828245
0
LINE
8
0
10
187.6101285
20
-130.5519564
11
192.4229242
21
-118.6398691
0
LINE
8
0
10
192.1466356
20
-117.9889739
11
180.2345483
21
-113.1761782
0
LINE
8
0
10
179.5836531
20
-113.4524668
11
174.7708574
21
-125.3645541
0
LINE
8
0
10
181.2568034
20
-156.0269497
11
193.1688907
21
-160.8397454
0
LINE
8
0
10
193.8197859
20
-160.5634568
11
198.6325816
21
-148.6513695
0
LINE
8
0
10
198.356293
20
-148.0004743
11
186.4442057
21
-143.1876786
0
LINE
8
0
10
185.7933105
20
-143.4639672
11
180.9805148
21
-155.3760545
0
LINE
8
0
10
187.6251155
20
-140.2648242
11
199.5372028
21
-145.0776199
0
LINE
8
0
10
200.188098
20
-144.8013313
11
205.0008937
21
-132.889244
0
LINE
8
0
10
204.7246051
20
-132.2383488
11
192.8125178
21
-127.4255531
0
LINE
8
0
10
192.1616226
20
-127.7018417
11
187.3488269
21
-139.613929
0
LINE
8
0
10
309.3634542
20
-149.3524142
11
321.8294255
21
-146.2442985
0
LINE
8
0
10
322.1936124
20
-145.6381896
11
319.0854967
21
-133.1722183
0
LINE
8
0
10
318.4793878
20
-132.8080314
11
306.0134165
21
-135.9161471
0
LINE
8
0
10
305.6492296
20
-136.522256
11
308.7573453
21
-148.9882273
0
LINE
8
0
10
305.250782
20
-132.8573868
11
317.7167533
21
-129.7492711
0
LINE
8
0
10
318.0809402
20
-129.1431622
11
314.9728245
21
-116.6771909
0
LINE
8
0
10
314.3667156
20
-116.313004
11
301.9007443
21
-119.4211197
0
LINE
8
0
10
301.5365574
20
-120.0272286
11
304.6446731
21
-132.4931999
0
LINE
8
0
10
290.6781307
20
-150.192703
11
302.8257751
21
-146.0099336
0
LINE
8
0
10
303.1357503
20
-145.3743902
11
298.9529809
21
-133.2267458
0
LINE
8
0
10
298.3174375
20
-132.9167706
11
286.1697931
21
-137.09954
0
LINE
8
0
10
285.8598179
20
-137.7350834
11
290.0425873
21
-149.8827278
0
LINE
8
0
10
285.1434721
20
-134.1188872
11
297.2911165
21
-129.9361178
0
LINE
8
0
10
297.6010917
20
-129.3005744
11
293.4183223
21
-117.15293
0
LINE
8
0
10
292.7827789
20
-116.8429548
11
280.6351345
21
-121.0257242
0
LINE
8
0
10
280.3251593
20
-121.6612676
11
284.5079287
21
-133.808912
0
LINE
8
0
10
279.6088135
20
-118.0450714
11
291.7564579
21
-113.862302
0
LINE
8
0
10
292.0664331
20
-113.2267586
11
287.8836637
21
-101.0791142
0
LINE
8
0
10
287.2481203
20
-100.769139
11
275.1004759
21
-104.9519084
0
LINE
8
0
10
274.7905007
20
-105.5874518
11
278.9732701
21
-117.7350962
0
LINE
8
0
10
273.2856536
20
-152.0436527
11
285.1977409
21
-147.230857
0
LINE
8
0
10
285.4740295
20
-146.5799618
11
280.6612338
21
-134.6678745
0
LINE
8
0
10
280.0103386
20
-134.3915859
11
268.0982513
21
-139.2043816
0
LINE
8
0
10
267.8219627
20
-139.8552768
11
272.6347584
21
-151.7673641
0
LINE
8
0
10
266.9173415
20
-136.2815271
11
278.8294288
21
-131.4687314
0
LINE
8
0
10
279.1057174
20
-130.8178362
11
274.2929217
21
-118.9057489
0
LINE
8
0
10
273.6420265
20
-118.6294603
11
261.7299392
21
-123.442256
0
LINE
8
0
10
261.4536506
20
-124.0931512
11
266.2664463
21
-136.0052385
0
LINE
8
0
10
260.5490294
20
-120.5194016
11
272.4611167
21
-115.7066059
0
LINE
8
0
10
272.7374053
20
-115.0557107
11
267.9246096
21
-103.1436234
0
LINE
8
0
10
267.2737144
20
-102.8673348
11
255.3616271
21
-107.6801305
0
LINE
8
0
10
255.0853385
20
-108.3310257
11
259.8981342
21
-120.243113
0
LINE
8
0
10
259.1156061
20
-162.3524962
11
271.0276934
21
-157.5397005
0
LINE
8
0
10
271.303982
20
-156.8888053
11
266.4911863
21
-144.976718
0
LINE
8
0
10
265.8402911
20
-144.7004294
11
253.9282038
21
-149.5132251
0
LINE
8
0
10
253.6519152
20
-150.1641203
11
258.4647109
21
-162.0762076
0
LINE
8
0
10
252.747294
20
-146.5903706
11
264.6593813
21
-141.7775749
0
LINE
8
0
10
264.9356699
20
-141.1266797
11
260.1228742
21
-129.2145924
0
LINE
8
0
10
259.471979
20
-128.9383038
11
247.5598917
21
-133.7510995
0
LINE
8
0
10
247.2836031
20
-134.4019947
11
252.0963988
21
-146.314082
0
LINE
8
0
10
246.3789819
20
-130.828245
11
258.2910692
21
-126.0154493
0
LINE
8
0
10
258.5673578
20
-125.3645541
11
253.7545621
21
-113.4524668
0
LINE
8
0
10
253.1036669
20
-113.1761782
11
241.1915796
21
-117.9889739
0
LINE
8
0
10
240.915291
20
-118.6398691
11
245.7280867
21
-130.5519564
0
LINE
8
0
10
240.1693245
20
-160.8397454
11
252.0814118
21
-156.0269497
0
LINE
8
0
10
252.3577004
20
-155.3760545
11
247.5449047
21
-143.4639672
0
LINE
8
0
10
246.8940095
20
-143.1876786
11
234.9819222
21
-148.0004743
0
LINE
8
0
10
234.7056336
20
-148.6513695
11
239.5184293
21
-160.5634568
0
LINE
8
0
10
233.8010124
20
-145.0776199
11
245.7130997
21
-140.2648242
0
LINE
8
0
10
245.9893883
20
-139.613929
11
241.1765926
21
-127.7018417
0
LINE
8
0
10
240.5256974
20
-127.4255531
11
228.6136101
21
-132.2383488
0
LINE
8
0
10
228.3373215
20
-132.889244
11
233.1501172
21
-144.8013313
0
LINE
8
0
10
169.643999
20
-184.7696493
11
181.5560863
21
-189.582445
0
LINE
8
0
10
182.2069815
20
-189.3061564
11
187.0197772
21
-177.3940691
0
LINE
8
0
10
186.7434886
20
-176.7431739
11
174.8314013
21
-171.9303782
0
LINE
8
0
10
174.1805061
20
-172.2066668
11
169.3677104
21
-184.1187541
0
LINE
8
0
10
185.4561381
20
-191.359801
11
196.9034335
21
-197.1924893
0
LINE
8
0
10
197.575932
20
-196.9739813
11
203.4086203
21
-185.5266859
0
LINE
8
0
10
203.1901123
20
-184.8541874
11
191.7428169
21
-179.0214991
0
LINE
8
0
10
191.0703184
20
-179.2400071
11
185.2376301
21
-190.6873025
0
LINE
8
0
10
251.7821289
20
-189.582445
11
263.6942162
21
-184.7696493
0
LINE
8
0
10
263.9705048
20
-184.1187541
11
259.1577091
21
-172.2066668
0
LINE
8
0
10
258.5068139
20
-171.9303782
11
246.5947266
21
-176.7431739
0
LINE
8
0
10
246.318438
20
-177.3940691
11
251.1312337
21
-189.3061564
0
LINE
8
0
10
236.4347817
20
-197.1924893
11
247.8820771
21
-191.359801
0
LINE
8
0
10
248.1005851
20
-190.6873025
11
242.2678968
21
-179.2400071
0
LINE
8
0
10
241.5953983
20
-179.0214991
11
230.1481029
21
-184.8541874
0
LINE
8
0
10
229.9295949
20
-185.5266859
11
235.7622832
21
-196.9739813
0
ARC
8
0
10
229.2856445
20
-146.7850744
40
0.5
50
270
51
21.9999994
0
ARC
8
0
10
223.8200028
20
-130.5876695
40
0.5
50
111.9999994
51
201.9999994
0
ARC
8
0
10
238.280338
20
-123.6667802
40
0.5
50
291.9999994
51
21.9999994
0
ARC
8
0
10
236.3979723
20
-116.3382946
40
0.5
50
111.9999994
51
201.9999994
0
ARC
8
0
10
250.8583074
20
-109.4174054
40
0.5
50
291.9999994
51
21.9999994
0
ARC
8
0
10
250.5680198
20
-106.0294512
40
0.5
50
111.9999994
51
201.9999994
0
ARC
8
0
10
269.5752889
20
-98.3500161
40
0.5
50
21.9999994
51
111.9999994
0
ARC
8
0
10
271.9156171
20
-101.4730647
40
0.5
50
201.9999994
51
289.000002
0
ARC
8
0
10
289.7829587
20
-96.3784663
40
0.5
50
19.000002
51
109.000002
0
ARC
8
0
10
297.6080943
20
-116.0327568
40
0.5
50
199.000002
51
284.0000006
0
ARC
8
0
10
317.2745806
20
-112.1599648
40
0.5
50
14.0000006
51
104.0000006
0
ARC
8
0
10
326.3466516
20
-148.5460546
40
0.5
50
284.0000006
51
14.0000006
0
ARC
8
0
10
306.4555892
20
-153.5054534
40
0.5
50
194.0000006
51
284.0000006
0
ARC
8
0
10
304.6704117
20
-150.4790632
40
0.5
50
14.0000006
51
109.000002
0
ARC
8
0
10
273.4143048
20
-161.2414039
40
0.5
50
109.000002
51
111.9999994
0
ARC
8
0
10
261.3609656
20
-166.111269
40
0.5
50
111.9999994
51
201.9999994
0
ARC
8
0
10
268.4878235
20
-186.4203286
40
0.5
50
291.9999994
51
21.9999994
0
ARC
8
0
10
251.5890586
20
-194.3264074
40
0.5
50
111.9999994
51
117.0000006
0
ARC
8
0
10
234.5356757
20
-201.8932137
40
0.5
50
207.0000006
51
297.0000006
0
ARC
8
0
10
225.1001148
20
-185.577572
40
0.5
50
27.0000006
51
90
0
ARC
8
0
10
208.2381004
20
-185.577572
40
0.5
50
90
51
152.9999994
0
ARC
8
0
10
198.8025395
20
-201.8932137
40
0.5
50
242.9999994
51
332.9999994
0
ARC
8
0
10
181.7491566
20
-194.3264074
40
0.5
50
62.9999994
51
68.0000006
0
ARC
8
0
10
164.8503917
20
-186.4203286
40
0.5
50
158.0000006
51
248.0000006
0
ARC
8
0
10
171.9772496
20
-166.111269
40
0.5
50
338.0000006
51
68.0000006
0
ARC
8
0
10
159.9239104
20
-161.2414039
40
0.5
50
68.0000006
51
70.999998
0
ARC
8
0
10
128.6678035
20
-150.4790632
40
0.5
50
70.999998
51
165.9999994
0
ARC
8
0
10
126.882626
20
-153.5054534
40
0.5
50
255.9999994
51
345.9999994
0
ARC
8
0
10
106.9915636
20
-148.5460546
40
0.5
50
165.9999994
51
255.9999994
0
ARC
8
0
10
116.0636346
20
-112.1599648
40
0.5
50
75.9999994
51
165.9999994
0
ARC
8
0
10
135.7301209
20
-116.0327568
40
0.5
50
255.9999994
51
340.999998
0
ARC
8
0
10
143.5552565
20
-96.3784663
40
0.5
50
70.999998
51
160.999998
0
ARC
8
0
10
161.4225981
20
-101.4730647
40
0.5
50
250.999998
51
338.0000006
0
ARC
8
0
10
163.7629263
20
-98.3500161
40
0.5
50
68.0000006
51
158.0000006
0
ARC
8
0
10
182.7701954
20
-106.0294512
40
0.5
50
338.0000006
51
68.0000006
0
ARC
8
0
10
182.4799078
20
-109.4174054
40
0.5
50
158.0000006
51
248.0000006
0
ARC
8
0
10
196.9402429
20
-116.3382946
40
0.5
50
338.0000006
51
68.0000006
0
ARC
8
0
10
195.0578772
20
-123.6667802
40
0.5
50
158.0000006
51
248.0000006
0
ARC
8
0
10
209.5182124
20
-130.5876695
40
0.5
50
338.0000006
51
68.0000006
0
ARC
8
0
10
204.0525707
20
-146.7850744
40
0.5
50
158.0000006
51
270
0
ARC
8
0
10
197.1304288
20
-196.7469861
40
0.5
50
242.9999994
51
332.9999994
0
ARC
8
0
10
202.9631171
20
-185.2996906
40
0.5
50
332.9999994
51
62.9999994
0
ARC
8
0
10
191.5158216
20
-179.4670023
40
0.5
50
62.9999994
51
152.9999994
0
ARC
8
0
10
185.6831333
20
-190.9142978
40
0.5
50
152.9999994
51
242.9999994
0
ARC
8
0
10
247.6550819
20
-190.9142978
40
0.5
50
297.0000006
51
27.0000006
0
ARC
8
0
10
241.8223936
20
-179.4670023
40
0.5
50
27.0000006
51
117.0000006
0
ARC
8
0
10
230.3750981
20
-185.2996906
40
0.5
50
117.0000006
51
207.0000006
0
ARC
8
0
10
236.2077864
20
-196.7469861
40
0.5
50
207.0000006
51
297.0000006
0
ARC
8
0
10
128.2083942
20
-132.372239
40
0.5
50
255.9999994
51
345.9999994
0
ARC
8
0
10
131.31651
20
-119.9062676
40
0.5
50
345.9999994
51
75.9999994
0
ARC
8
0
10
118.8505386
20
-116.7981518
40
0.5
50
75.9999994
51
165.9999994
0
ARC
8
0
10
115.7424228
20
-129.2641232
40
0.5
50
165.9999994
51
255.9999994
0
ARC
8
0
10
317.5957924
20
-129.2641232
40
0.5
50
284.0000006
51
14.0000006
0
ARC
8
0
10
314.4876766
20
-116.7981518
40
0.5
50
14.0000006
51
104.0000006
0
ARC
8
0
10
302.0217052
20
-119.9062676
40
0.5
50
104.0000006
51
194.0000006
0
ARC
8
0
10
305.129821
20
-132.372239
40
0.5
50
194.0000006
51
284.0000006
0
ARC
8
0
10
124.095722
20
-148.8672664
40
0.5
50
255.9999994
51
345.9999994
0
ARC
8
0
10
127.2038378
20
-136.401295
40
0.5
50
345.9999994
51
75.9999994
0
ARC
8
0
10
114.7378664
20
-133.2931792
40
0.5
50
75.9999994
51
165.9999994
0
ARC
8
0
10
111.6297506
20
-145.7591506
40
0.5
50
165.9999994
51
255.9999994
0
ARC
8
0
10
321.7084646
20
-145.7591506
40
0.5
50
284.0000006
51
14.0000006
0
ARC
8
0
10
318.6003488
20
-133.2931792
40
0.5
50
14.0000006
51
104.0000006
0
ARC
8
0
10
306.1343774
20
-136.401295
40
0.5
50
104.0000006
51
194.0000006
0
ARC
8
0
10
309.2424932
20
-148.8672664
40
0.5
50
194.0000006
51
284.0000006
0
ARC
8
0
10
142.8228686
20
-149.7199437
40
0.5
50
250.999998
51
340.999998
0
ARC
8
0
10
147.005638
20
-137.5722993
40
0.5
50
340.999998
51
70.999998
0
ARC
8
0
10
134.8579936
20
-133.3895299
40
0.5
50
70.999998
51
160.999998
0
ARC
8
0
10
130.6752242
20
-145.5371743
40
0.5
50
160.999998
51
250.999998
0
ARC
8
0
10
148.3575272
20
-133.6461279
40
0.5
50
250.999998
51
340.999998
0
ARC
8
0
10
152.5402966
20
-121.4984835
40
0.5
50
340.999998
51
70.999998
0
ARC
8
0
10
140.3926522
20
-117.3157141
40
0.5
50
70.999998
51
160.999998
0
ARC
8
0
10
136.2098828
20
-129.4633585
40
0.5
50
160.999998
51
250.999998
0
ARC
8
0
10
153.8921858
20
-117.5723121
40
0.5
50
250.999998
51
340.999998
0
ARC
8
0
10
158.0749552
20
-105.4246677
40
0.5
50
340.999998
51
70.999998
0
ARC
8
0
10
145.9273108
20
-101.2418983
40
0.5
50
70.999998
51
160.999998
0
ARC
8
0
10
141.7445414
20
-113.3895427
40
0.5
50
160.999998
51
250.999998
0
ARC
8
0
10
302.662991
20
-145.5371743
40
0.5
50
289.000002
51
19.000002
0
ARC
8
0
10
298.4802216
20
-133.3895299
40
0.5
50
19.000002
51
109.000002
0
ARC
8
0
10
286.3325772
20
-137.5722993
40
0.5
50
109.000002
51
199.000002
0
ARC
8
0
10
290.5153466
20
-149.7199437
40
0.5
50
199.000002
51
289.000002
0
ARC
8
0
10
297.1283324
20
-129.4633585
40
0.5
50
289.000002
51
19.000002
0
ARC
8
0
10
292.945563
20
-117.3157141
40
0.5
50
19.000002
51
109.000002
0
ARC
8
0
10
280.7979186
20
-121.4984835
40
0.5
50
109.000002
51
199.000002
0
ARC
8
0
10
284.980688
20
-133.6461279
40
0.5
50
199.000002
51
289.000002
0
ARC
8
0
10
291.5936738
20
-113.3895427
40
0.5
50
289.000002
51
19.000002
0
ARC
8
0
10
287.4109044
20
-101.2418983
40
0.5
50
19.000002
51
109.000002
0
ARC
8
0
10
275.26326
20
-105.4246677
40
0.5
50
109.000002
51
199.000002
0
ARC
8
0
10
279.4460294
20
-117.5723121
40
0.5
50
199.000002
51
289.000002
0
ARC
8
0
10
270.8403901
20
-157.0761086
40
0.5
50
291.9999994
51
21.9999994
0
ARC
8
0
10
266.0275944
20
-145.1640213
40
0.5
50
21.9999994
51
111.9999994
0
ARC
8
0
10
254.1155071
20
-149.976817
40
0.5
50
111.9999994
51
201.9999994
0
ARC
8
0
10
258.9283028
20
-161.8889043
40
0.5
50
201.9999994
51
291.9999994
0
ARC
8
0
10
264.472078
20
-141.313983
40
0.5
50
291.9999994
51
21.9999994
0
ARC
8
0
10
259.6592823
20
-129.4018957
40
0.5
50
21.9999994
51
111.9999994
0
ARC
8
0
10
247.747195
20
-134.2146914
40
0.5
50
111.9999994
51
201.9999994
0
ARC
8
0
10
252.5599907
20
-146.1267787
40
0.5
50
201.9999994
51
291.9999994
0
ARC
8
0
10
285.0104376
20
-146.7672651
40
0.5
50
291.9999994
51
21.9999994
0
ARC
8
0
10
280.1976419
20
-134.8551778
40
0.5
50
21.9999994
51
111.9999994
0
ARC
8
0
10
268.2855546
20
-139.6679735
40
0.5
50
111.9999994
51
201.9999994
0
ARC
8
0
10
273.0983503
20
-151.5800608
40
0.5
50
201.9999994
51
291.9999994
0
ARC
8
0
10
278.6421255
20
-131.0051395
40
0.5
50
291.9999994
51
21.9999994
0
ARC
8
0
10
273.8293298
20
-119.0930522
40
0.5
50
21.9999994
51
111.9999994
0
ARC
8
0
10
261.9172425
20
-123.9058479
40
0.5
50
111.9999994
51
201.9999994
0
ARC
8
0
10
266.7300382
20
-135.8179352
40
0.5
50
201.9999994
51
291.9999994
0
ARC
8
0
10
272.2738134
20
-115.243014
40
0.5
50
291.9999994
51
21.9999994
0
ARC
8
0
10
267.4610177
20
-103.3309267
40
0.5
50
21.9999994
51
111.9999994
0
ARC
8
0
10
255.5489304
20
-108.1437224
40
0.5
50
111.9999994
51
201.9999994
0
ARC
8
0
10
260.3617261
20
-120.0558097
40
0.5
50
201.9999994
51
291.9999994
0
ARC
8
0
10
263.5069129
20
-184.3060574
40
0.5
50
291.9999994
51
21.9999994
0
ARC
8
0
10
258.6941172
20
-172.3939701
40
0.5
50
21.9999994
51
111.9999994
0
ARC
8
0
10
246.7820299
20
-177.2067658
40
0.5
50
111.9999994
51
201.9999994
0
ARC
8
0
10
251.5948256
20
-189.1188531
40
0.5
50
201.9999994
51
291.9999994
0
ARC
8
0
10
160.2398649
20
-151.5800608
40
0.5
50
248.0000006
51
338.0000006
0
ARC
8
0
10
165.0526606
20
-139.6679735
40
0.5
50
338.0000006
51
68.0000006
0
ARC
8
0
10
153.1405733
20
-134.8551778
40
0.5
50
68.0000006
51
158.0000006
0
ARC
8
0
10
148.3277776
20
-146.7672651
40
0.5
50
158.0000006
51
248.0000006
0
ARC
8
0
10
166.608177
20
-135.8179352
40
0.5
50
248.0000006
51
338.0000006
0
ARC
8
0
10
171.4209727
20
-123.9058479
40
0.5
50
338.0000006
51
68.0000006
0
ARC
8
0
10
159.5088854
20
-119.0930522
40
0.5
50
68.0000006
51
158.0000006
0
ARC
8
0
10
154.6960897
20
-131.0051395
40
0.5
50
158.0000006
51
248.0000006
0
ARC
8
0
10
172.9764891
20
-120.0558097
40
0.5
50
248.0000006
51
338.0000006
0
ARC
8
0
10
177.7892848
20
-108.1437224
40
0.5
50
338.0000006
51
68.0000006
0
ARC
8
0
10
165.8771975
20
-103.3309267
40
0.5
50
68.0000006
51
158.0000006
0
ARC
8
0
10
161.0644018
20
-115.243014
40
0.5
50
158.0000006
51
248.0000006
0
ARC
8
0
10
174.4099124
20
-161.8889043
40
0.5
50
248.0000006
51
338.0000006
0
ARC
8
0
10
179.2227081
20
-149.976817
40
0.5
50
338.0000006
51
68.0000006
0
ARC
8
0
10
167.3106208
20
-145.1640213
40
0.5
50
68.0000006
51
158.0000006
0
ARC
8
0
10
162.4978251
20
-157.0761086
40
0.5
50
158.0000006
51
248.0000006
0
ARC
8
0
10
180.7782245
20
-146.1267787
40
0.5
50
248.0000006
51
338.0000006
0
ARC
8
0
10
185.5910202
20
-134.2146914
40
0.5
50
338.0000006
51
68.0000006
0
ARC
8
0
10
173.6789329
20
-129.4018957
40
0.5
50
68.0000006
51
158.0000006
0
ARC
8
0
10
168.8661372
20
-141.313983
40
0.5
50
158.0000006
51
248.0000006
0
ARC
8
0
10
187.1465366
20
-130.3646531
40
0.5
50
248.0000006
51
338.0000006
0
ARC
8
0
10
191.9593323
20
-118.4525658
40
0.5
50
338.0000006
51
68.0000006
0
ARC
8
0
10
180.047245
20
-113.6397701
40
0.5
50
68.0000006
51
158.0000006
0
ARC
8
0
10
175.2344493
20
-125.5518574
40
0.5
50
158.0000006
51
248.0000006
0
ARC
8
0
10
193.356194
20
-160.3761535
40
0.5
50
248.0000006
51
338.0000006
0
ARC
8
0
10
198.1689897
20
-148.4640662
40
0.5
50
338.0000006
51
68.0000006
0
ARC
8
0
10
186.2569024
20
-143.6512705
40
0.5
50
68.0000006
51
158.0000006
0
ARC
8
0
10
181.4441067
20
-155.5633578
40
0.5
50
158.0000006
51
248.0000006
0
ARC
8
0
10
199.7245061
20
-144.614028
40
0.5
50
248.0000006
51
338.0000006
0
ARC
8
0
10
204.5373018
20
-132.7019407
40
0.5
50
338.0000006
51
68.0000006
0
ARC
8
0
10
192.6252145
20
-127.889145
40
0.5
50
68.0000006
51
158.0000006
0
ARC
8
0
10
187.8124188
20
-139.8012323
40
0.5
50
158.0000006
51
248.0000006
0
ARC
8
0
10
258.1037659
20
-125.5518574
40
0.5
50
291.9999994
51
21.9999994
0
ARC
8
0
10
253.2909702
20
-113.6397701
40
0.5
50
21.9999994
51
111.9999994
0
ARC
8
0
10
241.3788829
20
-118.4525658
40
0.5
50
111.9999994
51
201.9999994
0
ARC
8
0
10
246.1916786
20
-130.3646531
40
0.5
50
201.9999994
51
291.9999994
0
ARC
8
0
10
251.8941085
20
-155.5633578
40
0.5
50
291.9999994
51
21.9999994
0
ARC
8
0
10
247.0813128
20
-143.6512705
40
0.5
50
21.9999994
51
111.9999994
0
ARC
8
0
10
235.1692255
20
-148.4640662
40
0.5
50
111.9999994
51
201.9999994
0
ARC
8
0
10
239.9820212
20
-160.3761535
40
0.5
50
201.9999994
51
291.9999994
0
ARC
8
0
10
245.5257964
20
-139.8012323
40
0.5
50
291.9999994
51
21.9999994
0
ARC
8
0
10
240.7130007
20
-127.889145
40
0.5
50
21.9999994
51
111.9999994
0
ARC
8
0
10
228.8009134
20
-132.7019407
40
0.5
50
111.9999994
51
201.9999994
0
ARC
8
0
10
233.6137091
20
-144.614028
40
0.5
50
201.9999994
51
291.9999994
0
ARC
8
0
10
181.7433896
20
-189.1188531
40
0.5
50
248.0000006
51
338.0000006
0
ARC
8
0
10
186.5561853
20
-177.2067658
40
0.5
50
338.0000006
51
68.0000006
0
ARC
8
0
10
174.644098
20
-172.3939701
40
0.5
50
68.0000006
51
158.0000006
0
ARC
8
0
10
169.8313023
20
-184.3060574
40
0.5
50
158.0000006
51
248.0000006
0
LINE
8
0
10
206.9191076
20
-168.4015865
11
226.4191076
21
-168.4015865
0
LINE
8
0
10
226.4191076
20
-168.4015865
11
226.4191076
21
-147.2850744
0
LINE
8
0
10
206.9191076
20
-147.2850744
11
206.9191076
21
-168.4015865
0
CIRCLE
8
0
10
180.7643351
20
-162.3813724
40
1
0
CIRCLE
8
0
10
252.5738801
20
-162.3813724
40
1
0
CIRCLE
8
0
10
198.2706819
20
-161.0957514
40
1.6
0
CIRCLE
8
0
10
235.0675333
20
-161.0957514
40
1.6
0
ENDSEC
0
EOF